<?xml version="1.0" standalone="no"?><!DOCTYPE svg PUBLIC "-//W3C//DTD SVG 1.1//EN" "http://www.w3.org/Graphics/SVG/1.1/DTD/svg11.dtd"><svg t="1560153934952" class="icon" style="" viewBox="0 0 1024 1024" version="1.1" xmlns="http://www.w3.org/2000/svg" p-id="14481" xmlns:xlink="http://www.w3.org/1999/xlink" width="300" height="300"><defs><style type="text/css"></style></defs><path d="M957.676455 506.477216c0-143.330406-79.853699-259.521708-229.575675-259.521708-32.489972 0-61.47512 5.750981-87.279833 15.786545C600.75237 146.335856 507.202741 65.290005 364.770797 65.290005c-194.638979 0-298.448276 151.049205-298.448276 337.377914 0 160.204725 76.94444 294.042943 222.183312 328.501756-2.827395 5.048993-4.907777 10.376325-5.449105 16.117073-4.02364-3.085268-6.109138-5.399987-6.280031-5.609765-6.245238-8.745175-18.412348-10.717086-27.152406-4.471848-8.745175 6.27389-10.747785 18.422581-4.473895 27.15343 3.062755 4.267187 31.974225 40.361243 112.486934 42.533722-3.246951 65.571415-26.913976 104.784508-50.596352 109.74652-10.517541 2.201132-17.260106 12.519128-15.053857 23.035646 1.913583 9.174963 10.009981 15.474436 19.018145 15.474436a18.777669 18.777669 0 0 0 4.018524-0.419555c47.323818-9.910721 78.418001-68.130703 81.572853-149.463081 61.98268-7.861038 85.067444-37.105083 87.797626-40.907688 6.16235-8.579399 4.193509-20.327978-4.243651-26.684756-8.4126-6.401804-20.551058-4.653997-27.118638 3.637854-0.248663 0.317225-2.416026 2.738367-6.553253 5.917779-0.542352-5.664-2.592035-10.92277-5.366217-15.912411 41.591257-9.931187 77.597309-27.989471 107.783818-52.520167 28.686343 39.727817 69.365834 68.555375 121.469516 80.737835-0.308015 2.128477-0.653893 4.248767-0.653893 6.460133 0 2.220574 0.340761 4.351098 0.653893 6.489807h-7.142677c-10.747785 0-19.463284 8.715499-19.463284 19.462261 0 10.747785 8.716522 19.462261 19.463284 19.462261h38.290071c13.81361 43.242873-8.42795 100.249215-27.505447 110.806665-9.404184 5.205559-12.812817 17.041118-7.607259 26.459628 3.549849 6.411013 10.206456 10.033517 17.046235 10.033517 3.193739 0 6.426363-0.785899 9.413394-2.431375 36.016285-19.932981 61.064774-88.106664 49.180096-144.869459h24.99016c10.747785 0 19.464307-8.715499 19.464308-19.46226 0-10.747785-8.716522-19.462261-19.464308-19.462261h-7.142677c0.308015-2.13871 0.653893-4.269233 0.653893-6.489808 0-0.722454-0.176009-1.391696-0.209778-2.103917 128.838344-15.591093 197.3446-124.786051 197.3446-257.412675zM390.210189 766.82371c-7.690146 0.913812-15.991206 1.543146-25.438368 1.543145-9.448186 0-17.745153-0.630357-25.430183-1.543145-13.988596-4.257977-22.090111-11.299347-22.090111-15.86841 0-3.521197 4.779863-8.525164 13.33982-12.592806 11.070126 1.073448 22.441105 1.679245 34.180474 1.679246 11.669784 0 22.890336-0.732687 33.895994-1.795903 8.725732 4.086062 13.623275 9.154497 13.623276 12.709463-0.001023 4.570085-8.096399 11.611455-22.080902 15.86841z m171.713851-178.554652c-10.912537 16.695241-23.602557 32.089859-38.680975 45.36214-38.071084 33.515325-89.936335 54.506405-158.471244 54.506405-181.778066 0-246.544139-147.46661-246.544139-285.468661 0-138.007167 64.766073-285.473777 246.544139-285.473776 130.781602 0 200.76142 76.431763 229.868341 170.653704 5.727445 18.554588 9.951653 37.730323 12.642948 57.227376 2.636037 19.10615 4.037966 38.427194 4.037966 57.592696-0.002047 65.360614-14.787798 132.665509-49.397036 185.600116z m146.710386 177.72475c0-0.38988 0.356111-0.635473 0.424672-1.010003 4.096295 0.282433 8.197706 0.556679 12.406564 0.659009 0.010233 0.1361 0.146333 0.214894 0.146333 0.350994-0.001023 7.148817-12.977569 7.148817-12.977569 0z m19.467377-51.903113c-68.696592 0-114.02394-29.625738-141.767817-72.149227 50.688449-61.113893 76.885088-145.728012 76.885087-239.272526a456.735325 456.735325 0 0 0-8.843412-89.497336c20.913309-8.988722 45.209668-14.310937 73.726142-14.310938 130.996496 0 177.671539 107.246583 177.671539 207.617572 0 100.365872-46.675042 207.612455-177.671539 207.612455z" p-id="14482"></path><path d="M344.473519 175.295422c-104.102986 18.260899-174.125783 117.377314-162.886811 230.575446 0.952698 9.643638 9.072633 16.841573 18.563798 16.841573 0.621147 0 1.24127-0.033769 1.874697-0.097214 10.263761-1.016143 17.768689-10.166547 16.739243-20.439518-9.423627-95.043656 46.152133-174.990476 132.169205-190.078103 10.165524-1.777483 16.95823-11.470239 15.170514-21.63167-1.778506-10.166547-11.461029-16.919345-21.630646-15.170514z" p-id="14483"></path></svg>