<?xml version="1.0" standalone="no"?><!DOCTYPE svg PUBLIC "-//W3C//DTD SVG 1.1//EN" "http://www.w3.org/Graphics/SVG/1.1/DTD/svg11.dtd"><svg t="1558575640283" class="icon" style="" viewBox="0 0 1024 1024" version="1.1" xmlns="http://www.w3.org/2000/svg" p-id="16351" xmlns:xlink="http://www.w3.org/1999/xlink" width="300" height="300"><defs><style type="text/css"></style></defs><path d="M327.6 682.7c-31.8-31.5-49.7-74.4-49.7-119.3V385.3c0-33.5 9.8-64.7 26.8-91-7.8-1.9-15.7-2.9-23.7-2.9H154.3c-56.6 0-102.9 46.9-102.9 104v163.7c0 38.8 21.5 74.4 55.7 92.3v319.9h83l30.6-202.5 30.6 202.5h76.4V682.7z m304.1-18.5c36.3-18.8 61.2-57.1 61.2-100.8V385.3c0-62.2-50.4-113.2-112-113.2h-138c-61.6 0-112 50.9-112 113.2v178.1c0 43.6 24.7 81.6 60.6 100.5V1012H482l33.3-220.3 33.3 220.3h83.1V664.2zM515.1 12c65.2 0 118 53.4 118 119.3 0 65.8-52.8 119.3-118 119.3s-118-53.4-118-119.3c0-66.1 52.8-119.3 118-119.3z m182.2 670.7v288.8h76.4L804.3 769l30.6 202.5H918V651.7c33-17.4 55.6-52.3 55.6-92.3V395.6c0-57.2-46.4-104-103-104H744.1c-8.2 0-16.2 1-23.7 2.9 17.6 27.1 26.9 58.7 26.8 91v178.1c0 45.4-18.5 88.2-49.9 119.1zM804.6 52.4c-60 0-108.5 49-108.5 109.5s48.5 109.6 108.5 109.6c59.8 0 108.3-49 108.3-109.6 0-60.6-48.5-109.5-108.3-109.5z m-584.1 0c59.8 0 108.5 49 108.5 109.5s-48.5 109.6-108.5 109.6c-59.9 0-108.3-49-108.3-109.6-0.1-60.6 48.4-109.5 108.3-109.5z" fill="#595757" p-id="16352"></path></svg>