<?xml version="1.0" standalone="no"?><!DOCTYPE svg PUBLIC "-//W3C//DTD SVG 1.1//EN" "http://www.w3.org/Graphics/SVG/1.1/DTD/svg11.dtd"><svg t="1560736463833" class="icon" style="" viewBox="0 0 1024 1024" version="1.1" xmlns="http://www.w3.org/2000/svg" p-id="6577" xmlns:xlink="http://www.w3.org/1999/xlink" width="400" height="400"><defs><style type="text/css"></style></defs><path d="M170.9 880.5h-42.5c-16.8 0-30.4-13.6-30.4-30.4V473.4c0-16.8 13.6-30.4 30.4-30.4h42.5c16.8 0 30.4 13.6 30.4 30.4V850c0 16.8-13.6 30.5-30.4 30.5zM128.4 468c-2.9 0-5.4 2.5-5.4 5.4V850c0 2.9 2.5 5.4 5.4 5.4h42.5c2.9 0 5.4-2.5 5.4-5.4V473.4c0-2.9-2.5-5.4-5.4-5.4h-42.5zM296.6 880.5h-37.2c-18.2 0-33-14.8-33-33V346.8c0-18.2 14.8-33 33-33h37.2c18.2 0 33 14.8 33 33v500.6c0.1 18.2-14.8 33.1-33 33.1z m-37.2-541.7c-4.4 0-8 3.7-8 8v500.6c0 4.4 3.7 8 8 8h37.2c4.4 0 8-3.7 8-8V346.8c0-4.4-3.7-8-8-8h-37.2zM438.4 880.5H391c-15.4 0-28-12.5-28-28V576.8c0-6.2 2.1-12.4 6-17.3l19.6 15.5c-0.3 0.4-0.6 1-0.6 1.8v275.8c0 1.6 1.4 3 3 3h47.4c1.6 0 3-1.4 3-3V637.1h25v215.4c-0.1 15.4-12.6 28-28 28zM575 880.5h-47.4c-15.4 0-28-12.5-28-28v-182h25v182c0 1.6 1.4 3 3 3H575c1.6 0 3-1.4 3-3V685.8h25v166.7c0 15.4-12.5 28-28 28z" fill="" p-id="6578"></path><path d="M605.5 700.8c-75.2 0-145.9-29.3-199.1-82.5-53.2-53.2-82.5-123.9-82.5-199.1s29.3-145.9 82.5-199.1 123.9-82.5 199.1-82.5 145.9 29.3 199.1 82.5 82.5 123.9 82.5 199.1-29.3 145.9-82.5 199.1c-53.2 53.2-123.9 82.5-199.1 82.5z m0-535c-139.7 0-253.4 113.7-253.4 253.4s113.7 253.4 253.4 253.4 253.4-113.7 253.4-253.4-113.7-253.4-253.4-253.4z" fill="" p-id="6579"></path><path d="M568.8 683h-20V427.1c0-8.3-6.7-15-15-15H417.2c-8.3 0-15 6.7-15 15v159h-20v-159c0-19.3 15.7-35 35-35h116.7c19.3 0 35 15.7 35 35V683zM652.2 688h-23.3V314.6c0-22.5 18.3-40.8 40.8-40.8H778c22.5 0 40.8 18.3 40.8 40.8v284.6h-23.3V314.6c0-9.6-7.9-17.5-17.5-17.5H669.7c-9.6 0-17.5 7.8-17.5 17.5V688z" fill="" p-id="6580"></path><path d="M913 759.6c-3.7 0-7.5-1.4-10.4-4.2l-130-124.2c-6-5.7-6.2-15.2-0.5-21.2s15.2-6.2 21.2-0.5l130 124.2c6 5.7 6.2 15.2 0.5 21.2-2.9 3.2-6.8 4.7-10.8 4.7z" fill="" p-id="6581"></path></svg>