<?xml version="1.0" standalone="no"?><!DOCTYPE svg PUBLIC "-//W3C//DTD SVG 1.1//EN" "http://www.w3.org/Graphics/SVG/1.1/DTD/svg11.dtd"><svg t="1560390897756" class="icon" style="" viewBox="0 0 1102 1024" version="1.1" xmlns="http://www.w3.org/2000/svg" p-id="1702" xmlns:xlink="http://www.w3.org/1999/xlink" width="430.46875" height="400"><defs><style type="text/css"></style></defs><path d="M594.944 4.726A46.474 46.474 0 0 0 543.98 11.5L268.603 249.935l-219.53-0.867h-0.236a46.71 46.71 0 0 0-33.713 14.494 50.57 50.57 0 0 0-14.179 35.21L0 697.108c0 13.312 5.041 25.994 13.942 35.367 8.98 9.452 21.268 14.651 33.87 14.651h222.209l274.117 237.49c14.02 12.366 34.107 15.044 50.885 6.852a49.94 49.94 0 0 0 27.569-45.134V49.782a50.018 50.018 0 0 0-27.57-45.056z m185.738 248.91a46.868 46.868 0 0 0-63.173 23.474 51.042 51.042 0 0 0 21.898 66.403c2.993 1.654 74.752 40.487 74.752 150.843 0 117.996-67.112 157.066-69.317 158.326a50.806 50.806 0 0 0-21.425 66.954c8.428 17.486 25.285 27.569 42.929 27.569a46.474 46.474 0 0 0 21.268-5.278c5.04-2.678 122.328-65.772 122.328-247.571 0-175.42-124.061-238.12-129.26-240.72z m149.031-146.274a46.71 46.71 0 0 0-65.772 14.967 51.2 51.2 0 0 0 13.863 68.765c5.2 3.624 127.922 90.585 127.922 306.964 0 216.93-117.682 303.892-122.408 307.2a51.042 51.042 0 0 0-13.233 69.16 46.71 46.71 0 0 0 66.402 13.784c6.696-4.726 164.943-117.524 164.943-390.223 0-273.172-164.628-385.97-171.717-390.617z" p-id="1703"></path></svg>