<?xml version="1.0" standalone="no"?><!DOCTYPE svg PUBLIC "-//W3C//DTD SVG 1.1//EN" "http://www.w3.org/Graphics/SVG/1.1/DTD/svg11.dtd"><svg t="1558576924476" class="icon" style="" viewBox="0 0 1024 1024" version="1.1" xmlns="http://www.w3.org/2000/svg" p-id="2443" xmlns:xlink="http://www.w3.org/1999/xlink" width="300" height="300"><defs><style type="text/css"></style></defs><path d="M356.4 492.6l-77.8-39-0.2 77.8z" fill="#FCD64B" p-id="2444"></path><path d="M278.4 541.2c-1.8 0-3.6-0.4-5.2-1.4-2.8-1.8-4.6-5-4.6-8.2v-77.8c0-3.4 1.8-6.6 4.6-8.2 2.8-1.8 6.4-2 9.4-0.4l77.8 39c3.2 1.6 5.4 5 5.4 8.8 0 3.6-2 7-5.4 8.8l-77.8 39c-1.2 0-2.6 0.4-4.2 0.4z m9.8-71.8v46.4l46.4-23.2-46.4-23.2z" fill="#402943" p-id="2445"></path><path d="M667.6 492.6l77.8-39 0.2 77.8z" fill="#FCD64B" p-id="2446"></path><path d="M745.6 541.2c-1.4 0-3-0.4-4.4-1l-77.8-39c-3.2-1.6-5.4-5-5.4-8.8 0-3.6 2-7 5.4-8.8l77.8-39c3-1.6 6.6-1.4 9.4 0.4 2.8 1.8 4.6 5 4.6 8.2v77.8c0 3.4-1.8 6.6-4.6 8.2-1.6 1.6-3.4 2-5 2z m-56.2-48.6l46.4 23.2v-46.4l-46.4 23.2z" fill="#402943" p-id="2447"></path><path d="M648.2 317.4c0-75.2-61-136.2-136.2-136.2-75.2 0-136.2 61-136.2 136.2 0 46.2 23 87.2 58.4 111.8v63.4h155.6v-63.4c35.4-24.6 58.4-65.6 58.4-111.8z" fill="#FFFFFF" p-id="2448"></path><path d="M512 181.2c-6.6 0-13.2 0.4-19.4 1.4 66 9.4 116.8 66.2 116.8 134.8 0 46.2-23 87.2-58.4 111.8v63.4H590v-63.4c35.2-24.6 58.4-65.4 58.4-111.8-0.2-75.2-61.2-136.2-136.4-136.2z" fill="#E6E7E8" p-id="2449"></path><path d="M512 181.2c6.6 0 13.2 0.4 19.4 1.4-66 9.4-116.8 66.2-116.8 134.8 0 46.2 23 87.2 58.4 111.8v63.4H434v-63.4c-35.2-24.6-58.4-65.4-58.4-111.8 0.2-75.2 61.2-136.2 136.4-136.2z" fill="#E6E7E8" p-id="2450"></path><path d="M589.8 502.2h-155.6c-5.4 0-9.8-4.4-9.8-9.8V434c-36.6-27.6-58.4-70.8-58.4-116.8 0-80.4 65.4-146 146-146 80.4 0 146 65.4 146 146 0 46-21.8 89.2-58.4 116.8v58.4c0 5.6-4.4 9.8-9.8 9.8z m-146-19.4H580v-53.6c0-3.2 1.6-6.2 4.2-8 34-23.6 54.2-62.4 54.2-103.8 0-69.8-56.8-126.4-126.4-126.4-69.8 0-126.4 56.8-126.4 126.4 0 41.2 20.2 80 54.2 103.8 2.6 1.8 4.2 4.8 4.2 8v53.6z" fill="#402943" p-id="2451"></path><path d="M317.4 842.8V589.8c0-53.8 43.6-97.2 97.2-97.2H512v350.2h-194.6z" fill="#F05458" p-id="2452"></path><path d="M414.8 492.6h39c-53.8 0-97.2 43.6-97.2 97.2v253h-39V589.8c-0.2-53.8 43.4-97.2 97.2-97.2z" fill="#F0787B" p-id="2453"></path><path d="M317.4 852.6c-2.6 0-5-1-6.8-2.8-1.8-1.8-2.8-4.2-2.8-6.8V589.8c0-59 48-107 107-107H512c5.4 0 9.8 4.4 9.8 9.8v350.2c0 5.4-4.4 9.8-9.8 9.8h-194.6z m97.4-350.4c-48.2 0-87.6 39.2-87.6 87.6v243.2h175.2V502.2h-87.6z" fill="#402943" p-id="2454"></path><path d="M473 492.6h38.2v350.2h-38.2z" fill="#FFFFFF" p-id="2455"></path><path d="M511.2 852.6h-38.2c-5.4 0-9.8-4.4-9.8-9.8V492.6c0-5.4 4.4-9.8 9.8-9.8h38.2c5.4 0 9.8 4.4 9.8 9.8v350.2c0 5.4-4.4 9.8-9.8 9.8z m-28.4-19.6h18.6V502.2h-18.6v330.8z" fill="#402943" p-id="2456"></path><path d="M706.6 842.8V589.8c0-53.8-43.6-97.2-97.2-97.2H512v350.2h194.6z" fill="#F05458" p-id="2457"></path><path d="M609.2 492.6h-39c53.8 0 97.2 43.6 97.2 97.2v253h39V589.8c0.2-53.8-43.4-97.2-97.2-97.2z" fill="#D9383C" p-id="2458"></path><path d="M706.6 852.6H512c-5.4 0-9.8-4.4-9.8-9.8V492.6c0-5.4 4.4-9.8 9.8-9.8h97.2c59 0 107 48 107 107v253c0 2.6-1 5-2.8 6.8-1.8 1.8-4.2 3-6.8 3z m-184.8-19.6h175.2V589.8c0-48.2-39.2-87.6-87.6-87.6h-87.6v330.8z" fill="#402943" p-id="2459"></path><path d="M512.4 492.6h38.2v350.2h-38.2z" fill="#FFFFFF" p-id="2460"></path><path d="M550.6 852.6h-38.2c-5.4 0-9.8-4.4-9.8-9.8V492.6c0-5.4 4.4-9.8 9.8-9.8h38.2c5.4 0 9.8 4.4 9.8 9.8v350.2c-0.2 5.4-4.4 9.8-9.8 9.8z m-28.4-19.6h18.6V502.2h-18.6v330.8z" fill="#402943" p-id="2461"></path><path d="M356.4 492.6l155.6 155.6 155.6-155.6z" fill="#FCD64B" p-id="2462"></path><path d="M512 589.8l-97.2-97.2h-58.4l155.6 155.6 155.6-155.6h-58.4z" fill="#F5AB33" p-id="2463"></path><path d="M512 658c-2.4 0-5-1-6.8-2.8l-155.6-155.6c-2.8-2.8-3.6-7-2.2-10.6 1.6-3.6 5-6 9-6h311.4c4 0 7.4 2.4 9 6 1.6 3.6 0.6 7.8-2.2 10.6l-155.6 155.6c-2 1.8-4.6 2.8-7 2.8z m-132.2-155.8l132.2 132.2 132.2-132.2H379.8z" fill="#402943" p-id="2464"></path><path d="M278.6 842.8h467v77.8H278.6z" fill="#FFFFFF" p-id="2465"></path><path d="M278.6 842.8h39v77.8h-39zM706.6 842.8h39v77.8h-39z" fill="#E6E7E8" p-id="2466"></path><path d="M745.6 930.4H278.6c-5.4 0-9.8-4.4-9.8-9.8v-77.8c0-5.4 4.4-9.8 9.8-9.8h467c5.4 0 9.8 4.4 9.8 9.8v77.8c-0.2 5.4-4.6 9.8-9.8 9.8z m-457.4-19.6h447.6v-58.4H288.2v58.4z" fill="#402943" p-id="2467"></path><path d="M706.6 609.2v155.8l77.8-77.8v-78z" fill="#FCD64B" p-id="2468"></path><path d="M745.6 609.2h-39v155.8l39-39z" fill="#F5AB33" p-id="2469"></path><path d="M706.6 774.6c-1.2 0-2.6-0.2-3.8-0.8-3.6-1.6-6-5-6-9v-155.6c0-2.6 1-5 2.8-6.8 1.8-1.8 4.2-2.8 6.8-2.8h77.8c5.4 0 9.8 4.4 9.8 9.8v77.8c0 2.6-1 5-2.8 6.8l-77.8 77.8c-1.8 1.8-4.2 2.8-6.8 2.8z m9.8-155.6v122.4l58.4-58.4v-64h-58.4z" fill="#402943" p-id="2470"></path><path d="M745.6 735.8c-5.4 0-9.8-4.4-9.8-9.8v-79.2c0-5.4 4.4-9.8 9.8-9.8s9.8 4.4 9.8 9.8V726c-0.2 5.4-4.6 9.8-9.8 9.8z" fill="#402943" p-id="2471"></path><path d="M317.4 609.2v155.8l-77.8-77.8v-78z" fill="#FCD64B" p-id="2472"></path><path d="M278.6 726l38.8 39v-155.8h-38.8z" fill="#F5AB33" p-id="2473"></path><path d="M317.4 774.6c-2.6 0-5-1-6.8-2.8L232.8 694c-1.8-1.8-2.8-4.2-2.8-6.8v-77.8c0-5.4 4.4-9.8 9.8-9.8h77.8c2.6 0 5 1 6.8 2.8 1.8 1.8 2.8 4.2 2.8 6.8v155.6c0 4-2.4 7.4-6 9-1.2 0.6-2.6 0.8-3.8 0.8z m-68-91.6l58.4 58.4v-122.4h-58.4v64z" fill="#402943" p-id="2474"></path><path d="M278.6 735.8c-5.4 0-9.8-4.4-9.8-9.8v-79.2c0-5.4 4.4-9.8 9.8-9.8s9.8 4.4 9.8 9.8V726c-0.2 5.4-4.6 9.8-9.8 9.8z" fill="#402943" p-id="2475"></path><path d="M317.4 609.2c64.4 0 116.8-52.2 116.8-116.8h-77.8c-64.4 0-116.8 52.2-116.8 116.8h77.8z" fill="#FCD64B" p-id="2476"></path><path d="M356.4 492.6h39c-64.4 0-116.8 52.2-116.8 116.8h-39c0-64.6 52.2-116.8 116.8-116.8z" fill="#FFECA6" p-id="2477"></path><path d="M317.4 609.2h-39c64.4 0 116.8-52.2 116.8-116.8h39c0 64.6-52.4 116.8-116.8 116.8z" fill="#F5AB33" p-id="2478"></path><path d="M317.4 619h-77.8c-5.4 0-9.8-4.4-9.8-9.8 0-69.8 56.8-126.4 126.4-126.4H434c5.4 0 9.8 4.4 9.8 9.8 0 69.6-56.6 126.4-126.4 126.4z m-67.6-19.4h67.6c55.8 0 101.6-42.8 106.6-97.2h-67.6c-55.8-0.2-101.8 42.6-106.6 97.2z" fill="#402943" p-id="2479"></path><path d="M706.6 609.2c-64.4 0-116.8-52.2-116.8-116.8h77.8c64.4 0 116.8 52.2 116.8 116.8h-77.8z" fill="#FCD64B" p-id="2480"></path><path d="M667.6 492.6h-39c64.4 0 116.8 52.2 116.8 116.8h39c0-64.6-52.2-116.8-116.8-116.8z" fill="#F5AB33" p-id="2481"></path><path d="M706.6 609.2h39c-64.4 0-116.8-52.2-116.8-116.8h-39c0 64.6 52.4 116.8 116.8 116.8z" fill="#FFECA6" p-id="2482"></path><path d="M784.4 619h-77.8c-69.8 0-126.4-56.8-126.4-126.4 0-5.4 4.4-9.8 9.8-9.8h77.8c69.8 0 126.4 56.8 126.4 126.4 0 5.4-4.4 9.8-9.8 9.8zM600 502.2c5 54.4 50.8 97.2 106.6 97.2h67.6c-5-54.4-50.8-97.2-106.6-97.2H600z" fill="#402943" p-id="2483"></path><path d="M473 453.6v39" fill="#FFFFFF" p-id="2484"></path><path d="M473 502.2c-5.4 0-9.8-4.4-9.8-9.8v-39c0-5.4 4.4-9.8 9.8-9.8s9.8 4.4 9.8 9.8v39c0 5.6-4.4 9.8-9.8 9.8z" fill="#402943" p-id="2485"></path><path d="M512 453.6v39" fill="#FFFFFF" p-id="2486"></path><path d="M512 502.2c-5.4 0-9.8-4.4-9.8-9.8v-39c0-5.4 4.4-9.8 9.8-9.8s9.8 4.4 9.8 9.8v39c0 5.6-4.4 9.8-9.8 9.8z" fill="#402943" p-id="2487"></path><path d="M551 453.6v39" fill="#FFFFFF" p-id="2488"></path><path d="M551 502.2c-5.4 0-9.8-4.4-9.8-9.8v-39c0-5.4 4.4-9.8 9.8-9.8s9.8 4.4 9.8 9.8v39c-0.2 5.6-4.6 9.8-9.8 9.8z" fill="#402943" p-id="2489"></path><path d="M596.6 541.2h-169c-5.4 0-9.8-4.4-9.8-9.8s4.4-9.8 9.8-9.8h169c5.4 0 9.8 4.4 9.8 9.8-0.2 5.4-4.6 9.8-9.8 9.8z" fill="#402943" p-id="2490"></path><path d="M375.8 259h-97.2l-78-77.8 39 136.2h136.2z" fill="#FCD64B" p-id="2491"></path><path d="M200.6 181.2l58.4 97.4h116.8v38.8h-136.2z" fill="#F5AB33" p-id="2492"></path><path d="M375.8 327.2h-136.2c-4.4 0-8.2-2.8-9.4-7L191.4 183.8c-1.2-4.2 0.6-8.8 4.4-11 3.8-2.2 8.6-1.6 11.8 1.6l75 75h93.2c5.4 0 9.8 4.4 9.8 9.8v58.4c0 5.2-4.4 9.6-9.8 9.6z m-128.8-19.6H366v-39h-87.6c-2.6 0-5-1-6.8-2.8l-51.2-51.2 26.6 93z" fill="#402943" p-id="2493"></path><path d="M648.2 259h97.2l78-77.8-39 136.2h-136.2z" fill="#FCD64B" p-id="2494"></path><path d="M823.4 181.2l-58.4 97.4h-116.8v38.8h136.2z" fill="#F5AB33" p-id="2495"></path><path d="M784.4 327.2h-136.2c-5.4 0-9.8-4.4-9.8-9.8v-58.4c0-5.4 4.4-9.8 9.8-9.8h93.2l75-75c3.2-3.2 8-3.8 11.8-1.6 3.8 2.2 5.6 6.8 4.4 11L793.8 320c-1.2 4.2-5 7.2-9.4 7.2z m-126.4-19.6h119.2l26.6-93-51.4 51.4c-1.8 1.8-4.2 2.8-6.8 2.8H658v38.8z" fill="#402943" p-id="2496"></path><path d="M667.6 414.8h-39V298L512 375.8 395.2 298v116.8h-39v-136.2c0-86 69.6-155.6 155.6-155.6s155.6 69.6 155.6 155.6l0.2 136.2z" fill="#F05458" p-id="2497"></path><path d="M667.6 278.6c0-86-69.6-155.6-155.6-155.6-6.6 0-13 0.4-19.4 1.2 76.8 9.6 136.2 75 136.2 154.4v136.2h39l-0.2-136.2z" fill="#D9383C" p-id="2498"></path><path d="M356.4 278.6c0-86 69.6-155.6 155.6-155.6 6.6 0 13 0.4 19.4 1.2-76.8 9.6-136.2 75-136.2 154.4v136.2h-39l0.2-136.2z" fill="#F0787B" p-id="2499"></path><path d="M667.6 424.4h-39c-5.4 0-9.8-4.4-9.8-9.8V316c-31.4 21-101 67.4-101.6 67.8-3.2 2.2-7.6 2.2-10.8 0L404.8 316v98.6c0 5.4-4.4 9.8-9.8 9.8H356c-5.4 0-9.8-4.4-9.8-9.8v-136.2c0-91.2 74.2-165.4 165.4-165.4s165.4 74.2 165.4 165.4v136.2c0.4 5.4-4 9.8-9.4 9.8z m-29.2-19.4h19.4v-126.4c0-80.4-65.4-146-146-146-80.4 0-146 65.4-146 146v126.4h19.4V298c0-3.6 2-6.8 5.2-8.6 3.2-1.6 7-1.6 10 0.4L512 364l111.4-74.2c3-2 6.8-2.2 10-0.4 3.2 1.6 5.2 5 5.2 8.6v107z" fill="#402943" p-id="2500"></path><path d="M551 349.8l-39 26-39-26V103.4h78z" fill="#FCD64B" p-id="2501"></path><path d="M531.4 362.8l19.6-13V103.4h-19.6z" fill="#F5AB33" p-id="2502"></path><path d="M492.6 362.8l-19.6-13V103.4h19.6z" fill="#FFECA6" p-id="2503"></path><path d="M512 385.6c-1.8 0-3.8-0.6-5.4-1.6l-39-26c-2.8-1.8-4.4-4.8-4.4-8V103.4c0-5.4 4.4-9.8 9.8-9.8h77.8c5.4 0 9.8 4.4 9.8 9.8v246.4c0 3.2-1.6 6.2-4.4 8l-39 26c-1.4 1.2-3.4 1.8-5.2 1.8z m-29.2-41L512 364l29.2-19.4V113.2h-58.4v231.4z m68.2 5.2z" fill="#402943" p-id="2504"></path><path d="M512 191c-5.4 0-9.8-4.4-9.8-9.8V142.2c0-5.4 4.4-9.8 9.8-9.8s9.8 4.4 9.8 9.8v39c0 5.4-4.4 9.8-9.8 9.8z" fill="#402943" p-id="2505"></path><path d="M512 385.6c-5.4 0-9.8-4.4-9.8-9.8v-116.8c0-5.4 4.4-9.8 9.8-9.8s9.8 4.4 9.8 9.8v116.8c0 5.4-4.4 9.8-9.8 9.8z" fill="#402943" p-id="2506"></path></svg>