<?xml version="1.0" standalone="no"?><!DOCTYPE svg PUBLIC "-//W3C//DTD SVG 1.1//EN" "http://www.w3.org/Graphics/SVG/1.1/DTD/svg11.dtd"><svg t="1560154076368" class="icon" style="" viewBox="0 0 1024 1024" version="1.1" xmlns="http://www.w3.org/2000/svg" p-id="17309" xmlns:xlink="http://www.w3.org/1999/xlink" width="400" height="400"><defs><style type="text/css"></style></defs><path d="M178.53 416.548c-24.171 16.945-32.757 50.118-21.309 77.049 13.131 30.869 49.961 46.218 80.516 31.026 31.059-15.442 43.01-55.134 27.315-85.736-15.254-29.729-52.382-42.035-81.774-25.185-1.572 0.904-3.27 1.8-4.748 2.846z m10.551 11.551c20.396-12.981 47.099-6.298 59.994 13.8 13.98 21.788 8.162 52.626-13.949 66.717-20.35 12.941-47.146 6.101-59.994-13.934-13.933-21.702-8.13-52.65 13.949-66.583 6.983-4.435-0.566 0.353 0 0z" p-id="17310"></path><path d="M930.254 435.411a7.71 7.71 0 0 0-0.535-7.406l-26.215-40.345V81.675c0-4.238-3.428-7.682-7.674-7.682H124.669c-4.246 0-7.69 3.443-7.69 7.682V543.95h-16.245a7.682 7.682 0 0 0-7.69 7.69v390.691c0 4.246 3.444 7.675 7.69 7.675h819.015a7.67 7.67 0 0 0 7.691-7.675v-390.69c0-4.262-3.43-7.69-7.691-7.69h-16.244V493.33l26.749-57.919z m-18.18 499.247H108.408V559.314h803.667v375.344zM863.199 543.95h-8.053l-15.992-227.119 75.357 115.985-51.312 111.134z m-85.595 0l-47.066-23.793 27.377-59.302 53.988 83.095h-34.299z m-122.205 0l-43.137-66.409 98.113 49.614-7.752 16.795h-47.224z m-99.717-30.791c6.148-17.282 18.682-32.144 35.1-40.47l6.07 9.325c-18.32 8.516-31.138 26.16-34.55 45.975l-6.62-14.83z m161.142 0.048l-111.717-56.503 8.932-6.354 93.742-66.686 40.242 61.952-31.199 67.591z m-409.689 12.328l59.396-88.787 21.89 49.096-81.286 39.691z m68.156-111.676l-6.715-0.605c-0.173-0.016-0.346 0.031-0.519 0.031-0.157-0.016-0.283-0.047-0.44-0.047-0.928 0-2.17 0.235-2.988 0.723-1.18 0.559-2.406 1.573-3.146 2.674l-1.336 1.981-17.283 25.846c-37.113-6.865-48.703-55.984-22.331-81.138 14.939-14.264 38.229-16.229 55.072-4.042 17.424 12.628 23.95 36.06 16.496 56.11l-16.81-1.533z m33.386-56.912c11.511 17.896 14.798 40.298 9.436 60.827l-8.964-0.817-1.399-0.134c7.831-26.089-1.793-55.449-24.422-70.876-22.047-15.026-51.816-12.927-71.741 4.733-35.179 31.2-23.714 93.458 22.205 107.36l-6.432 9.624c-13.618-5.024-25.57-14.35-34.078-27.057-2.343-7.501-5.63-14.798-10.018-21.678-8.602-30.807 3.161-65.443 30.1-83.236 31.875-21.032 74.9-10.536 95.313 21.254z m-90.094 123.818l-6.274 9.372h-17.456c1.761-7.265 2.72-14.711 2.689-22.229 6.416 5.3 13.462 9.68 21.041 12.857z m-16.543 24.736l-19.893 29.737a103.146 103.146 0 0 0-9.294-4.23c7.14-7.517 12.722-16.197 16.811-25.507h12.376z m100.204-26.388l-22.016-49.371 103.728 9.482-81.712 39.889z m116.796-48.168c-0.017-0.047-0.063-0.079-0.095-0.142-0.016-0.031 0-0.063-0.016-0.11-1.164-2.288-3.633-4.049-6.211-4.285h-0.063l-79.164-7.218c4.309-18.58 2.972-38.474-4.671-56.668 21.623-20.711 55.528-22.189 78.771-3.208 23.951 19.555 30.367 54.819 16.072 82.018l-4.623-10.387z m27.536-25.153c-1.494-28.299-18.32-55.158-43.907-67.778-26.624-13.068-58.705-8.688-81.145 10.513-3.523-5.473-7.611-10.355-12.078-14.798 26.954-23.612 65.482-29.77 98.255-14.9 33.433 15.199 55.15 49.458 57.084 85.823v0.063c1.479 27.921-8.209 53.79-24.94 72.889l-8.635-19.343c10.554-14.546 16.419-32.883 15.366-52.469-0.11-2.154 1.053 19.586 0 0z m2.547 84.345c0.834-0.896 1.73-1.745 2.532-2.688-0.613 0.896-1.243 1.761-1.809 2.688h-0.723z m14.736-218.124c18.415-6.377 38.812 1.029 49.835 16.826 22.11 31.68-2.265 81.318-43.167 74.297-8.241-19.036-21.229-35.258-37.396-47.075 0.219-14.948 12.203-37.64 30.728-44.048z m100.22 44.37l35.319 54.38-90.014 64.035 22.787-49.332 13.084-28.354 4.891-10.583 12.988-28.103 0.945-2.043z m-55.497 83.488l-25.271 54.718a8.28 8.28 0 0 0-0.597 1.919c-0.188 0.888-0.11 2.123 0.063 2.964-8.854 4.655-16.827 10.882-23.589 18.344 14.091-20.199 21.953-45.274 20.963-72.023 9.797-0.276 19.389-2.258 28.431-5.922z m103.35-38.025L676.44 307.2l125.947-9.695-90.455 64.341z m-92.168 13.831c-11.779 9.263-26.121 14.609-41.154 14.798-0.645-3.86-1.479-7.65-2.484-11.369 49.693 1.611 77.088-57.219 51.518-97.044-12.848-20.035-36.799-31.138-60.371-26.805-25.634 4.71-44.835 26.388-48.688 51.801a111.413 111.413 0 0 0-9.671-4.38c6.479-34.935 37.978-62.424 74.273-59.443 36.704 3.011 63.814 35.736 64.617 71.733l-28.04 60.709z m100.551-0.936l90.014-64.012-54.693 118.399-35.321-54.387z m106.982-94.575L662.35 292.864c-0.646 0.04-1.604 0.291-2.171 0.52-9.733-37.428-43.324-65.742-82.481-65.742-40.966 0-75.358 31.082-83.441 70.491-34.502-8.099-70.719 1.824-96.776 25.688-27.851-19.1-64.9-19.469-93.002-0.677-24.925 16.67-39.425 45.637-39.346 75.452-21.104-17.447-49.662-23.793-76.05-16.079V185.615c0-25.091 20.412-45.495 45.495-45.495h547.227c25.082 0 45.494 20.404 45.494 45.495v94.551zM212.057 394.54c32.489 0 60.277 24.218 67.936 55.269 8.806 35.674-9.813 75.365-44.96 88.182-32.552 11.873-68.816-4.214-84.526-34.439-12.879-24.775-10.977-55.857 5-78.802 12.753-18.313 34.062-30.21 56.55-30.21z m47.271 148.026c1.431 0.425 2.815 0.896 4.215 1.384h-6.338c0.708-0.487 1.431-0.912 2.123-1.384 1.432 0.425-0.692 0.472 0 0z m53.657-2.798l70.2-34.267 11.511-5.614 2.5 5.614 17.141 38.449h-55.764l-45.588-4.182z m118.179 4.182l-22.661-50.794 94.732-46.249-8.083 97.043h-63.988z m86.02-79.407l35.399 79.407h-42.02l6.621-79.407z m59.726 69.579c1.715-16.937 12.455-32.584 28.434-39.016l1.761 2.721 5.001 7.674 24.973 38.449h-60.184a48.915 48.915 0 0 1 0.015-9.828c1.133-11.291-0.345 3.334 0 0z m147.178-0.031l19.469 9.859h-24.014l4.545-9.859z m41.453-89.739l58.297-126.263 3.459 49.167 12.439 176.694h-9.514l-64.681-99.598zM888.141 364l-45.463-69.972V185.615c0-33.56-27.316-60.875-60.875-60.875H234.576c-33.559 0-60.859 27.315-60.859 60.875v203.122c-19.264 10.158-33.905 27.362-41.359 47.767V89.357h755.783V364zM132.358 500.233c6.621 17.942 18.729 33.322 34.817 43.717h-34.817v-43.717z m755.783 43.717h-8.006l8.006-17.346v17.346z" p-id="17311"></path><path d="M836.182 598.314c-1.399-1.446 0.912 0.928 0 0-1.398-1.446-3.35-2.374-5.504-2.374H600.217c-0.645-6.165-0.174-19.139-9.404-19.139H429.561c-9.215 0-8.618 12.896-9.294 19.139H189.821c-3.963 0-7.69 3.695-7.69 7.689v286.713c0 4.246 3.444 7.674 7.69 7.674h640.857a7.674 7.674 0 0 0 7.674-7.674V603.63c0-1.777-0.959-4.058-2.17-5.316z m-13.193 284.355l-625.478-0.032V611.304h221.734c-0.661 32.034 5.614 64.822 21.686 92.814 15.993 27.834 44.488 52.083 78.629 46.91 28.794-4.372 50.307-27.819 63.061-52.54 13.744-26.671 19.453-57.337 18.635-87.185H822.991V882.669zM435.788 595.94c0.142-1.243 0.204-2.517 0.377-3.759h148.153c3.836 28.181 1.194 57.823-8.697 84.542-9.373 25.35-27.756 53.185-56.188 58.688-33.229 6.369-58.579-22.331-70.956-49.678-12.564-27.723-16.102-59.725-12.689-89.793 0.11-1.053-0.079 0.692 0 0z" p-id="17312"></path><path d="M477.131 708.584c1.368 1.116 3.067 1.761 4.859 1.761h56.518c5.174 0 8.949-5.299 7.25-10.206l-13.775-39.959c12.25-17.141-0.676-41.972-21.733-41.972-21.088 0-34.046 24.752-21.733 41.972l-13.792 39.959c-1.038 3.004-0.016 6.432 2.406 8.445z m25.727-72.213c5.41-4.718 13.949-3.082 17.33 3.239a11.153 11.153 0 0 1 0.016 10.442c-2.028 3.806-5.928 5.96-4.198 10.977l11.716 33.937h-34.943l11.7-33.937c1.651-4.702-1.934-7.203-4.01-10.741-2.659-4.576-1.558-10.426 2.389-13.917 1.997-1.714-2.343 2.076 0 0z" p-id="17313"></path></svg>