<?xml version="1.0" standalone="no"?><!DOCTYPE svg PUBLIC "-//W3C//DTD SVG 1.1//EN" "http://www.w3.org/Graphics/SVG/1.1/DTD/svg11.dtd"><svg t="1560249205631" class="icon" style="" viewBox="0 0 1024 1024" version="1.1" xmlns="http://www.w3.org/2000/svg" p-id="6139" xmlns:xlink="http://www.w3.org/1999/xlink" width="400" height="400"><defs><style type="text/css"></style></defs><path d="M812.777321 438.020078 803.170522 438.020078 778.881326 438.020078 769.244852 438.020078 762.125711 482.760049 778.881326 482.760049 803.170522 482.760049 819.927161 482.760049Z" p-id="6140"></path><path d="M720.615295 447.003684 712.282512 451.67917 691.239244 463.421608 682.896228 468.073558 699.844226 510.24503 714.365964 502.145561 735.358067 490.373447 749.899248 482.285235Z" p-id="6141"></path><path d="M645.400243 499.347842 640.607076 507.403309 628.452245 527.778358 623.659079 535.837918 660.123572 564.184523 668.497287 550.114063 680.621419 529.793248 689.004343 515.761674Z" p-id="6142"></path><path d="M607.358835 581.071122 607.358835 590.349439 607.358835 613.883435 607.378278 623.145379 653.601019 630.055766 653.581576 613.883435 653.601019 590.349439 653.601019 574.180178Z" p-id="6143"></path><path d="M616.651478 670.257374 621.465111 678.316933 633.599476 698.647981 638.442784 706.667631 682.026418 690.289616 673.634284 676.302043 661.498896 655.957693 653.15588 641.905652Z" p-id="6144"></path><path d="M670.812005 743.001141 679.115112 747.646951 700.158381 759.369947 708.49014 764.020874 737.804792 728.763882 723.305567 720.655204 702.240809 708.927091 687.74056 700.824553Z" p-id="6145"></path><path d="M755.289002 779.822768 764.886591 779.787976 789.215696 779.822768 798.792818 779.787976 805.910936 735.053122 789.215696 735.092008 764.886591 735.053122 748.140185 735.092008Z" p-id="6146"></path><path d="M847.452052 770.774695 855.774601 766.118652 876.797403 754.391563 885.140419 749.744729 868.212888 707.573257 853.721849 715.632817 832.647881 727.404931 818.156842 735.503377Z" p-id="6147"></path><path d="M922.656871 718.483748 927.470503 710.414979 939.635567 690.039929 944.398034 681.980369 907.913075 653.638881 899.559826 667.660222 887.435695 687.99127 879.012861 702.06173Z" p-id="6148"></path><path d="M960.698279 636.721583 960.678836 627.429962 960.698279 603.89085 960.678836 594.632999 914.444838 587.722612 914.444838 603.89085 914.444838 627.429962 914.444838 643.638109Z" p-id="6149"></path><path d="M951.405635 547.560914 946.602236 539.500331 934.457638 519.131421 929.614329 511.086188 886.030695 527.489786 894.38292 541.500894 906.568451 561.846268 914.911466 575.872726Z" p-id="6150"></path><path d="M897.255341 474.827379 888.962467 470.146776 867.908966 458.423781 859.576183 453.782064 830.29223 489.053382 844.782246 497.123174 865.815281 508.890172 880.347253 516.988618Z" p-id="6151"></path><path d="M784.03879 751.642962c-80.574107 0-146.131195-64.068178-146.131195-142.754285 0-78.729086 65.557088-142.743028 146.131195-142.743028 80.553641 0 146.120962 64.013943 146.120962 142.743028C930.159752 687.574784 864.59243 751.642962 784.03879 751.642962L784.03879 751.642962zM784.03879 508.802168c-56.234769 0-102.012372 44.89142-102.012372 100.086509 0 55.19202 45.777603 100.0773 102.012372 100.0773 56.243979 0 102.012372-44.886303 102.012372-100.0773C886.051161 553.693588 840.282768 508.802168 784.03879 508.802168L784.03879 508.802168z" p-id="6152"></path><path d="M846.066495 608.888677c0 33.143864-27.808346 60.004629-62.027705 60.004629-34.3002 0-62.048171-26.859741-62.048171-60.004629 0-33.119305 27.747971-60.003606 62.048171-60.003606C818.258149 548.886095 846.066495 575.769372 846.066495 608.888677z" p-id="6153"></path><path d="M643.816165 770.122849l14.004969 0c-42.982954-32.646538-72.443939-81.105203-78.850859-136.412856L136.64924 633.709993 136.64924 265.762853l667.027819 0 0 143.549394c27.66099 2.136663 53.749158 9.477862 77.332273 21.007453L881.009332 230.703359c0-20.784372-17.700127-37.634132-39.533388-37.634132L103.549378 193.069227c-21.833261 0-39.530318 16.84976-39.530318 37.634132l0 501.784334c0 20.785396 17.697057 37.635155 39.530318 37.635155l197.661825 0 52.706409 0 0 62.72253-52.706409 50.177819 0 12.544711 342.604962 0L643.816165 883.024222l-52.709479-50.177819L591.106686 770.122849 643.816165 770.122849z" p-id="6154"></path></svg>