<?xml version="1.0" standalone="no"?><!DOCTYPE svg PUBLIC "-//W3C//DTD SVG 1.1//EN" "http://www.w3.org/Graphics/SVG/1.1/DTD/svg11.dtd"><svg t="1558575940933" class="icon" style="" viewBox="0 0 1134 1024" version="1.1" xmlns="http://www.w3.org/2000/svg" p-id="18955" xmlns:xlink="http://www.w3.org/1999/xlink" width="332.2265625" height="300"><defs><style type="text/css"></style></defs><path d="M1134.25333 540.370458c0-91.770158-147.865374-161.425081-343.996847-161.425081a761.280681 761.280681 0 0 0-102.262789 7.264129v-224.380863c0-91.770158-147.865374-161.425081-343.996847-161.42508S0 69.25136 0 161.828643v482.660992c0 91.770158 147.865374 161.425081 343.996847 161.425081a761.280681 761.280681 0 0 0 102.343501-6.457003v63.117206c0 91.770158 147.865374 161.425081 343.996848 161.425081s343.996847-69.25136 343.996847-161.425081V540.370458zM717.050209 433.426342a695.822811 695.822811 0 0 1 72.641286-3.793489c168.689209 0 294.277922 58.435879 294.277923 110.737605s-125.588713 110.737605-293.632222 110.737605c-24.213762 0-46.813273-1.210688-68.686372-3.389926-132.449279-13.156144-224.94585-62.471506-224.94585-107.347679a38.903444 38.903444 0 0 1 4.358477-17.272484c19.37101-39.38772 102.666351-77.726176 215.986758-89.671632z m7.667691 374.506187c-134.144242-12.671869-228.093639-62.471506-228.093639-107.589816v-73.932687c48.427524 37.208481 129.140065 63.520769 225.995113 71.914874 21.792386 1.856388 44.391897 2.905651 67.717822 2.905651 127.364389 0 234.066367-29.21794 293.632222-74.820525v73.932687c0 52.463151-125.588713 110.899031-293.632222 110.899031-22.680224-0.242138-44.634035-1.372113-65.619296-3.712777zM343.996847 50.768188C512.040356 50.768188 637.629069 109.204067 637.629069 161.828643S512.040356 272.162686 343.996847 272.162686 50.364625 213.726807 50.364625 161.828643 176.276188 50.768188 343.996847 50.768188zM446.340348 700.907701v47.055411a679.680303 679.680303 0 0 1-102.343501 7.264128c-167.720659 0-293.632222-58.274454-293.632222-110.495467v-75.466226c59.40443 45.602585 166.267833 75.224088 293.632222 75.224088a761.280681 761.280681 0 0 0 102.343501-6.457003z m0-160.214393v45.844723a679.59959 679.59959 0 0 1-102.343501 7.586979c-167.639946 0-293.551509-58.839442-293.551509-111.060456v-75.143375c59.40443 45.521873 166.267833 75.143375 293.632222 75.143375a733.112004 733.112004 0 0 0 133.659967-11.784031 99.518562 99.518562 0 0 0-31.477891 69.412785zM343.996847 432.377079c-168.043509 0-293.632222-58.516592-293.632222-110.737606v-73.932687c59.40443 45.521873 166.267833 74.739812 293.632222 74.739813s234.066367-29.21794 293.632222-74.820525v74.013399c0 52.221014-125.588713 110.737605-293.632222 110.737606z m740.133996 429.713565c0 52.140301-125.750138 110.57618-293.793647 110.57618s-293.632222-58.435879-293.632222-110.737605v-72.157011l3.228501-0.726413c59.969418 44.230472 165.379995 72.641286 290.565146 72.641286 127.364389 0 234.066367-29.21794 293.632222-74.820525z" p-id="18956"></path></svg>