<?xml version="1.0" standalone="no"?><!DOCTYPE svg PUBLIC "-//W3C//DTD SVG 1.1//EN" "http://www.w3.org/Graphics/SVG/1.1/DTD/svg11.dtd"><svg t="1563790423689" class="icon" viewBox="0 0 1024 1024" version="1.1" xmlns="http://www.w3.org/2000/svg" p-id="1773" xmlns:xlink="http://www.w3.org/1999/xlink" width="400" height="400"><defs><style type="text/css"></style></defs><path d="M896 211.2V320c-57.6 38.4-108.8 89.6-108.8 192 0 108.8 64 166.4 108.8 192v108.8H128v-102.4c96-57.6 108.8-153.6 108.8-198.4 0-76.8-38.4-147.2-108.8-192V211.2h768m32-128h-832C44.8 83.2 0 128 0 179.2v166.4c0 25.6 0 51.2 38.4 70.4 19.2 6.4 70.4 38.4 70.4 96 0 64-38.4 83.2-70.4 96-32 25.6-38.4 57.6-38.4 70.4v166.4c0 51.2 44.8 96 96 96h832c51.2 0 96-44.8 96-96v-166.4c0-38.4-12.8-51.2-38.4-70.4-57.6-32-76.8-51.2-76.8-96s19.2-64 76.8-96c38.4-25.6 38.4-44.8 38.4-70.4V179.2c0-51.2-44.8-96-96-96z" fill="#445363" p-id="1774"></path><path d="M608 467.2h-192c-38.4 0-64-25.6-64-64s25.6-64 64-64h192c38.4 0 64 25.6 64 64 0 32-25.6 64-64 64zM608 684.8h-192c-38.4 0-64-25.6-64-64s25.6-64 64-64h192c38.4 0 64 25.6 64 64s-25.6 64-64 64z" fill="#445363" p-id="1775"></path></svg>