<?xml version="1.0" standalone="no"?><!DOCTYPE svg PUBLIC "-//W3C//DTD SVG 1.1//EN" "http://www.w3.org/Graphics/SVG/1.1/DTD/svg11.dtd"><svg t="1558518983140" class="icon" style="" viewBox="0 0 1024 1024" version="1.1" xmlns="http://www.w3.org/2000/svg" p-id="27581" xmlns:xlink="http://www.w3.org/1999/xlink" width="300" height="300"><defs><style type="text/css"></style></defs><path d="M516.080945 770.543428c4.373611 0 8.823969-0.26913 13.299911-0.797156 42.959418-5.15951 79.437214-35.18536 92.89983-76.561723 1.016143-3.093455-0.452301-6.408967-3.413749-7.770987-2.931772-1.36509-6.477528-0.183172-8.132214 2.591011-0.158612 0.264013-17.226337 27.832905-83.670631 36.806277-9.945513 1.335415-19.623943 2.035356-28.79686 2.035356-46.552246-0.029676-67.298755-17.575284-67.48602-17.736966-2.342348-2.082428-5.916756-2.137687-8.320503-0.107447-2.423189 2.02717-2.981914 5.555529-1.330298 8.252964C441.396989 750.109026 477.759151 770.543428 516.080945 770.543428L516.080945 770.543428 516.080945 770.543428zM516.080945 770.543428M873.350908 358.755804c-0.588401 0-1.122567 0.106424-1.677199 0.106424C832.742025 190.311417 683.97991 64.581877 505.626849 64.581877c-183.260837 0-335.435679 132.675742-369.160781 308.199361-32.794917 5.901407-57.757448 34.723849-57.757448 69.585845l0 139.514497c0 39.102576 31.357172 70.809719 70.074985 70.809719 21.839401 0 41.116443-10.31288 53.93847-26.151613 30.985712 81.954547 94.065376 148.032498 173.894516 182.89347 0.191358-0.414439 1.701758-3.354398 3.51915-5.696746 1.25969-1.62194 2.667759-2.952238 3.874237-2.952238 1.255597 0 2.4017 0.452301 3.384074 1.147126-18.475793-13.755282-85.210707-84.463694-99.666954-183.135994-6.345522-43.433208 26.185382-86.068238 64.071248-93.116771 60.821227-11.329023 121.325229-24.227798 182.146457-35.337833 38.661531-7.054673 65.083298-28.260647 81.242326-63.573921 3.78521-8.256034 9.250688-24.949228 11.758812-49.018414 0.666172-3.579525 3.601015-6.328126 7.361665-6.328126 2.509147 0 4.64274 1.280156 6.054903 3.128247l1.677199-1.045819c23.970948 34.80469 71.513754 111.865787 78.341253 193.124486 7.837502 92.903923 3.463891 156.532079-67.64361 221.62868-0.084934 0.080841-0.192382 0.183172-0.294712 0.26913-0.989537 1.063215-1.573845 2.453888-1.573845 3.977591 0 2.001587 1.066285 3.711532 2.611477 4.752234 0.584308 0.243547 1.172709 0.563842 1.762133 0.806365 0.476861 0.107447 0.934279 0.260943 1.412163 0.260943 0.481977 0 0.908696-0.154519 1.334391-0.260943 1.01205-0.533143 1.971911-1.151219 2.957355-1.685385 71.91489-39.617299 127.081327-105.776092 152.571884-185.354522 10.321066 15.331173 26.477025 26.365484 45.246507 30.214139C828.662103 778.155802 706.543811 863.847463 555.252083 876.857778c-9.067516-22.491247-31.383778-38.46608-57.595766-38.46608-34.233686 0-61.993936 27.117614-61.993936 60.530608 0 33.414017 27.756157 60.496839 61.993936 60.496839 27.598568 0 50.717102-17.732873 58.738799-42.092677C731.526809 903.08614 871.91214 798.990317 901.216559 637.253702c25.892717-10.821463 44.073798-36.222993 44.073798-65.87329L945.290357 430.214299C945.290357 390.757658 913.079748 358.755804 873.350908 358.755804L873.350908 358.755804 873.350908 358.755804zM808.744471 399.304312c-45.677319-123.727952-164.03803-212.117049-303.275211-212.117049-138.65799 0-256.591983 87.639013-302.691927 210.568786-2.296299-2.807952-4.983501-5.210675-7.624654-7.637957 26.100448-149.802818 155.021679-263.700891 310.473147-263.700891 154.705478 0 283.225573 112.778576 310.183552 261.536598C813.143665 391.533324 810.689776 395.271462 808.744471 399.304312L808.744471 399.304312 808.744471 399.304312zM808.744471 399.304312M376.629893 809.432133l-0.01228 0C376.591007 809.495578 376.591007 809.504788 376.629893 809.432133L376.629893 809.432133 376.629893 809.432133zM376.629893 809.432133" p-id="27582" fill="#cdcdcd"></path></svg>