<?xml version="1.0" standalone="no"?><!DOCTYPE svg PUBLIC "-//W3C//DTD SVG 1.1//EN" "http://www.w3.org/Graphics/SVG/1.1/DTD/svg11.dtd"><svg t="1558174941567" class="icon" style="" viewBox="0 0 1024 1024" version="1.1" xmlns="http://www.w3.org/2000/svg" p-id="4332" xmlns:xlink="http://www.w3.org/1999/xlink" width="200" height="200"><defs><style type="text/css"></style></defs><path d="M948.735317 609.719602c-3.562129 3.63376-6.732331 6.949272-9.549493 10.144034-2.837628 3.189645-5.335519 5.857405-7.451716 7.998161-2.842745 2.886747-5.310959 4.984524-7.4159 6.383384l-90.278119-89.465614c4.238534-3.586688 9.003048-7.831362 14.314007-12.772908 5.310959-5.02341 9.729595-8.915044 13.294794-11.753695 8.481162-7.828292 17.683754-11.149944 27.608801-10.145058 9.886161 1.091868 18.035772 3.409656 24.420179 6.950296 7.081279 3.585665 14.688537 9.79304 22.843264 18.632359 8.128121 8.919137 14.344706 18.277272 18.563798 28.29544 2.13564 5.640464 3.560082 12.768815 4.281513 21.293979C960.057177 593.762165 956.500165 601.979314 948.735317 609.719602L948.735317 609.719602 948.735317 609.719602 948.735317 609.719602zM785.153682 772.752746l-73.275887 73.487711c-9.925047 9.925047-18.23327 18.494213-24.965601 25.575492-6.730285 7.0383-10.446933 10.969842-11.169387 11.670807-3.520173 2.843768-7.407714 5.858428-11.6749 9.096169-4.219091 3.140527-8.503675 5.858428-12.744255 7.954159-4.241604 2.14178-10.778484 4.765537-19.62599 8.042163-8.858762 3.189645-17.884322 6.164397-27.087938 9.008164-9.202593 2.843768-18.059308 5.336542-26.560936 7.433296-8.481162 2.185782-14.872732 3.584642-19.10308 4.282536-8.53028 1.449002-14.192234 0.357134-17.011442-3.184529-2.838651-3.550873-3.541663-9.583263-2.119267-18.10331 0.719384-4.282536 2.119267-10.671037 4.241604-19.152199 2.140757-8.56405 4.614088-17.270339 7.456832-26.098401 2.816139-8.92016 5.462408-17.269315 7.973602-25.096585 2.452865-7.780197 4.41659-13.114692 5.79396-15.914458 4.28663-9.267061 9.945513-17.397229 17.011442-24.52251l13.836123-13.860682 26.5374-26.625404c10.627035-10.671037 22.297842-22.556739 35.042097-35.675524 12.743232-13.114692 25.484418-26.097378 38.2123-38.865169 30.472012-30.5549 64.817238-64.660672 103.054097-102.258988l89.185228 89.451288L785.153682 772.752746 785.153682 772.752746 785.153682 772.752746zM696.507736 219.197304c0-14.559601-11.799744-26.361391-26.338878-26.361391l-52.702316 0 0-52.682873 105.409748 0c14.539134 0 26.340925 11.758812 26.340925 26.360368l0 358.368994-52.709479 57.993832L696.507736 219.197304 696.507736 219.197304 696.507736 219.197304 696.507736 219.197304zM564.753993 245.557672l-26.361391 0c-14.538111 0-26.340925-11.80179-26.340925-26.360368L512.051677 113.787556c0-14.557554 11.802814-26.360368 26.340925-26.360368l26.361391 0c14.539134 0 26.346041 11.802814 26.346041 26.360368l0 105.409748C591.100034 233.754858 579.293127 245.557672 564.753993 245.557672L564.753993 245.557672 564.753993 245.557672zM327.577199 140.15304l158.113087 0 0 52.682873L327.577199 192.835913 327.577199 140.15304 327.577199 140.15304zM274.869766 245.557672l-26.340925 0c-14.557554 0-26.365484-11.80179-26.365484-26.360368L222.163357 113.787556c0-14.557554 11.80793-26.360368 26.365484-26.360368l26.340925 0c14.539134 0 26.367531 11.802814 26.367531 26.360368l0 105.409748C301.236274 233.754858 289.408901 245.557672 274.869766 245.557672L274.869766 245.557672 274.869766 245.557672zM116.753609 219.197304l0 579.784826c0 14.558577 11.80793 26.361391 26.365484 26.361391l332.979744 0-47.920406 52.68185L90.389148 878.025371c-14.535041 0-26.341948-11.757788-26.341948-26.317389L64.0472 166.513408c0-14.602579 11.80793-26.360368 26.341948-26.360368l105.433284 0 0 52.682873-52.702316 0C128.556423 192.835913 116.753609 204.637704 116.753609 219.197304L116.753609 219.197304 116.753609 219.197304 116.753609 219.197304zM617.465518 654.048203c0 7.262404-5.9055 13.162788-13.183254 13.162788L208.98522 667.210991c-7.281847 0-13.163811-5.901407-13.163811-13.162788l0-26.356274c0-7.306406 5.881964-13.162788 13.163811-13.162788l395.297045 0c7.27673 0 13.183254 5.857405 13.183254 13.162788L617.465518 654.048203 617.465518 654.048203zM604.283288 456.376145 208.98522 456.376145c-7.281847 0-13.163811-5.9055-13.163811-13.163811l0-26.360368c0-7.300266 5.881964-13.158694 13.163811-13.158694l395.297045 0c7.27673 0 13.183254 5.858428 13.183254 13.158694l0 26.360368C617.465518 450.470645 611.560018 456.376145 604.283288 456.376145L604.283288 456.376145 604.283288 456.376145 604.283288 456.376145zM604.283288 456.376145" p-id="4333"></path></svg>