<?xml version="1.0" standalone="no"?><!DOCTYPE svg PUBLIC "-//W3C//DTD SVG 1.1//EN" "http://www.w3.org/Graphics/SVG/1.1/DTD/svg11.dtd"><svg t="1558521539709" class="icon" style="" viewBox="0 0 1024 1024" version="1.1" xmlns="http://www.w3.org/2000/svg" p-id="31126" xmlns:xlink="http://www.w3.org/1999/xlink" width="300" height="300"><defs><style type="text/css"></style></defs><path d="M513.1 1021.1c-68.7 0-135.3-13.5-198-40-60.6-25.6-115-62.3-161.7-109C106.7 825.4 70 771 44.4 710.4c-26.5-62.7-40-129.3-40-198s13.5-135.3 40-198c25.6-60.6 62.3-115 109-161.7s101.1-83.4 161.7-109c62.7-26.5 129.3-40 198-40s135.3 13.5 198 40c60.6 25.6 115 62.3 161.7 109s83.4 101.1 109 161.7c26.5 62.7 40 129.3 40 198s-13.5 135.3-40 198c-25.6 60.6-62.3 115-109 161.7-46.7 46.7-101.1 83.4-161.7 109-62.8 26.5-129.4 40-198 40z m0-969.2c-254 0-460.6 206.6-460.6 460.6s206.6 460.6 460.6 460.6 460.6-206.6 460.6-460.6S767 51.9 513.1 51.9z" p-id="31127" fill="#cdcdcd"></path><path d="M513.5 912l-0.1-48c14.7 0 29.6-1 44.1-2.8l6 47.6c-16.4 2.1-33.3 3.2-50 3.2z m-50-3.1c-16.6-2.1-33.2-5.2-49.3-9.3l11.8-46.5c14.2 3.6 28.8 6.4 43.4 8.2l-5.9 47.6z m149.3-9.5l-12-46.5c14.2-3.7 28.3-8.2 41.9-13.7l17.7 44.6c-15.4 6.2-31.4 11.5-47.6 15.6z m-246.4-15.2c-15.5-6.1-30.8-13.3-45.4-21.3l23.1-42.1c12.9 7.1 26.3 13.4 39.9 18.8l-17.6 44.6z m339.5-21.7l-23.2-42c12.8-7.1 25.3-15.1 37.2-23.7l28.3 38.8c-13.5 9.7-27.7 18.8-42.3 26.9zM278.6 836c-13.5-9.8-26.5-20.5-38.7-31.9l32.8-35c10.7 10 22.2 19.5 34 28.1L278.6 836z m508.2-32.5l-32.9-35c10.7-10.1 20.9-20.9 30.2-32.2l37 30.6c-10.7 12.9-22.2 25.2-34.3 36.6z m-581.2-36C194.9 754.7 185 741.1 176 727l40.5-25.8c7.9 12.4 16.6 24.3 26 35.6l-36.9 30.7z m644.9-41.1L810 700.6c7.9-12.4 15-25.4 21.3-38.7l43.4 20.4c-7.1 15.2-15.2 30-24.2 44.1z m-698.7-43.2c-7.1-15.1-13.4-30.8-18.6-46.6l45.6-14.9c4.5 13.9 10 27.7 16.3 41l-43.3 20.5z m741.4-47.5l-45.7-14.8c4.5-13.9 8.2-28.3 10.9-42.7l47.2 8.9c-3.1 16.4-7.3 32.7-12.4 48.6zM120.7 588c-3.1-16.3-5.2-33.1-6.3-49.8l47.9-3c0.9 14.7 2.8 29.4 5.5 43.8l-47.1 9z m791.1-50.7l-47.9-2.9c0.4-7.2 0.7-14.6 0.7-21.9 0-7.4-0.2-14.9-0.7-22.3l47.9-3c0.5 8.4 0.8 16.9 0.8 25.3 0 8.2-0.3 16.6-0.8 24.8zM162.2 491l-47.9-2.9c1-16.7 3.1-33.4 6.1-49.8l47.2 8.9c-2.7 14.4-4.5 29.1-5.4 43.8z m696.2-44.6c-2.7-14.4-6.4-28.8-11-42.7l45.6-14.8c5.2 15.9 9.3 32.2 12.5 48.6l-47.1 8.9z m-679.9-42l-45.7-14.7c5.1-15.9 11.3-31.6 18.4-46.7l43.5 20.4c-6.3 13.3-11.7 27.1-16.2 41z m652.7-41.7c-6.2-13.2-13.4-26.2-21.3-38.6l40.5-25.8c9 14.1 17.1 28.8 24.2 43.9l-43.4 20.5z m-615.3-38L175.3 299c8.9-14.1 18.8-27.7 29.4-40.6l37 30.5c-9.2 11.3-18 23.4-25.8 35.8z m568-36.3c-9.4-11.3-19.5-22.1-30.2-32.2l32.9-35c12.1 11.4 23.7 23.7 34.3 36.5l-37 30.7zM272 256.7l-32.9-34.9c12.1-11.4 25.1-22.2 38.6-32l28.3 38.8c-11.9 8.5-23.3 18-34 28.1z m447.6-28.6c-11.9-8.6-24.4-16.6-37.3-23.7l23.2-42c14.6 8 28.8 17.1 42.3 26.9l-28.2 38.8z m-376.5-23.4l-23.2-42c14.6-8.1 29.8-15.3 45.3-21.5l17.8 44.6c-13.7 5.5-27.1 11.8-39.9 18.9z m299.4-19.1c-13.6-5.4-27.8-10-42-13.6l11.9-46.5c16.2 4.1 32.2 9.4 47.8 15.5l-17.7 44.6z m-217.6-13.5l-12-46.5c16.1-4.2 32.7-7.3 49.3-9.5l6.1 47.6c-14.7 2-29.2 4.8-43.4 8.4z m132.2-8.4c-14.5-1.8-29.3-2.7-44.1-2.7h-0.8l-0.1-48h0.9c16.7 0 33.5 1 50 3.1l-5.9 47.6z" p-id="31128" fill="#cdcdcd"></path><path d="M513.1 1021.1c-68.7 0-135.3-13.5-198-40-60.6-25.6-115-62.3-161.7-109C106.7 825.4 70 771 44.4 710.4c-26.5-62.7-40-129.3-40-198s13.5-135.3 40-198c25.6-60.6 62.3-115 109-161.7s101.1-83.4 161.7-109c62.7-26.5 129.3-40 198-40s135.3 13.5 198 40c60.6 25.6 115 62.3 161.7 109s83.4 101.1 109 161.7c26.5 62.7 40 129.3 40 198s-13.5 135.3-40 198c-25.6 60.6-62.3 115-109 161.7-46.7 46.7-101.1 83.4-161.7 109-62.8 26.5-129.4 40-198 40z m0-969.2c-254 0-460.6 206.6-460.6 460.6s206.6 460.6 460.6 460.6 460.6-206.6 460.6-460.6S767 51.9 513.1 51.9z" p-id="31129" fill="#cdcdcd"></path><path d="M513.5 912l-0.1-48c14.7 0 29.6-1 44.1-2.8l6 47.6c-16.4 2.1-33.3 3.2-50 3.2z m-50-3.1c-16.6-2.1-33.2-5.2-49.3-9.3l11.8-46.5c14.2 3.6 28.8 6.4 43.4 8.2l-5.9 47.6z m149.3-9.5l-12-46.5c14.2-3.7 28.3-8.2 41.9-13.7l17.7 44.6c-15.4 6.2-31.4 11.5-47.6 15.6z m-246.4-15.2c-15.5-6.1-30.8-13.3-45.4-21.3l23.1-42.1c12.9 7.1 26.3 13.4 39.9 18.8l-17.6 44.6z m339.5-21.7l-23.2-42c12.8-7.1 25.3-15.1 37.2-23.7l28.3 38.8c-13.5 9.7-27.7 18.8-42.3 26.9zM278.6 836c-13.5-9.8-26.5-20.5-38.7-31.9l32.8-35c10.7 10 22.2 19.5 34 28.1L278.6 836z m508.2-32.5l-32.9-35c10.7-10.1 20.9-20.9 30.2-32.2l37 30.6c-10.7 12.9-22.2 25.2-34.3 36.6z m-581.2-36C194.9 754.7 185 741.1 176 727l40.5-25.8c7.9 12.4 16.6 24.3 26 35.6l-36.9 30.7z m644.9-41.1L810 700.6c7.9-12.4 15-25.4 21.3-38.7l43.4 20.4c-7.1 15.2-15.2 30-24.2 44.1z m-698.7-43.2c-7.1-15.1-13.4-30.8-18.6-46.6l45.6-14.9c4.5 13.9 10 27.7 16.3 41l-43.3 20.5z m741.4-47.5l-45.7-14.8c4.5-13.9 8.2-28.3 10.9-42.7l47.2 8.9c-3.1 16.4-7.3 32.7-12.4 48.6zM120.7 588c-3.1-16.3-5.2-33.1-6.3-49.8l47.9-3c0.9 14.7 2.8 29.4 5.5 43.8l-47.1 9z m791.1-50.7l-47.9-2.9c0.4-7.2 0.7-14.6 0.7-21.9 0-7.4-0.2-14.9-0.7-22.3l47.9-3c0.5 8.4 0.8 16.9 0.8 25.3 0 8.2-0.3 16.6-0.8 24.8zM162.2 491l-47.9-2.9c1-16.7 3.1-33.4 6.1-49.8l47.2 8.9c-2.7 14.4-4.5 29.1-5.4 43.8z m696.2-44.6c-2.7-14.4-6.4-28.8-11-42.7l45.6-14.8c5.2 15.9 9.3 32.2 12.5 48.6l-47.1 8.9z m-679.9-42l-45.7-14.7c5.1-15.9 11.3-31.6 18.4-46.7l43.5 20.4c-6.3 13.3-11.7 27.1-16.2 41z m652.7-41.7c-6.2-13.2-13.4-26.2-21.3-38.6l40.5-25.8c9 14.1 17.1 28.8 24.2 43.9l-43.4 20.5z m-615.3-38L175.3 299c8.9-14.1 18.8-27.7 29.4-40.6l37 30.5c-9.2 11.3-18 23.4-25.8 35.8z m568-36.3c-9.4-11.3-19.5-22.1-30.2-32.2l32.9-35c12.1 11.4 23.7 23.7 34.3 36.5l-37 30.7zM272 256.7l-32.9-34.9c12.1-11.4 25.1-22.2 38.6-32l28.3 38.8c-11.9 8.5-23.3 18-34 28.1z m447.6-28.6c-11.9-8.6-24.4-16.6-37.3-23.7l23.2-42c14.6 8 28.8 17.1 42.3 26.9l-28.2 38.8z m-376.5-23.4l-23.2-42c14.6-8.1 29.8-15.3 45.3-21.5l17.8 44.6c-13.7 5.5-27.1 11.8-39.9 18.9z m299.4-19.1c-13.6-5.4-27.8-10-42-13.6l11.9-46.5c16.2 4.1 32.2 9.4 47.8 15.5l-17.7 44.6z m-217.6-13.5l-12-46.5c16.1-4.2 32.7-7.3 49.3-9.5l6.1 47.6c-14.7 2-29.2 4.8-43.4 8.4z m132.2-8.4c-14.5-1.8-29.3-2.7-44.1-2.7h-0.8l-0.1-48h0.9c16.7 0 33.5 1 50 3.1l-5.9 47.6z" p-id="31130" fill="#cdcdcd"></path><path d="M765.9 671.8c-3.1-5.4-8.9-8.7-15.2-8.7h-47.8v-42h43.6c9.7 0 17.5-7.8 17.5-17.5s-7.8-17.5-17.5-17.5h-22.2l23.2-37.9c4.9-8.3 2.1-19.1-6.2-24-8.3-4.9-19.1-2.1-24 6.2l-32.8 55.7h-1.3L650 530c-4.9-8.3-15.6-11.1-24-6.2-8.3 4.9-11.1 15.6-6.2 24l23.4 38.3h-29.8c-9.7 0-17.5 7.8-17.5 17.5s7.8 17.5 17.5 17.5h54.5v42h-50.1c-9.7 0-17.5 7.8-17.5 17.5s7.8 17.5 17.5 17.5H668v21.1c0 9.7 7.8 17.5 17.5 17.5s17.5-7.8 17.5-17.5v-21.1h47.8c6.3 0 12-3.3 15.2-8.8 3-5.4 3-12-0.1-17.5zM458.7 467c61.8 7.3 113.1-42.7 104.8-101.1-5.3-40.5-39.5-72.5-81.3-77.5-61.8-7.3-113.7 42.1-105.4 101.1 5.9 40.5 39.5 72.5 81.9 77.5z m127.6 67.5c-41.1-14.4-87.5-21.9-119.3-21.9-69.5 0-209.1 34.3-209.1 102.3V726c0 6.2 5.3 11.2 11.8 11.2h335c-26.9-30.4-43.8-69.9-43.8-113.8-0.1-32.6 9.5-62.9 25.4-88.9z" p-id="31131" fill="#cdcdcd"></path></svg>