<?xml version="1.0" standalone="no"?><!DOCTYPE svg PUBLIC "-//W3C//DTD SVG 1.1//EN" "http://www.w3.org/Graphics/SVG/1.1/DTD/svg11.dtd"><svg t="1558518305064" class="icon" style="" viewBox="0 0 1024 1024" version="1.1" xmlns="http://www.w3.org/2000/svg" p-id="16091" xmlns:xlink="http://www.w3.org/1999/xlink" width="200" height="200"><defs><style type="text/css"></style></defs><path d="M908.8 349.867c-4.267-17.067-34.133-55.467-46.933-64l55.466-42.667c21.334 12.8 46.934 64 51.2 85.333L908.8 349.867zM665.6 981.333l-21.333-68.266c25.6-8.534 55.466-21.334 76.8-34.134l34.133 59.734c-25.6 17.066-55.467 29.866-89.6 42.666z m174.933-102.4l-46.933-51.2c21.333-21.333 42.667-42.666 59.733-64L908.8 806.4c-21.333 25.6-42.667 51.2-68.267 72.533zM960 716.8l-64-29.867c12.8-25.6 21.333-55.466 29.867-81.066l68.266 17.066C985.6 652.8 972.8 686.933 960 716.8z m42.667-196.267H934.4V512c0-25.6-4.267-51.2-8.533-76.8l68.266-12.8c4.267 29.867 8.534 59.733 8.534 89.6v8.533zM512 1002.667V934.4c17.067 0 34.133 0 46.933-4.267l8.534 68.267c-17.067 4.267-38.4 4.267-55.467 4.267z m345.6-972.8l-8.533 183.466L665.6 204.8zM529.067 192c-174.934 0-315.734 140.8-315.734 315.733s140.8 315.734 315.734 315.734c174.933 0 315.733-140.8 315.733-315.734S704 192 529.067 192zM729.6 584.533H477.867V311.467h68.266v204.8H729.6v68.266zM512 1002.667c-273.067 0-490.667-217.6-490.667-490.667S238.933 21.333 512 21.333c93.867 0 187.733 25.6 268.8 81.067l-38.4 59.733C674.133 119.467 593.067 93.867 512 93.867c-234.667 0-422.4 187.733-422.4 422.4s187.733 422.4 422.4 422.4v64z" fill="#8a8a8a" p-id="16092"></path></svg>