<?xml version="1.0" standalone="no"?><!DOCTYPE svg PUBLIC "-//W3C//DTD SVG 1.1//EN" "http://www.w3.org/Graphics/SVG/1.1/DTD/svg11.dtd"><svg t="1558518017196" class="icon" style="" viewBox="0 0 1024 1024" version="1.1" xmlns="http://www.w3.org/2000/svg" p-id="15216" xmlns:xlink="http://www.w3.org/1999/xlink" width="200" height="200"><defs><style type="text/css"></style></defs><path d="M670.254545 384v-107.054545c0-13.963636-9.309091-23.272727-23.272727-23.272728H377.018182c-13.963636 0-23.272727 9.309091-23.272727 23.272728v107.054545c0 53.527273 27.927273 100.072727 72.145454 128-41.890909 27.927273-72.145455 74.472727-72.145454 128v107.054545c0 13.963636 9.309091 23.272727 23.272727 23.272728h272.290909c13.963636 0 23.272727-9.309091 23.272727-23.272728v-107.054545c0-53.527273-27.927273-100.072727-72.145454-128 41.890909-27.927273 69.818182-74.472727 69.818181-128z m-46.545454 339.781818h-225.745455v-83.781818c0-58.181818 46.545455-104.727273 104.727273-104.727273h16.290909c58.181818 0 104.727273 46.545455 104.727273 104.727273v83.781818z m0-339.781818c0 58.181818-46.545455 104.727273-104.727273 104.727273h-16.290909c-58.181818 0-104.727273-46.545455-104.727273-104.727273v-83.781818h225.745455v83.781818z" fill="" p-id="15217"></path><path d="M923.927273 209.454545c-6.981818-9.309091-23.272727-11.636364-32.581818-4.654545-9.309091 6.981818-11.636364 23.272727-4.654546 32.581818C947.2 316.509091 977.454545 411.927273 977.454545 512c0 256-209.454545 465.454545-465.454545 465.454545S46.545455 768 46.545455 512 256 46.545455 512 46.545455c100.072727 0 195.490909 30.254545 274.618182 90.763636 9.309091 6.981818 25.6 4.654545 32.581818-4.654546s4.654545-25.6-4.654545-32.581818C726.109091 34.909091 621.381818 0 512 0 230.4 0 0 230.4 0 512s230.4 512 512 512 512-230.4 512-512c0-109.381818-34.909091-214.109091-100.072727-302.545455z" fill="" p-id="15218"></path></svg>