<?xml version="1.0" standalone="no"?><!DOCTYPE svg PUBLIC "-//W3C//DTD SVG 1.1//EN" "http://www.w3.org/Graphics/SVG/1.1/DTD/svg11.dtd"><svg t="1558517827782" class="icon" style="" viewBox="0 0 1024 1024" version="1.1" xmlns="http://www.w3.org/2000/svg" p-id="14001" xmlns:xlink="http://www.w3.org/1999/xlink" width="200" height="200"><defs><style type="text/css"></style></defs><path d="M390.972952 97.52381 390.729143 146.285714 630.00381 146.285714 630.296381 97.52381Z" p-id="14002"></path><path d="M780.190476 146.334476 780.190476 48.713143C780.190476 21.796571 758.296381 0 731.428571 0c-26.916571 0-48.761905 21.796571-48.761905 48.713143l0 97.621333C682.666667 173.251048 704.560762 195.047619 731.428571 195.047619 758.345143 195.047619 780.190476 173.251048 780.190476 146.334476z" p-id="14003"></path><path d="M304.761905 195.047619C324.949333 195.047619 341.333333 178.761143 341.333333 158.378667L341.333333 36.668952C341.333333 16.432762 324.998095 0 304.761905 0L280.380952 0C260.193524 0 243.809524 16.286476 243.809524 36.668952l0 121.660952C243.809524 178.614857 260.144762 195.047619 280.380952 195.047619L304.761905 195.047619z" p-id="14004"></path><path d="M193.584762 146.285714l0.24381-48.761905L30.671238 97.52381C13.702095 97.52381 0 111.713524 0 129.170286l0 863.232C0 1009.859048 13.702095 1024 30.622476 1024l962.706286 0C1010.297905 1024 1024 1009.810286 1024 992.402286L1024 129.170286C1024 111.664762 1010.249143 97.52381 993.328762 97.52381l-164.035048 0-0.24381 48.761905L975.238095 146.285714l0 243.809524L48.761905 390.095238 48.761905 146.285714 193.584762 146.285714zM195.047619 975.238095 69.729524 975.238095C58.12419 975.238095 48.761905 967.094857 48.761905 957.001143L48.761905 828.952381l146.285714 0L195.047619 975.238095zM195.047619 780.190476 48.761905 780.190476l0-146.285714 146.285714 0L195.047619 780.190476zM828.952381 438.857143l146.285714 0 0 146.285714-146.285714 0L828.952381 438.857143zM828.952381 633.904762l146.285714 0 0 146.285714-146.285714 0L828.952381 633.904762zM828.952381 828.952381l146.285714 0 0 128.048762C975.238095 967.046095 965.827048 975.238095 954.270476 975.238095L828.952381 975.238095 828.952381 828.952381zM633.904762 438.857143l146.285714 0 0 146.285714-146.285714 0L633.904762 438.857143zM633.904762 633.904762l146.285714 0 0 146.285714-146.285714 0L633.904762 633.904762zM633.904762 828.952381l146.285714 0 0 146.285714-146.285714 0L633.904762 828.952381zM438.857143 438.857143l146.285714 0 0 146.285714L438.857143 585.142857 438.857143 438.857143zM438.857143 828.952381l146.285714 0 0 146.285714L438.857143 975.238095 438.857143 828.952381zM243.809524 438.857143l146.285714 0 0 146.285714L243.809524 585.142857 243.809524 438.857143zM243.809524 633.904762l146.285714 0 0 146.285714L243.809524 780.190476 243.809524 633.904762zM243.809524 828.952381l146.285714 0 0 146.285714L243.809524 975.238095 243.809524 828.952381zM195.047619 438.857143l0 146.285714L48.761905 585.142857 48.761905 438.857143 195.047619 438.857143z" p-id="14005"></path></svg>