<?xml version="1.0" standalone="no"?><!DOCTYPE svg PUBLIC "-//W3C//DTD SVG 1.1//EN" "http://www.w3.org/Graphics/SVG/1.1/DTD/svg11.dtd"><svg t="1562808068403" class="icon" viewBox="0 0 1025 1024" version="1.1" xmlns="http://www.w3.org/2000/svg" p-id="2345" xmlns:xlink="http://www.w3.org/1999/xlink" width="400.390625" height="400"><defs><style type="text/css"></style></defs><path d="M960.012 96l64 0 0 831.393-64 0 0-831.393Z" p-id="2346"></path><path d="M800.012 96l64 0 0 576-64 0 0-576Z" p-id="2347"></path><path d="M640.012 96l96 0 0 576-96 0 0-576Z" p-id="2348"></path><path d="M512.006 96l64.006 0 0 576-64.006 0 0-576Z" p-id="2349"></path><path d="M320 96l128.006 0 0 576-128.006 0 0-576Z" p-id="2350"></path><path d="M892.215 781.339c0 19.591-7.641 30.072-21.545 46.239l-56.445 65.553 77.99 0 0 33.189L769.393 926.32l0-33.189 75.454-87.679c7.396-8.802 10.513-15.037 10.513-24.388 0-15.037-8.802-25.244-24.418-25.244-12.192 0-24.66 6.234-24.66 25.793l-36.889 0c0-36.855 26.954-58.982 61.549-58.982C866.695 722.631 892.215 745.032 892.215 781.339z" p-id="2351"></path><path d="M736.235 780.482c0 21.852-9.934 34.318-23.258 41.441 14.456 7.642 26.1 21.543 26.1 45.932 0 40.278-29.49 60.145-64.115 60.145-32.914 0-63.842-17.296-64.391-59.562l36.854 0c0.58 18.152 13.081 26.372 27.535 26.372 15.861 0 27.229-9.933 27.229-28.084 0-16.747-10.208-27.778-28.357-27.778l-5.379 0 0-32.061 5.379 0c17.848 0 25.518-11.062 25.518-25.272 0-16.991-11.34-25.793-24.664-25.793-13.901 0-24.144 9.075-24.997 24.389l-36.854 0c0.854-36.031 27.81-57.578 61.854-57.578C710.441 722.631 736.235 746.44 736.235 780.482z" p-id="2352"></path><path d="M481.782 926.32 547.337 757.503 494.009 757.503 494.009 789.284 458.802 789.284 458.802 724.312 587.341 724.312 587.341 757.503 521.818 926.32Z" p-id="2353"></path><path d="M377.143 805.178c-4.828 0-10.207 0.549-15.035 2.536l41.991-83.398-40.28 0-42.541 87.37c-9.104 18.459-17.054 35.482-17.054 53.91 0 40.003 27.261 62.404 63.019 62.404 35.728 0 62.956-23.257 62.956-62.954C430.196 827.578 404.402 805.178 377.143 805.178zM367.24 894.811c-15.035 0-26.1-10.783-26.1-29.488 0-18.733 11.063-29.522 26.1-29.522 15.586 0 26.1 11.646 26.1 29.522C393.34 884.025 382.277 894.811 367.24 894.811z" p-id="2354"></path><path d="M213.764 722.631c-32.883 0-61.549 21.547-61.549 60.146l0 85.078c0 38.6 28.666 60.145 61.549 60.145 32.945 0 61.304-21.545 61.304-60.145l0-85.078C275.068 744.178 246.71 722.631 213.764 722.631zM238.183 867.582c0 17.021-9.933 27.229-24.418 27.229-14.455 0-24.662-10.207-24.662-27.229l0-84.256c0-17.021 10.207-27.506 24.662-27.506 14.486 0 24.418 10.482 24.418 27.506L238.183 867.582z" p-id="2355"></path><path d="M192.006 96l64 0 0 576-64 0 0-576Z" p-id="2356"></path><path d="M0 96l96.006 0 0 831.393-96.006 0 0-831.393Z" p-id="2357"></path></svg>