<?xml version="1.0" standalone="no"?><!DOCTYPE svg PUBLIC "-//W3C//DTD SVG 1.1//EN" "http://www.w3.org/Graphics/SVG/1.1/DTD/svg11.dtd"><svg t="1562208362817" class="icon" viewBox="0 0 1024 1024" version="1.1" xmlns="http://www.w3.org/2000/svg" p-id="2632" xmlns:xlink="http://www.w3.org/1999/xlink" width="400" height="400"><defs><style type="text/css"></style></defs><path d="M213.156216 0l380.569622 0c8.91709 0 16.696264 5.390777 20.250206 13.151531l382.371664 667.875117-19.22997 11.103896-19.128663 11.082406-33.629935-58.781778L581.032748 44.811602 260.198625 44.811602l-47.041386 0L213.157239 22.387893 213.156216 0 213.156216 0z" p-id="2633"></path><path d="M332.453253 243.245c67.073628 0 121.513518 54.886051 121.513518 122.537847 0 67.652819-54.425563 122.539894-121.513518 122.539894-67.138096 0-121.580033-54.869678-121.580033-122.539894 0-32.967856 13.047154-62.946634 33.976836-84.981487l-71.421656-124.754329L27.651268 435.215196l341.429183 588.101235 509.403872-296.53674L547.602358 148.891052l-339.979158-41.954531 82.471316 143.967926C303.25935 245.965971 317.47205 243.245 332.453253 243.245L332.453253 243.245z" p-id="2634"></path></svg>