<?xml version="1.0" standalone="no"?><!DOCTYPE svg PUBLIC "-//W3C//DTD SVG 1.1//EN" "http://www.w3.org/Graphics/SVG/1.1/DTD/svg11.dtd"><svg t="1558576257137" class="icon" style="" viewBox="0 0 1024 1024" version="1.1" xmlns="http://www.w3.org/2000/svg" p-id="23810" xmlns:xlink="http://www.w3.org/1999/xlink" width="300" height="300"><defs><style type="text/css"></style></defs><path d="M831.34464 205.38368c93.00992 98.16576 135.53664 230.12352 120.3968 364.21632-12.75904 113.03424-74.56256 216.3712-161.18784 288.36864-183.58784 152.61696-460.84096 120.09984-615.64928-55.76192C38.88128 647.7056 35.62496 414.49984 153.93792 249.6768c131.89632-183.74656 390.61504-230.85056 583.66464-118.66112 28.60032 16.62464 54.35904-27.63264 25.84064-44.2112C542.07488-41.84064 260.87936 19.46112 109.72672 223.83616c-140.20096 189.57312-116.15232 459.25888 42.39872 629.4272 160.21504 171.93984 429.34272 201.39008 626.21696 76.42112 208.61952-132.43904 282.14272-403.5584 181.42208-626.432-22.4256-49.60768-54.87104-94.64832-92.22144-134.06208-22.74304-24.02304-58.89536 12.24704-36.1984 36.19328z" p-id="23811"></path><path d="M546.048 339.5328c19.51744-36.0704 35.29728-69.888 47.34464-101.4528 5.98528-12.01152 15.77984-15.78496 29.30688-11.27424 13.53216 6.02624 17.26464 15.78496 11.27424 29.30688-13.52704 34.59072-26.3168 62.3872-38.3232 83.41504h45.09184c25.53856 0 42.0608 3.76832 49.59744 11.27424 7.50592 6.02624 11.27424 21.80608 11.27424 47.34464v94.68928c1.47968 37.58592-12.78464 55.62368-42.83392 54.10816h-60.87168v148.79744c0 15.01184 11.26912 22.54336 33.81248 22.54336h58.61376c21.03296 0 34.56-3.76832 40.58624-11.26912 5.98528-5.9904 8.23808-23.28576 6.7584-51.85536 0-15.00672 7.50592-23.28576 22.54336-24.80128 13.53216 1.51552 21.02784 9.79456 22.54336 24.80128 1.47968 45.09184-2.2528 72.8832-11.26912 83.41504-9.02144 13.53216-30.82752 20.29568-65.3824 20.29568h-85.66784c-43.61728 1.47456-65.38752-17.30048-65.38752-56.36608v-155.56096H458.12224c-3.02592 67.6352-15.04256 115.75296-36.0704 144.28672-19.55328 30.04928-57.87648 54.10816-114.97984 72.14592-15.04256 2.9952-25.5744-1.51552-31.5648-13.52704-3.03104-13.52704 2.99008-23.3216 18.03264-29.312 48.08704-15.04256 79.64672-34.55488 94.68928-58.61376 16.52224-22.54336 24.79616-60.8768 24.79616-114.97984H358.92736c-28.5696 0-42.83392-16.52224-42.83392-49.60256V382.37184c-1.51552-30.04928 18.03264-44.3136 58.61888-42.83392h171.33568z m-166.8352 40.58112c-13.52704-1.47968-20.29056 4.51072-20.29056 18.03776v78.90944c0 18.03264 7.50592 27.83232 22.54336 29.30688h261.52448c10.496 0 15.77984-5.98528 15.77984-18.03264V402.6624c0-16.52224-4.51072-24.02304-13.53216-22.54848H379.2128zM453.61664 301.2096c5.98528 15.04256 2.9952 25.5744-9.01632 31.5648-12.04736 6.02112-21.80608 1.51552-29.312-13.52704-3.03104-7.5008-8.27904-17.26464-15.77984-29.312-7.54176-12.01152-13.52704-22.54336-18.03776-31.5648-6.02112-13.52704-3.03104-24.02304 9.01632-31.5648 12.01152-4.51072 21.77024-0.7424 29.312 11.27424 16.51712 25.57952 27.79136 46.60736 33.8176 63.1296z" p-id="23812"></path></svg>