<?xml version="1.0" standalone="no"?><!DOCTYPE svg PUBLIC "-//W3C//DTD SVG 1.1//EN" "http://www.w3.org/Graphics/SVG/1.1/DTD/svg11.dtd"><svg t="1558575107080" class="icon" style="" viewBox="0 0 1024 1024" version="1.1" xmlns="http://www.w3.org/2000/svg" p-id="8771" xmlns:xlink="http://www.w3.org/1999/xlink" width="300" height="300"><defs><style type="text/css"></style></defs><path d="M673.597786 490.519051H329.678367a33.634054 33.634054 0 0 1 0-67.268109h343.919419a33.634054 33.634054 0 0 1 0 67.268109zM673.597786 643.912762H329.678367a33.634054 33.634054 0 0 1 0-67.268109h343.919419a33.634054 33.634054 0 0 1 0 67.268109z" fill="" p-id="8772"></path><path d="M510.29324 817.419637a33.634054 33.634054 0 0 1-33.634055-33.634054V456.884996a33.634054 33.634054 0 0 1 67.268109 0v326.900587a33.634054 33.634054 0 0 1-33.634054 33.634054z" fill="" p-id="8773"></path><path d="M497.84864 470.719804a33.634054 33.634054 0 0 1-23.790488-9.843567l-165.681352-165.771043a33.634054 33.634054 0 1 1 47.558553-47.558553l165.771043 165.771043a33.634054 33.634054 0 0 1-23.857756 57.40212z" fill="" p-id="8774"></path><path d="M522.670572 473.119033a33.634054 33.634054 0 0 1-23.790488-57.424542l165.771043-165.771044a33.634054 33.634054 0 1 1 47.558553 47.558554L546.438637 463.253044a33.634054 33.634054 0 0 1-23.768065 9.865989z" fill="" p-id="8775"></path><path d="M46.90566 452.198651A35.876325 35.876325 0 0 1 11.657171 409.460979C57.780671 172.206359 266.894799 0 509.059991 0a506.910046 506.910046 0 0 1 496.461067 404.662521 35.876325 35.876325 0 1 1-70.295174 14.395375A435.157397 435.157397 0 0 0 509.059991 71.75265C301.24638 71.75265 121.685374 219.540685 82.064458 423.183673a35.876325 35.876325 0 0 1-35.158798 29.014978z" fill="" p-id="8776"></path><path d="M47.802568 454.463344A35.876325 35.876325 0 0 1 33.698688 385.670491l118.122799-50.899535a35.883052 35.883052 0 1 1 28.36472 65.922746l-118.212491 50.854691a35.876325 35.876325 0 0 1-14.171148 2.914951zM514.889894 1024A506.910046 506.910046 0 0 1 18.428827 619.337479a35.876325 35.876325 0 0 1 70.295174-14.395375 435.157397 435.157397 0 0 0 426.165893 347.305246c207.813611 0 387.374617-147.788035 426.97311-351.431023a35.876325 35.876325 0 1 1 70.42971 13.700271c-46.1235 237.277043-255.327319 409.483402-497.40282 409.483402z" fill="" p-id="8777"></path><path d="M857.979672 692.143996a35.876325 35.876325 0 0 1-14.193571-68.837698l118.212491-50.854691a35.876325 35.876325 0 1 1 28.364719 65.900324l-118.21249 50.854691a35.876325 35.876325 0 0 1-14.171149 2.937374z" fill="" p-id="8778"></path></svg>