<?xml version="1.0" standalone="no"?><!DOCTYPE svg PUBLIC "-//W3C//DTD SVG 1.1//EN" "http://www.w3.org/Graphics/SVG/1.1/DTD/svg11.dtd"><svg t="1558574766717" class="icon" style="" viewBox="0 0 1024 1024" version="1.1" xmlns="http://www.w3.org/2000/svg" p-id="4331" xmlns:xlink="http://www.w3.org/1999/xlink" width="300" height="300"><defs><style type="text/css"></style></defs><path d="M512 853.333333 544.426667 725.333333C405.333333 716.373333 281.173333 657.066667 245.333333 579.413333 241.493333 599.893333 235.946667 618.666667 227.413333 632.746667 199.253333 682.666667 142.08 682.666667 85.333333 682.666667 132.266667 682.666667 149.333333 615.68 149.333333 533.333333 149.333333 450.986667 132.266667 384 85.333333 384 142.08 384 199.253333 384 227.413333 433.92 235.946667 448 241.493333 466.773333 245.333333 487.253333 273.066667 426.666667 354.986667 377.6 454.826667 354.986667L384 213.333333C469.333333 213.333333 554.666667 213.333333 611.413333 241.92 659.626667 265.813333 687.36 310.186667 712.106667 357.546667 836.693333 387.413333 938.666667 454.826667 938.666667 533.333333 938.666667 613.546667 832 682.666667 704 710.826667 668.586667 757.76 634.026667 801.28 604.586667 824.746667 568.746667 853.333333 540.586667 853.333333 512 853.333333M725.333333 469.333333C701.866667 469.333333 682.666667 488.533333 682.666667 512 682.666667 535.466667 701.866667 554.666667 725.333333 554.666667 748.8 554.666667 768 535.466667 768 512 768 488.533333 748.8 469.333333 725.333333 469.333333Z" p-id="4332" fill="#cdcdcd"></path></svg>