<?xml version="1.0" standalone="no"?><!DOCTYPE svg PUBLIC "-//W3C//DTD SVG 1.1//EN" "http://www.w3.org/Graphics/SVG/1.1/DTD/svg11.dtd"><svg t="1563790803276" class="icon" viewBox="0 0 1024 1024" version="1.1" xmlns="http://www.w3.org/2000/svg" p-id="5713" xmlns:xlink="http://www.w3.org/1999/xlink" width="400" height="400"><defs><style type="text/css"></style></defs><path d="M201.6 169.6z m44.8-28.8z m-44.8 25.6z m44.8-25.6zM435.2 374.4a57.6 57.6 0 1 0 115.2 0 57.6 57.6 0 1 0-115.2 0z" p-id="5714"></path><path d="M915.2 483.2c0-9.6-3.2-19.2-9.6-28.8-3.2-3.2-6.4-9.6-12.8-16-12.8-16-48-54.4-102.4-96l60.8-64c3.2-3.2 6.4-6.4 6.4-12.8s-3.2-12.8-6.4-16c-96-57.6-249.6-48-291.2-44.8-86.4-35.2-192-60.8-310.4-64h-3.2c-19.2 0-35.2 12.8-41.6 28.8v6.4c-70.4 214.4-51.2 403.2-22.4 524.8C208 806.4 243.2 883.2 259.2 912c6.4 12.8 19.2 22.4 35.2 22.4 22.4 3.2 44.8 3.2 64 3.2 224 0 358.4-108.8 435.2-198.4 80-96 115.2-198.4 121.6-246.4v-9.6z m-422.4-192c44.8 0 80 35.2 80 80s-35.2 80-80 80-80-35.2-80-80c0-41.6 35.2-80 80-80zM208 678.4c32-3.2 60.8-6.4 89.6-16l-35.2 76.8-54.4-60.8z m150.4 224h-19.2c-12.8 0-25.6 0-41.6-3.2-6.4 0-12.8-3.2-16-9.6-3.2-3.2-3.2-6.4-6.4-12.8h9.6c89.6 0 160-25.6 208-80 92.8-102.4 80-262.4 73.6-297.6 0-9.6-9.6-16-16-16-3.2 0-9.6 3.2-12.8 3.2-22.4 22.4-160 150.4-336 156.8C182.4 544 176 409.6 211.2 256c3.2-6.4 12.8-12.8 25.6-12.8h9.6c35.2 16 89.6 38.4 153.6 76.8-9.6 16-12.8 32-12.8 51.2 0 57.6 48 105.6 105.6 105.6 28.8 0 57.6-12.8 76.8-32 80 73.6 147.2 153.6 198.4 246.4 0 3.2 3.2 6.4 3.2 9.6 0 6.4-3.2 9.6-6.4 12.8-70.4 89.6-198.4 188.8-406.4 188.8zM336 768l76.8 54.4C384 835.2 352 844.8 313.6 848l22.4-80z m-9.6-112c32-9.6 64-25.6 89.6-38.4l-16 89.6-73.6-51.2z m108.8-51.2c28.8-16 54.4-35.2 73.6-51.2l3.2 83.2-76.8-32z m83.2 96c-9.6 28.8-25.6 57.6-48 80l-6.4 6.4-16-86.4h70.4z" p-id="5715"></path></svg>