<?xml version="1.0" standalone="no"?><!DOCTYPE svg PUBLIC "-//W3C//DTD SVG 1.1//EN" "http://www.w3.org/Graphics/SVG/1.1/DTD/svg11.dtd"><svg t="1557916242909" class="icon" style="" viewBox="0 0 1024 1024" version="1.1" xmlns="http://www.w3.org/2000/svg" p-id="3929" xmlns:xlink="http://www.w3.org/1999/xlink" width="200" height="200"><defs><style type="text/css"></style></defs><path d="M799.88 835.33c-48.08 0-88.3-19.63-116.37-56.82-26.09-34.56-33.87-74.35-36-89.85-2.93-21.31-13.34-35.18-32.76-43.64a91.79 91.79 0 0 0-30.75-7.09H440.77a90.26 90.26 0 0 0-32.46 7.77c-18.46 8.54-28.38 22.19-31.24 43-2.14 15.5-9.92 55.29-36 89.85-28.07 37.18-68.3 56.82-116.38 56.82h-0.74c-66.95-0.28-103.2-31.41-121.82-57.47-21.4-29.98-32.44-69.97-32.8-118.9-0.71-95.21 25.28-253.5 51.36-368.14 19.76-86.89 70.66-128.46 109.89-148 41.75-20.84 78.54-21.44 82.6-21.44h398.21c4.05 0 40.84 0.6 82.6 21.44 39.22 19.58 90.13 61.15 109.89 148C930 405.53 956 563.82 955.24 659c-0.37 48.9-11.4 88.89-32.8 118.83-18.61 26.06-54.86 57.19-121.81 57.47zM584 573.93a152.56 152.56 0 0 1 56.31 12.42c39.59 17.24 64.67 50.48 70.6 93.58 3 21.47 18.12 91.4 89 91.4h0.46c32.46-0.13 55.36-10.17 70-30.67 13.39-18.75 20.61-47.14 20.87-82.11 0.67-89.59-25.33-246-49.77-353.47C815 188.81 716.36 185.5 711.23 185.41H313.34c-5.13 0.09-103.8 3.4-130.25 119.67-24.43 107.44-50.43 263.92-49.76 353.47 0.26 35 7.48 63.36 20.87 82.11 14.65 20.5 37.55 30.54 70 30.67h0.45c70.89 0 86-69.93 89-91.4 5.94-43.1 31-76.34 70.61-93.58a153.23 153.23 0 0 1 56.38-12.42H584z" p-id="3930"></path><path d="M353.84 513.32A123.29 123.29 0 1 1 477.13 390a123.43 123.43 0 0 1-123.29 123.32z m0-182.58A59.29 59.29 0 1 0 413.13 390a59.36 59.36 0 0 0-59.29-59.26zM649.8 266.31h64v74.84h-64zM649.8 420.33h64v74.84h-64zM721.39 348.74h74.84v64h-74.84zM567.37 348.74h74.84v64h-74.84z" p-id="3931"></path></svg>