<?xml version="1.0" standalone="no"?><!DOCTYPE svg PUBLIC "-//W3C//DTD SVG 1.1//EN" "http://www.w3.org/Graphics/SVG/1.1/DTD/svg11.dtd"><svg t="1560313275820" class="icon" style="" viewBox="0 0 1024 1024" version="1.1" xmlns="http://www.w3.org/2000/svg" p-id="8748" xmlns:xlink="http://www.w3.org/1999/xlink" width="400" height="400"><defs><style type="text/css"></style></defs><path d="M832 273.328c52.928 0 96 43.072 96 96v318c0 52.928-43.072 96-96 96H192c-52.928 0-96-43.072-96-96V369.328c0-52.928 43.072-96 96-96h640m0-96H192c-105.6 0-192 86.4-192 192v318c0 105.6 86.4 192 192 192h640c105.6 0 192-86.4 192-192V369.328c0-105.6-86.4-192-192-192z" fill="" p-id="8749"></path><path d="M420.528 480.336h-50.736V429.6c0-24.992-21.488-45.264-48-45.264s-48 20.256-48 45.264v50.736H223.04c-24.992 0-45.264 21.488-45.264 48s20.256 48 45.264 48h50.736v50.736c0 24.992 21.488 45.264 48 45.264s48-20.256 48-45.264v-50.736h50.736c24.992 0 45.264-21.488 45.264-48 0.016-26.512-20.256-48-45.248-48zM704.128 477.328a51.056 51.056 0 0 1 51.008 51.008c0 28.128-22.88 51.008-51.008 51.008s-51.008-22.88-51.008-51.008a51.056 51.056 0 0 1 51.008-51.008m0-96c-81.184 0-147.008 65.808-147.008 147.008s65.808 147.008 147.008 147.008 147.008-65.808 147.008-147.008-65.824-147.008-147.008-147.008zM561.504 213.328c0 26.4-21.6 48-48 48h-2.992c-26.4 0-48-21.6-48-48v-52.672c0-26.4 21.6-48 48-48h2.992c26.4 0 48 21.6 48 48v52.672z" fill="" p-id="8750"></path></svg>