<?xml version="1.0" standalone="no"?><!DOCTYPE svg PUBLIC "-//W3C//DTD SVG 1.1//EN" "http://www.w3.org/Graphics/SVG/1.1/DTD/svg11.dtd"><svg t="1558576056127" class="icon" style="" viewBox="0 0 1024 1024" version="1.1" xmlns="http://www.w3.org/2000/svg" p-id="19149" xmlns:xlink="http://www.w3.org/1999/xlink" width="300" height="300"><defs><style type="text/css"></style></defs><path d="M929.220225 286.919536l-75.686209 0c18.749538 0 35.606921-37.327062 43.175542-62.097094 9.460776-30.446498 3.612296-60.376953-16.513355-87.03914-1.376113-1.892155-2.92424-3.440282-4.644381-4.816395-97.359987-83.254829-229.122795-3.096254-282.791198 36.294977-14.449185 9.976818-18.061482 29.930455-8.084663 44.379641 9.976818 14.621199 29.930455 18.40551 44.551655 8.428691 0.344028-0.172014 2.580212-1.892155 2.92424-2.064169 30.618512-22.533848 134.687049-91.339493 199.020326-40.423316 6.020494 8.944734 7.396607 17.373425 4.472367 26.834201-7.568621 24.598018-39.73526 47.475895-55.216529 52.636318-60.204939 22.533848-79.814547 24.942046-105.100622 26.662187-2.064169 0.172014-3.956325 1.204099-5.84848 1.204099l-88.415253 0c-1.376113 0-2.580212-4.128339-4.472367-6.020494-33.026709-30.790526-111.29313-103.036452-126.774399-113.529313-118.00168-80.502604-224.822442-93.059634-293.456073-34.402822-1.720141 1.548127-3.268268 3.268268-4.644381 4.988409C131.41878 164.617504 125.570301 194.375945 135.031077 224.822442c7.568621 24.770032 24.426004 62.097094 43.003528 62.097094L96.499916 286.919536c-17.717453 0-33.370737 15.137242-33.370737 32.854695L63.129179 479.919368c0 17.717453 0 31.994625 31.994625 31.994625l0 313.237695c0 55.904586 42.659499 102.348396 93.403662 102.348396l645.912985 0c51.260205 0 93.403662-47.475895 93.403662-102.348396L927.844112 511.913993c31.994625 0 31.994625-14.277171 31.994625-31.994625l0-160.145137C960.010751 302.056778 946.937678 286.919536 929.220225 286.919536zM356.585251 285.715438c-25.286074-1.892155-44.895683-4.300353-106.30472-27.350244-14.449185-4.816395-46.44381-27.522258-54.184445-52.120275-2.92424-9.460776-1.548127-17.889467 4.472367-26.834201 64.161263-50.400134 169.777927 11.352931 214.845624 42.143457 6.364522 4.472367 37.67109 33.198723 73.450025 65.193348l-126.430371 0C360.541576 286.919536 358.64942 285.887452 356.585251 285.715438zM895.849488 350.908785l0 96.155888L131.074752 447.064673c-0.860071 0-3.956325 1.204099-3.956325 1.204099L127.118428 350.908785 895.849488 350.908785zM834.44045 863.510835 188.527465 863.510835c-16.513355 0-29.414413-20.641693-29.414413-38.359147L159.113052 511.053922l704.741811 0 0 314.097766C863.854863 844.245254 850.265748 863.510835 834.44045 863.510835z" p-id="19150"></path></svg>