<?xml version="1.0" standalone="no"?><!DOCTYPE svg PUBLIC "-//W3C//DTD SVG 1.1//EN" "http://www.w3.org/Graphics/SVG/1.1/DTD/svg11.dtd"><svg t="1560913078529" class="icon" style="" viewBox="0 0 1024 1024" version="1.1" xmlns="http://www.w3.org/2000/svg" p-id="7794" xmlns:xlink="http://www.w3.org/1999/xlink" width="400" height="400"><defs><style type="text/css"></style></defs><path d="M934.4 288c0-16-16-28.8-32-28.8H764.8C739.2 150.4 640 70.4 524.8 70.4h-19.2c-115.2 0-214.4 80-240 188.8H128c-19.2-3.2-32 9.6-32 28.8L67.2 841.6v3.2C73.6 912 128 960 192 960h649.6c64 0 118.4-51.2 121.6-115.2v-3.2L934.4 288z m-96 608H192c-28.8 0-54.4-22.4-57.6-54.4L156.8 320h102.4v134.4c-19.2 9.6-32 32-32 54.4 0 35.2 28.8 64 64 64s64-28.8 64-64c0-22.4-12.8-44.8-32-54.4V313.6c0-102.4 83.2-182.4 182.4-182.4h19.2c102.4 0 182.4 83.2 182.4 182.4v144c-19.2 9.6-32 32-32 54.4 0 35.2 28.8 64 64 64s64-28.8 64-64c0-22.4-12.8-44.8-32-54.4V320h99.2L896 841.6c0 32-25.6 54.4-57.6 54.4z" fill="#8a8a8a" p-id="7795"></path><path d="M611.2 256h-192c-19.2 0-32 12.8-32 32s12.8 32 32 32h192c19.2 0 32-12.8 32-32s-12.8-32-32-32z" fill="#8a8a8a" p-id="7796"></path></svg>