<?xml version="1.0" standalone="no"?><!DOCTYPE svg PUBLIC "-//W3C//DTD SVG 1.1//EN" "http://www.w3.org/Graphics/SVG/1.1/DTD/svg11.dtd"><svg t="1560912431931" class="icon" style="" viewBox="0 0 1024 1024" version="1.1" xmlns="http://www.w3.org/2000/svg" p-id="3157" xmlns:xlink="http://www.w3.org/1999/xlink" width="400" height="400"><defs><style type="text/css"></style></defs><path d="M1023.415191 610.686465a293.573958 293.573958 0 0 0-84.577955-66.156482v-157.167333c0-25.950885-18.786979-46.930897-41.886922-46.930897H813.615077c3.655054 26.462593 5.555682 52.998287 5.555683 79.241577 0 20.541405-1.096516 12.719589-3.508853 34.35751-2.04683 25.512279-74.1245 24.26956-74.1245 1.315819 3.143347-22.588235 4.678469-15.131925 4.67847-35.673329 0-26.681896-2.266134-53.290691-6.7253-79.241577H283.851513c-4.386065 26.097087-6.652199 52.632781-6.652198 79.241577 0 20.249001 1.462022 12.573387 4.605368 34.942318 19.664192 14.035408 31.65277 38.012564 31.65277 63.96345 0 42.033124-30.775557 76.244432-68.568818 76.244431-37.866362 0-68.71502-34.211308-68.71502-76.244431 0-26.097087 11.988578-49.928041 31.65277-63.96345-2.485437-22.076528-3.655054-14.474015-3.655054-34.942318 0-26.097087 1.827527-52.632781 5.628783-79.241577H126.537978c-23.173044 0-41.960023 20.980011-41.960023 46.930897v503.666476c0 25.950885 18.786979 47.003998 41.960023 47.003998h417.553398c16.81325 32.456882 39.474586 61.404911 66.595089 85.382067H110.090234C49.416334 1023.415191 0 970.78241 0 906.014849V372.52313C0 307.755568 49.343232 255.122787 110.090234 255.122787h107.970303C264.77213 104.753855 376.689891 0 511.707596 0c135.017704 0 246.935465 104.753855 293.573957 255.049686h108.043404c60.673901 0 110.090234 52.632781 110.090234 117.473444v238.163335zM724.431753 243.280411C683.933752 142.400914 607.031411 84.943461 511.707596 84.943461c-95.396916 0-172.226156 57.530554-212.724158 158.33695h425.448315z m267.842376 487.364935c13.304397 0 23.757853 11.038264 26.681896 28.143917 0.292404 2.777841 4.532267 26.462593 4.459166 45.615077 0 19.883495-4.605368 45.030268-4.605368 45.322673-2.924043 17.105654-13.377499 28.143918-26.316391 28.143918h-2.266133c-25.366077 0-46.199886 21.930326-46.199886 48.758424 0 7.968018 3.874358 17.54426 4.239863 18.567675 6.140491 14.620217 1.242718 33.260994-11.403769 42.544832l-1.31582 1.023415-53.583095 31.214163a34.35751 34.35751 0 0 1-41.009709-8.625928c-6.798401-7.821816-25.292975-24.342661-38.012564-24.342661-12.646488 0-31.214163 16.520845-37.647059 24.123358a34.942319 34.942319 0 0 1-26.023986 11.549971 30.848658 30.848658 0 0 1-13.669903-3.070245l-52.925186-31.214163a36.916048 36.916048 0 0 1-12.427184-43.495146 61.916619 61.916619 0 0 0 3.947458-18.567676c0-26.828098-20.833809-48.758424-46.199886-48.758423h-1.973729c-13.231296 0-23.757853-11.038264-26.608795-28.143918C588.975443 846.656768 584.808681 823.26442 584.808681 804.111936s4.312964-42.544832 4.605368-45.322673c2.924043-17.105654 13.377499-28.143918 26.316391-28.143917h2.193032c25.292975 0 46.126785-21.930326 46.126785-48.758424 0-7.894917-3.874358-17.54426-4.166762-18.567676a36.623644 36.623644 0 0 1 11.403769-42.47173l1.242719-1.023415 55.629926-32.237579a35.234723 35.234723 0 0 1 39.401484 8.552827c6.579098 7.529412 24.708167 22.953741 37.062251 22.953741 12.427184 0 30.33695-15.131925 37.135351-22.368932a35.234723 35.234723 0 0 1 39.693889-8.552827l53.948601 31.65277c13.889206 10.234152 18.786979 28.436322 12.646488 43.495145a61.916619 61.916619 0 0 0-3.874358 18.567676c0 26.828098 20.833809 48.758424 46.126785 48.758424h1.973729z m-109.13992 174.565391c0-38.889777 26.681896-71.127356 61.770417-76.317533 1.023415-6.213592 2.04683-16.374643 2.193032-24.561965 0-7.894917-1.242718-18.275271-2.04683-24.708166-35.088521-4.824672-61.770417-37.427756-61.770417-76.244432 0-8.77213 1.827527-17.54426 3.655054-23.246145l-30.921759-18.421474a109.066819 109.066819 0 0 1-12.500285 10.965163c-13.596802 10.234152-26.462593 15.351228-38.451171 15.351228-12.280982 0-25.146773-5.043975-38.743575-15.570531a141.304397 141.304397 0 0 1-12.865791-11.403769l-32.164477 19.006282c1.608224 5.628784 3.655054 14.108509 3.655054 23.246145 0 38.816676-26.681896 71.127356-61.770417 76.244431a210.16562 210.16562 0 0 0-2.119931 24.708167c0 8.260423 1.31582 18.421473 2.119931 24.635066 35.088521 4.824672 61.770417 37.427756 61.770417 76.317533 0 8.77213-1.827527 17.54426-3.655054 23.246145l29.825242 18.055968c2.924043-2.850942 7.38321-7.38321 12.865791-11.623073 13.669903-10.965163 27.047401-16.374643 39.255283-16.374643 12.354083 0 25.658481 5.701885 39.547687 16.740149 5.555682 4.459166 9.941748 8.991433 12.865791 11.915477l31.141062-18.713878a86.332381 86.332381 0 0 1-3.655054-23.246145zM804.111936 718.291262c47.223301 0 85.820674 38.597373 85.820674 85.820674 0 47.223301-38.597373 85.820674-85.820674 85.820674-47.223301 0-85.820674-38.743575-85.820674-85.820674 0-47.223301 38.597373-85.820674 85.820674-85.820674z" fill="#bfbfbf" p-id="3158"></path></svg>