<?xml version="1.0" standalone="no"?><!DOCTYPE svg PUBLIC "-//W3C//DTD SVG 1.1//EN" "http://www.w3.org/Graphics/SVG/1.1/DTD/svg11.dtd"><svg t="1562317527963" class="icon" viewBox="0 0 1026 1024" version="1.1" xmlns="http://www.w3.org/2000/svg" p-id="1449" xmlns:xlink="http://www.w3.org/1999/xlink" width="400.78125" height="400"><defs><style type="text/css"></style></defs><path d="M827.42784 692.01792C996.128 644.87936 1019.07968 469.3504 1025.28 440.19712c-213.36192-44.03968-259.25504-195.37408-259.25504-195.37408C731.91296 40.14464 587.39712 14.08 587.39712 14.08s11.77984 120.32896-84.35456 120.32896C406.90816 134.40896 419.9296 14.08 419.9296 14.08 287.8144 80.4544 287.83744 170.016 261.15456 247.90016 217.22112 376.14464 104.23808 430.87872 1.28 469.95328 21.13024 588.42112 72.6016 653.5424 226.4192 716.1856c-12.4032 29.7728-90.1824 100.88448-119.08224 128.39424 161.87392 11.14624 305.77024 35.3536 419.27296 166.84288C651.2768 876.20736 824.3328 840.87296 938.46016 820.40448 855.35232 756.51712 826.19264 704.42112 827.42784 692.01792zM794.08768 721.14688c4.18688 5.58336-21.8624 14.88768-48.3776 14.88768s-32.28032-4.18688-34.6048-11.6288c-2.32576-7.4432 18.32192-6.44736 38.79168-6.912C770.36416 717.02912 789.9008 715.56736 794.08768 721.14688zM773.15456 631.37024c-9.77152 35.3536-47.91424 53.0304-63.72992 60.00768-8.37248 16.74624-14.42176 33.0304-14.42176 33.0304s-56.288-65.58976-146.9952-49.30944c4.18688-9.76768 6.04928-30.7008-46.05312-13.95456-0.46464-31.16672 3.25632-161.4144 3.25632-161.4144s11.27936-15.87328 38.144 6.97728c11.48544 9.76896-3.72224 87.91936 77.6832 87.91936s84.19456-64.66048 84.19456-64.66048l34.89024-1.39648c1.06752 13.4912-3.2576 42.79808-3.2576 42.79808S782.92224 596.01664 773.15456 631.37024zM526.60992 758.8288c-12.55936-10.2336-3.25504-23.72352 5.58208-22.79424 8.8384 0.93056 26.97984 10.2336 60.93568 31.16672 33.95968 20.93312 71.63776 16.74752 69.312 25.12-7.4816 26.92992-36.28672 76.28928-96.75904 77.21984-60.47104 0.93056-53.49248-67.9168-39.95776-80.47616C539.26528 776.5056 539.17056 769.0624 526.60992 758.8288zM475.27552 197.9456l34.81728 0c26.0096 0 72.91008 28.46848 72.91008 105.26976 0 35.43168-16.1792 65.12768-57.55008 65.12768l-53.04448 0c-5.12 0-11.264 3.8912-11.264-72.91008C461.14432 194.2592 471.79392 197.9456 475.27552 197.9456zM367.2256 444.50432c9.30432-4.34304 56.43904-29.77152 146.0544-29.77152 207.45472 0 230.42944 87.45344 230.42944 87.45344s-79.392-10.54208-212.12416-26.66752C398.8544 459.392 357.92256 448.84608 367.2256 444.50432zM327.78112 469.40544c15.81568-3.25632 170.45376 24.27264 170.45376 24.27264s-126.06208 28.37632-168.39424 19.072C287.50976 503.44576 316.65664 471.69408 327.78112 469.40544zM309.53344 590.88896c13.89056 12.82304-8.99456 19.22816-8.99456 50.85952 0 31.63264 45.5872 43.41504 33.80224 58.30016-9.53216 12.03968-66.98624-11.16416-67.6032-62.02112C266.73664 638.02752 285.344 568.56064 309.53344 590.88896zM336.288 724.23552c8.59904 8.6848-68.31232 40.31744-84.43648 9.9264C235.72608 703.76576 336.288 724.23552 336.288 724.23552zM678.57792 860.0704c-72.56576 35.35744-152.57984 101.71776-152.57984 101.71776s-66.98624-44.03712-146.37696-89.312c-79.392-45.27488-190.41024-56.44288-190.41024-56.44288l44.65664-57.68192c31.00672 47.75936 102.9632 37.83296 136.45696 35.97312 4.3392 8.6848 71.9488 112.25856 153.8176 112.25856 81.87008 0 136.45568-88.69248 153.20064-122.18496 102.33984 9.9264 130.8672-42.17344 130.8672-42.17344l50.85696 58.92352C859.06688 801.1456 751.14496 824.71296 678.57792 860.0704z" p-id="1450" fill="#dbdbdb"></path><path d="M518.08 342.12736c11.0592 0 31.74528-10.4448 31.74528-47.31008 0-50.58688-26.2144-72.70528-39.52768-72.70528-14.336 0-17.2032 26.42048-17.2032 39.32288l0 29.2864C493.09312 336.80256 506.6112 342.12736 518.08 342.12736z" p-id="1451" fill="#dbdbdb"></path><path d="M732.22016 601.59872c-6.51264 2.79168 0.46464 23.25888-4.18688 35.3536-4.65408 12.09344-13.02656 29.30688-5.58208 31.63136 7.44064 2.32576 28.84224-10.69824 29.30688-30.7008C752.22272 617.88032 738.7328 598.80704 732.22016 601.59872z" p-id="1452" fill="#dbdbdb"></path></svg>