<?xml version="1.0" standalone="no"?><!DOCTYPE svg PUBLIC "-//W3C//DTD SVG 1.1//EN" "http://www.w3.org/Graphics/SVG/1.1/DTD/svg11.dtd"><svg t="1557973071284" class="icon" style="" viewBox="0 0 1024 1024" version="1.1" xmlns="http://www.w3.org/2000/svg" p-id="4802" xmlns:xlink="http://www.w3.org/1999/xlink" width="200" height="200"><defs><style type="text/css"></style></defs><path d="M237.714286 896.031824C237.714286 926.377218 262.24463 950.857143 292.668757 950.857143L731.331242 950.857143C761.82537 950.857143 786.285714 926.391137 786.285714 896.031824L786.285714 127.968175C786.285714 97.622783 761.75537 73.142857 731.331242 73.142857L292.668757 73.142857C262.17463 73.142857 237.714286 97.608863 237.714286 127.968175L237.714286 896.031824ZM292.668757 18.285714 731.331242 18.285714C791.978523 18.285714 841.142857 67.252451 841.142857 127.968175L841.142857 896.031824C841.142857 956.607775 792.202242 1005.714286 731.331242 1005.714286L292.668757 1005.714286C232.021477 1005.714286 182.857143 956.747549 182.857143 896.031824L182.857143 127.968175C182.857143 67.392225 231.797759 18.285714 292.668757 18.285714Z" p-id="4803"></path><path d="M446.171429 845.589943l131.657143 0 0 40.031086-131.657143 0 0-40.031086Z" p-id="4804"></path><path d="M196.022857 738.8416l631.954286 0 0 40.031086-631.954286 0 0-40.031086Z" p-id="4805"></path></svg>