<?xml version="1.0" standalone="no"?><!DOCTYPE svg PUBLIC "-//W3C//DTD SVG 1.1//EN" "http://www.w3.org/Graphics/SVG/1.1/DTD/svg11.dtd"><svg t="1562317717479" class="icon" viewBox="0 0 1024 1024" version="1.1" xmlns="http://www.w3.org/2000/svg" p-id="5097" xmlns:xlink="http://www.w3.org/1999/xlink" width="400" height="400"><defs><style type="text/css"></style></defs><path d="M865.414145 388.965849l-37.164435 79.806627 0 9.762341 0 21.573341c14.043854 7.02909 27.562752 15.555278 40.457434 25.492604L868.707145 381.89378 865.414145 388.965849z" p-id="5098"></path><path d="M483.879546 947.894671c-7.016811-20.565385-12.33698-41.782615-15.966647-63.49922l-54.084803 0L364.730888 712.502523l-4.743024-16.594957-16.178471 5.956665L230.022861 743.853555l0-604.252077 563.953256 0 0 185.019901 7.212262 3.705392 52.723805 27.083845 14.794961 7.600095L868.707145 102.237499 868.707145 64.842821l-37.367049 0L192.658881 64.842821l-37.367049 0 0 37.394678 0 679.632905 0 18.667152 15.171538 11.291161 187.92609 139.89312 10.016121 7.437389 12.17632 0L487.72206 959.159226 483.879546 947.894671zM243.240907 773.069971l95.41307-35.20378 38.58069 134.974088L243.240907 773.069971z" p-id="5099"></path><path d="M562.226938 550.322817c1.426489-1.442862 2.867304-2.859118 4.314259-4.263094l-269.569552 0 0 31.113625 241.73767 0C546.111912 567.663764 553.956577 558.692439 562.226938 550.322817z" p-id="5100"></path><path d="M617.412818 478.533794 617.412818 459.855386 614.183264 452.809923 296.971645 452.809923 296.971645 483.892849 617.412818 483.892849Z" p-id="5101"></path><path d="M571.799968 360.341928 599.361697 351.588567 600.956008 351.08203 296.971645 351.08203 296.971645 382.168026 581.803809 382.168026Z" p-id="5102"></path><path d="M296.971645 257.802554l446.204481 0 0 31.113625-446.204481 0 0-31.113625Z" p-id="5103"></path><path d="M802.667056 516.556783l0-38.022988-7.18361 0 46.739511-100.367919-52.723805-27.083845-34.446533 51.27992 2.946099-43.221384-53.474912-6.614651-17.584494 39.558971-17.553795-35.892465-62.280462 19.779486 47.010687 102.56291-11.121292 0 0 44.00319c-90.808192 44.880163-155.282622 158.440545-155.282622 291.482631 0 44.695968 7.27366 87.200014 20.380166 125.613906 73.580832 14.690584 147.186224 21.98164 220.763986 21.98164 73.973782 0 147.917888-7.363711 221.87939-21.98164 13.106506-38.413891 20.409842-80.917938 20.409842-125.613906C971.146235 674.637124 900.358005 556.626383 802.667056 516.556783zM786.314623 829.649594c-9.738805 11.512195-24.405853 18.606777-43.883463 21.370727l0 21.312398-26.211988 0 0-21.881356c-15.180747-1.505283-28.434609-7.365758-39.767725-17.553795-11.333116-10.129708-17.012466-27.89635-17.012466-53.206806l0-11.089569 56.780191 0 0 13.888312c0 15.269775 0.568958 24.738427 1.77339 28.434609 1.14201 3.665483 3.967358 5.500271 8.446369 5.500271 3.847631 0 6.734378-1.292436 8.596795-3.816932 1.865487-2.616594 2.76702-6.433526 2.76702-11.484565 0-12.743232-0.901533-21.850657-2.677992-27.350928-1.77339-5.472642-7.842619-11.453866-18.243503-17.886369-17.34504-10.911514-29.096688-18.877953-35.351136-23.987321-6.189979-5.140067-11.601222-12.294001-16.140609-21.611204-4.53734-9.258874-6.824429-19.721157-6.824429-31.442106 0-16.954137 4.810562-30.241768 14.429641-39.888476 9.588379-9.680477 23.987321-15.629979 43.224454-17.886369l0-18.154475 26.211988 0 0 18.154475c17.523095 2.25639 30.65723 8.116865 39.373753 17.615193 8.688893 9.530051 13.078877 22.663162 13.078877 39.436174 0 2.314719-0.211824 5.891174-0.603751 10.671037l-56.749492 0 0-9.43693c0-10.009981-0.662079-16.532535-1.954515-19.629059-1.323135-3.127224-4.087085-4.660136-8.41567-4.660136-3.456728 0-6.073322 1.353834-7.78736 3.998057-1.710968 2.674922-2.585895 6.67298-2.585895 12.053524 0 8.867972 1.77646 15.119349 5.322216 18.665105 3.456728 3.548826 13.706163 10.462283 30.6603 20.801768 14.398942 8.747221 24.226774 15.421224 29.456892 20.019962 5.260817 4.660136 9.680477 11.213389 13.256932 19.689435 3.607154 8.504698 5.438872 19.086707 5.438872 31.710212C800.922319 802.206568 796.052404 818.107723 786.314623 829.649594z" p-id="5104"></path></svg>