<?xml version="1.0" standalone="no"?><!DOCTYPE svg PUBLIC "-//W3C//DTD SVG 1.1//EN" "http://www.w3.org/Graphics/SVG/1.1/DTD/svg11.dtd"><svg t="1563326782511" class="icon" viewBox="0 0 1024 1024" version="1.1" xmlns="http://www.w3.org/2000/svg" p-id="1184" xmlns:xlink="http://www.w3.org/1999/xlink" width="400" height="400"><defs><style type="text/css"></style></defs><path d="M883.274379 1023.956599H140.642184A107.41714 107.41714 0 0 1 34.570471 915.497838V217.004323a107.460541 107.460541 0 0 1 106.071713-108.502161h53.079257V54.251081a53.035857 53.035857 0 1 1 106.071714 0V108.502162h424.417055V54.251081a53.035857 53.035857 0 1 1 106.071713 0V108.502162h52.992456A107.460541 107.460541 0 0 1 989.389493 217.004323v698.493515a107.460541 107.460541 0 0 1-106.115114 108.458761zM373.401021 628.227515c-76.602526 0-219.521573 38.539968-219.521573 112.234636v56.20412a18.532169 18.532169 0 0 0 18.315165 18.662372h402.412816a18.488768 18.488768 0 0 0 18.271764-18.662372V740.418751c0.043401-73.651267-142.875646-112.191235-219.478172-112.191236z m0-262.011019h-6.51013a113.276257 113.276257 0 0 0-74.432482 188.837162 108.502162 108.502162 0 0 0 80.117996 35.63211h1.562431a112.321438 112.321438 0 0 0-0.737815-224.599475z m365.652285 149.776384v37.454946h146.260913v-37.454946z m-146.304315-74.823091v37.411545h292.565228v-37.411545z m0-74.866492v37.324744h292.565228v-37.324744z" p-id="1185"></path></svg>