<?xml version="1.0" standalone="no"?><!DOCTYPE svg PUBLIC "-//W3C//DTD SVG 1.1//EN" "http://www.w3.org/Graphics/SVG/1.1/DTD/svg11.dtd"><svg t="1562984220801" class="icon" viewBox="0 0 4040 1024" version="1.1" xmlns="http://www.w3.org/2000/svg" p-id="5025" xmlns:xlink="http://www.w3.org/1999/xlink" width="1578.125" height="400"><defs><style type="text/css"></style></defs><path d="M3748.70999572 45.15924373a35.03347947 35.03347947 0 0 0-39.81077227-11.14701654 36.6259104 36.6259104 0 0 0-36.6259104-21.49781653 45.38428053 45.38428053 0 0 0-39.81077227 53.3464352 182.3333376 182.3333376 0 0 0 28.66375574 79.62154453v7.1659392h7.96215466a222.14411093 222.14411093 0 0 0 33.44104854-20.70160106 115.45124053 115.45124053 0 0 0 48.5691424-39.81077334 42.19941867 42.19941867 0 0 0 0-50.9577888zM3751.09864212 896.31355946a115.45124053 115.45124053 0 0 0-43.7918496-35.82969493 221.34789547 221.34789547 0 0 0-32.64483307-12.73944747h-7.96215467v7.1659392a182.3333376 182.3333376 0 0 0-28.66375573 79.62154453 45.38428053 45.38428053 0 0 0 39.81077227 53.3464352 36.6259104 36.6259104 0 0 0 37.42212586-24.6826784 35.03347947 35.03347947 0 0 0 39.81077227-11.14701653 42.19941867 42.19941867 0 0 0 0-50.9577888zM3919.10010238 467.94964799a27.86754027 27.86754027 0 0 0-35.03347946-16.7205248s6.36972373-31.8486176-17.51674027-38.21834133c0 0-30.25618667-8.75837013-42.19941867 28.66375573a171.9825376 171.9825376 0 0 0 0 79.6215456 179.9446912 179.9446912 0 0 0 33.44104854 0 98.73071573 98.73071573 0 0 0 47.77292693-15.12809386 31.05240213 31.05240213 0 0 0 13.53566293-38.21834134zM339.31544105 846.94820159h-7.96215467a221.34789547 221.34789547 0 0 0-32.64483306 12.73944747 115.45124053 115.45124053 0 0 0-43.7918496 35.82969493 42.19941867 42.19941867 0 0 0 0 50.9577888 35.03347947 35.03347947 0 0 0 39.81077226 11.14701654 36.6259104 36.6259104 0 0 0 36.6259104 24.6826784 45.38428053 45.38428053 0 0 0 39.81077227-53.3464352 182.3333376 182.3333376 0 0 0-28.66375573-79.62154454zM332.94571732 12.51441066a36.6259104 36.6259104 0 0 0-36.6259104 24.6826784 38.21834133 38.21834133 0 0 0-19.1091712 0 36.6259104 36.6259104 0 0 0-17.5167392 8.75837013 38.21834133 38.21834133 0 0 0-10.35080107 16.7205248 46.180496 46.180496 0 0 0 5.57350827 37.42212587 115.45124053 115.45124053 0 0 0 43.7918496 35.82969493 222.14411093 222.14411093 0 0 0 32.64483306 12.73944747h7.96215467v-7.1659392a182.3333376 182.3333376 0 0 0 28.66375573-79.62154453 45.38428053 45.38428053 0 0 0-35.03347946-49.36535787zM134.68807038 402.65998079a36.6259104 36.6259104 0 0 0-26.27510933 36.6259104 35.03347947 35.03347947 0 0 0-34.23726507 25.47889494 42.99563413 42.99563413 0 0 0 16.7205248 46.97671146 105.89665493 105.89665493 0 0 0 51.75400427 16.7205248h45.38428053v-7.96215466a187.1106304 187.1106304 0 0 0 0-79.6215456 45.38428053 45.38428053 0 0 0-53.3464352-38.21834134zM2480.33878505 861.28007999l-101.11936213-246.82678933a37.42212587 37.42212587 0 0 0-8.75837014-13.53566293 51.75400427 51.75400427 0 0 0-13.53566293-9.5545856 39.0145568 39.0145568 0 0 0-17.5167392 0 47.77292693 47.77292693 0 0 0-15.92430933 3.98107733 39.81077227 39.81077227 0 0 0-21.49781654 21.4978176 42.19941867 42.19941867 0 0 0 0 31.05240213l100.32314667 246.82678934a43.7918496 43.7918496 0 0 0 23.09024747 23.09024853 41.4032032 41.4032032 0 0 0 31.8486176 0 42.19941867 42.19941867 0 0 0 21.4978176-22.29403307 40.60698773 40.60698773 0 0 0 0-31.05240213zM1823.46103892 611.26842879a41.4032032 41.4032032 0 0 0-25.47889387-19.1091712 42.19941867 42.19941867 0 0 0-29.45997227 3.98107734 40.60698773 40.60698773 0 0 0-19.10917013 23.886464q-9.5545856 35.03347947-20.70160213 68.474528c-7.1659392 21.4978176-15.12809387 42.99563413-23.88646294 62.9010208a543.01893653 543.01893653 0 0 1-24.68267946 54.14265066c-8.75837013 16.7205248-18.31295573 32.64483307-27.0713248 47.77292694a40.60698773 40.60698773 0 0 0 6.36972266 53.3464352h4.7772928a44.58806507 44.58806507 0 0 0 15.12809387 7.96215466 46.97671147 46.97671147 0 0 0 17.51674027 0 43.7918496 43.7918496 0 0 0 15.92430826-7.1659392 39.81077227 39.81077227 0 0 0 11.14701654-12.73944746 608.30860373 608.30860373 0 0 0 31.84861866-54.14265067c10.35080107-19.1091712 19.1091712-39.0145568 27.86754027-60.5123744 9.5545856-22.29403307 18.31295573-45.38428053 26.27510933-70.06695893s15.92430933-49.36535787 23.09024854-74.8442528a43.7918496 43.7918496 0 0 0-5.57350827-31.8486176z" fill="" p-id="5026"></path><path d="M2461.22961385 538.01660693a42.19941867 42.19941867 0 0 0 12.73944747-30.25618667 42.19941867 42.19941867 0 0 0-12.73944747-30.25618667 42.19941867 42.19941867 0 0 0-32.64483307-13.53566293h-297.78457813V362.84920853a42.99563413 42.99563413 0 0 0-12.73944747-31.8486176 42.19941867 42.19941867 0 0 0-30.25618666-12.73944747 42.19941867 42.19941867 0 0 0-30.25618774 12.73944747 42.99563413 42.99563413 0 0 0-12.7394464 30.25618666V462.37613973h-249.21543573l58.91994347-207.81223254h574.07133866a42.19941867 42.19941867 0 0 0 30.25618667-12.73944746 42.19941867 42.19941867 0 0 0 12.73944747-30.25618667 42.19941867 42.19941867 0 0 0-11.943232-30.25618667 42.99563413 42.99563413 0 0 0-31.05240214-9.5545856h-727.74092053a42.99563413 42.99563413 0 0 0-30.25618773 12.7394464 42.19941867 42.19941867 0 0 0-11.943232 30.25618774 42.19941867 42.19941867 0 0 0 12.73944746 30.25618666 42.19941867 42.19941867 0 0 0 30.25618774 12.73944747h64.49345066l-66.88209706 238.86463467a39.81077227 39.81077227 0 0 0 0 19.90538666 43.7918496 43.7918496 0 0 0 8.75836906 18.31295467 42.99563413 42.99563413 0 0 0 14.3318784 11.943232 39.81077227 39.81077227 0 0 0 18.31295574 4.7772928h305.7467328v250.0116512a40.60698773 40.60698773 0 0 1 0 15.92430933 44.58806507 44.58806507 0 0 1-9.5545856 14.33187734 37.42212587 37.42212587 0 0 1-12.73944747 9.5545856 42.19941867 42.19941867 0 0 1-16.7205248 0h-54.93886507a42.19941867 42.19941867 0 0 0-30.25618773 12.73944746 42.19941867 42.19941867 0 0 0-12.73944747 30.25618667 42.99563413 42.99563413 0 0 0 42.19941974 42.19941973h54.93886506a144.11499627 144.11499627 0 0 0 26.2751104 0 112.26637867 112.26637867 0 0 0 23.88646294-7.1659392 133.7641952 133.7641952 0 0 0 41.40320426-27.86754133 132.17176427 132.17176427 0 0 0 27.86754027-41.4032032 122.61717973 122.61717973 0 0 0 7.96215467-24.6826784 125.00582507 125.00582507 0 0 0 0-25.47889493V550.75605439h294.59971626a42.19941867 42.19941867 0 0 0 32.64483307-12.73944746zM1484.27325758 880.38925013l-65.2896672-183.12955307a41.4032032 41.4032032 0 0 0-20.70160106-23.88646293 42.99563413 42.99563413 0 0 0-31.84861867 0 42.99563413 42.99563413 0 0 0-22.294032 20.70160106 42.19941867 42.19941867 0 0 0 0 31.84861867l65.2896672 182.3333376a42.19941867 42.19941867 0 0 0 21.49781653 23.09024747 40.60698773 40.60698773 0 0 0 29.4599712 0 42.99563413 42.99563413 0 0 0 23.886464-21.49781654 41.4032032 41.4032032 0 0 0 0-31.84861866zM824.21064958 694.07483519V685.31646506l-6.36972373-7.9621536-7.16593813-6.36972373-7.96215467-4.7772928h-7.96215467a49.36535787 49.36535787 0 0 0-19.1091712 0 49.36535787 49.36535787 0 0 0-18.31295466 5.57350826 52.55021973 52.55021973 0 0 0-15.12809387 11.94323094 54.93886613 54.93886613 0 0 0-9.5545856 16.7205248 745.5761472 745.5761472 0 0 1-34.237264 91.56477653q-9.5545856 20.70160213-19.90538667 39.81077227c-7.1659392 13.53566293-15.12809387 27.0713248-23.88646293 39.81077333a50.16157333 50.16157333 0 0 0-7.1659392 17.5167392 52.55021973 52.55021973 0 0 0 0 19.1091712 50.9577888 50.9577888 0 0 0 6.36972373 17.51674027 48.5691424 48.5691424 0 0 0 11.94323094 12.7394464l9.5545856 4.7772928h38.2183424l9.55458453-4.7772928a405.273664 405.273664 0 0 0 65.2896672-109.0815168c7.96215467-15.92430933 15.12809387-33.44104853 21.4978176-50.16157334s12.73944747-35.03347947 17.5167392-51.7540032a49.36535787 49.36535787 0 0 0 0-9.5545856 47.77292693 47.77292693 0 0 0 0-9.5545856 49.36535787 49.36535787 0 0 0 0-9.5545856zM1446.05491625 171.75750079h-318.48618027a13.53566293 13.53566293 0 0 1-6.36972373-3.98107733 19.1091712 19.1091712 0 0 1 0-6.36972373 27.0713248 27.0713248 0 0 1 0-7.1659392v-35.82969494a42.19941867 42.19941867 0 0 0-12.7394464-30.25618773 42.19941867 42.19941867 0 0 0-30.25618773-12.7394464 42.19941867 42.19941867 0 0 0-30.25618667 11.94323093 42.99563413 42.99563413 0 0 0-12.73944747 30.25618774v42.19941866l-5.57350826 7.1659392a13.53566293 13.53566293 0 0 1-6.36972374 3.98107734H685.66916158a41.4032032 41.4032032 0 0 0-29.4599712 12.7394464 42.99563413 42.99563413 0 0 0-11.943232 29.45997226 41.4032032 41.4032032 0 0 0 11.943232 29.4599712 41.4032032 41.4032032 0 0 0 29.4599712 11.943232h761.18197014a42.99563413 42.99563413 0 0 0 26.27510933-3.18486186 40.60698773 40.60698773 0 0 0 12.73944747-29.4599712 42.19941867 42.19941867 0 0 0-12.73944747-36.62591147 42.99563413 42.99563413 0 0 0-27.0713248-13.53566187z" fill="" p-id="5027"></path><path d="M1410.22522025 600.12141226a79.62154453 79.62154453 0 0 0 29.45997227-21.49781653 86.78748373 86.78748373 0 0 0 21.49781653-30.25618774 93.95342293 93.95342293 0 0 0 7.1659392-36.6259104V405.04862719a94.7496384 94.7496384 0 0 0-7.1659392-35.82969493 87.5836992 87.5836992 0 0 0-21.49781653-30.25618773 87.5836992 87.5836992 0 0 0-29.45997227-20.70160107 93.95342293 93.95342293 0 0 0-36.6259104-7.1659392H763.69827625a92.360992 92.360992 0 0 0-35.829696 7.1659392 95.54585387 95.54585387 0 0 0-30.25618667 20.70160107 94.7496384 94.7496384 0 0 0-20.70160213 31.0524032 92.360992 92.360992 0 0 0-7.1659392 35.82969493v106.6928704a92.360992 92.360992 0 0 0 7.1659392 36.6259104 94.7496384 94.7496384 0 0 0 20.70160213 30.25618773 88.37991467 88.37991467 0 0 0 30.25618667 21.49781654 94.7496384 94.7496384 0 0 0 35.829696 6.36972373h271.50946773v207.01601707a48.5691424 48.5691424 0 0 1 0 17.5167392 57.32751253 57.32751253 0 0 1-9.5545856 16.7205248 39.81077227 39.81077227 0 0 1-30.25618666 13.53566293h-19.1091712a42.99563413 42.99563413 0 0 0-29.4599712 11.943232 41.4032032 41.4032032 0 0 0-12.73944747 29.4599712 42.19941867 42.19941867 0 0 0 12.73944747 30.25618667 42.19941867 42.19941867 0 0 0 30.25618666 12.73944746h18.31295574a122.61717973 122.61717973 0 0 0 26.27510933 0l23.886464-7.1659392a147.29985813 147.29985813 0 0 0 40.60698773-29.4599712 135.35662613 135.35662613 0 0 0 27.0713248-41.4032032 168.79767573 168.79767573 0 0 0 7.1659392-24.68267946 129.78311787 129.78311787 0 0 0 0-26.27510934V606.49113599h252.4002976a96.34206933 96.34206933 0 0 0 37.42212587-6.36972373z m-646.526944-79.62154453a8.75837013 8.75837013 0 0 1-6.36972373 0 8.75837013 8.75837013 0 0 1 0-6.36972374V405.04862719a8.75837013 8.75837013 0 0 1 0-6.36972373 8.75837013 8.75837013 0 0 1 6.36972373 0h609.9010336a8.75837013 8.75837013 0 0 1 6.36972373 0 8.75837013 8.75837013 0 0 1 0 6.36972373v106.6928704a8.75837013 8.75837013 0 0 1 0 6.36972374 8.75837013 8.75837013 0 0 1-6.36972373 0zM1791.61242132 115.22620373a93.95342293 93.95342293 0 0 0 35.03347946 31.8486176 139.33770347 139.33770347 0 0 0 27.86754134 11.943232h7.9621536l3.98107733-6.36972374a159.24309013 159.24309013 0 0 0 23.886464-60.5123744 39.81077227 39.81077227 0 0 0-31.84861867-48.5691424 31.05240213 31.05240213 0 0 0-33.44104853 18.31295574 30.25618667 30.25618667 0 0 0-33.44104853 8.75837013 36.6259104 36.6259104 0 0 0 0 43.7918496zM3463.66486505 598.52898133a43.7918496 43.7918496 0 0 0-6.36972373-14.3318784 44.58806507 44.58806507 0 0 0-14.33187734-14.33187734l-138.54148906-85.99126933h103.50800853a42.19941867 42.19941867 0 0 0 29.45997227-11.94323093 41.4032032 41.4032032 0 0 0 11.94323093-29.45997227 41.4032032 41.4032032 0 0 0-8.75836907-31.8486176 41.4032032 41.4032032 0 0 0-29.45997226-11.943232h-454.63902187l18.31295573-33.44104853c8.75837013-17.51674027 16.7205248-35.82969493 24.6826784-54.14265067h404.47744854a42.19941867 42.19941867 0 0 0 29.45997226-11.943232 42.19941867 42.19941867 0 0 0 11.943232-29.4599712 42.19941867 42.19941867 0 0 0-11.943232-29.45997227 42.19941867 42.19941867 0 0 0-29.45997226-11.94323093h-374.2212608c7.1659392-21.4978176 14.3318784-42.99563413 20.70160106-66.88209813a42.19941867 42.19941867 0 0 0 0-31.8486176 41.4032032 41.4032032 0 0 0-24.6826784-19.1091712 40.60698773 40.60698773 0 0 0-31.05240213 0 44.58806507 44.58806507 0 0 0-19.90538667 24.6826784c-4.7772928 17.51674027-9.5545856 34.237264-14.3318784 50.9577888s-8.75837013 27.0713248-12.7394464 39.81077333h-209.40466346a23.886464 23.886464 0 0 1-7.96215467-5.57350827 27.0713248 27.0713248 0 0 1-5.57350827-7.96215466 20.70160213 20.70160213 0 0 1 0-7.96215467v-25.47889387a41.4032032 41.4032032 0 0 0-12.73944746-29.45997226 42.19941867 42.19941867 0 0 0-29.4599712-11.943232 41.4032032 41.4032032 0 0 0-29.45997227 11.943232 41.4032032 41.4032032 0 0 0-11.94323093 29.45997226v25.47889387a107.48908587 107.48908587 0 0 0 32.64483306 79.62154453 109.0815168 109.0815168 0 0 0 79.62154454 31.84861867h159.24309013c-6.36972373 13.53566293-12.73944747 27.0713248-19.9053856 39.81077227s-18.31295573 32.64483307-28.6637568 48.5691424h-196.665216a41.4032032 41.4032032 0 0 0-29.4599712 11.943232 41.4032032 41.4032032 0 0 0-11.943232 29.4599712 41.4032032 41.4032032 0 0 0 11.943232 29.45997226 42.19941867 42.19941867 0 0 0 29.4599712 11.94323094h116.247456l-23.886464 19.90538666a477.72926933 477.72926933 0 0 1-50.16157333 35.03347947 664.8399008 664.8399008 0 0 1-60.51237334 31.84861867 43.7918496 43.7918496 0 0 0-20.70160213 22.294032 41.4032032 41.4032032 0 0 0 0 30.25618773 42.99563413 42.99563413 0 0 0 9.5545856 13.53566187 38.21834133 38.21834133 0 0 0 14.33187733 8.75837013 37.42212587 37.42212587 0 0 0 15.92430934 0 52.55021973 52.55021973 0 0 0 15.12809386 0l27.86754027-15.12809387a39.0145568 39.0145568 0 0 0 0 15.12809387 42.19941867 42.19941867 0 0 0 11.943232 29.45997227 40.60698773 40.60698773 0 0 0 23.886464 15.92430826h79.62154453a337.5953504 337.5953504 0 0 1-58.123728 88.37991467 405.273664 405.273664 0 0 1-101.11936213 79.6215456 41.4032032 41.4032032 0 0 0-19.10917013 24.6826784 39.81077227 39.81077227 0 0 0 0 30.25618773 41.4032032 41.4032032 0 0 0 10.3508 12.7394464 43.7918496 43.7918496 0 0 0 14.3318784 7.96215467 42.99563413 42.99563413 0 0 0 15.92430933 0 39.81077227 39.81077227 0 0 0 15.1280928-5.57350827 491.26493227 491.26493227 0 0 0 127.39447253-99.5269312 414.8282496 414.8282496 0 0 0 79.62154454-138.541488h382.18341653l7.9621536 4.7772928a23.09024853 23.09024853 0 0 1 5.57350827 7.96215467 27.86754027 27.86754027 0 0 1 0 9.5545856v119.4323168a29.4599712 29.4599712 0 0 1 0 10.35080107 19.90538667 19.90538667 0 0 1-4.7772928 7.1659392l-7.9621536 5.57350826h-82.010192a41.4032032 41.4032032 0 0 0-29.4599712 12.73944747 42.19941867 42.19941867 0 0 0-12.73944747 29.4599712 41.4032032 41.4032032 0 0 0 11.943232 29.4599712 41.4032032 41.4032032 0 0 0 29.4599712 11.943232h72.4556064a105.10043947 105.10043947 0 0 0 41.4032032-8.75837013 113.8588096 113.8588096 0 0 0 35.82969493-23.88646294 113.06259413 113.06259413 0 0 0 23.886464-35.82969493 105.89665493 105.89665493 0 0 0 8.75837014-41.40320427V718.75751466a106.6928704 106.6928704 0 0 0-9.5545856-60.5123744 107.48908587 107.48908587 0 0 0-49.36535787-39.0145568 79.62154453 79.62154453 0 0 0-20.70160213-7.1659392 109.0815168 109.0815168 0 0 0-21.49781654 0h-537.44542933c19.1091712-11.943232 37.42212587-23.886464 54.14265067-36.6259104 17.51674027-14.3318784 35.03347947-29.4599712 50.9577888-45.3842816a582.8297088 582.8297088 0 0 0 39.81077226-42.99563413h253.99272854l238.86463573 159.24309013a42.99563413 42.99563413 0 0 0 31.8486176 5.57350827 40.60698773 40.60698773 0 0 0 25.47889387-17.51674027 52.55021973 52.55021973 0 0 0 13.53566293-19.9053856 40.60698773 40.60698773 0 0 0 0-15.92430933z" fill="" p-id="5028"></path><path d="M3271.77694185 198.03261013h7.1659392a206.2198016 206.2198016 0 0 0 31.05240213-11.943232 107.48908587 107.48908587 0 0 0 40.60698774-33.44104854 39.81077227 39.81077227 0 0 0 0-47.77292693 32.64483307 32.64483307 0 0 0-37.42212587-12.73944747 34.237264 34.237264 0 0 0-34.237264-23.09024746 42.99563413 42.99563413 0 0 0-36.6259104 49.36535786 169.5938912 169.5938912 0 0 0 27.0713248 71.65938987z" fill="" p-id="5029"></path></svg>