<?xml version="1.0" standalone="no"?><!DOCTYPE svg PUBLIC "-//W3C//DTD SVG 1.1//EN" "http://www.w3.org/Graphics/SVG/1.1/DTD/svg11.dtd"><svg t="1560486391200" class="icon" style="" viewBox="0 0 1024 1024" version="1.1" xmlns="http://www.w3.org/2000/svg" p-id="2179" xmlns:xlink="http://www.w3.org/1999/xlink" width="400" height="400"><defs><style type="text/css"></style></defs><path d="M833.284713 360.875163h-64.950231c29.312745-32.840005 34.54282-77.842974 34.542819-124.670388 0-15.446965-7.905927-40.745932-18.122817-61.909491-2.554223-5.959853-7.784297-8.878964-10.21689 0.729778-21.528448 82.100012-62.517639 129.900463-138.292909 135.981946H386.782278c-75.77527-6.081482-116.764461-53.881934-138.292909-135.981946-2.432593-9.608742-7.662668-6.689631-10.21689-0.729778-10.095261 21.285188-18.122817 46.462525-18.122818 61.909491 0 46.705785 5.230075 91.708754 34.54282 124.670388H189.74225c-23.961041 0-30.285782 14.717187-13.86578 32.718375l21.041929 23.109633c16.420002 18.001188 49.381637 32.718375 73.464307 32.718376h10.825038c0.364889 2.554223 0.973037 4.986816 1.824445 6.932889l113.237202 251.286852c3.40563 7.419408 2.189334 18.852595-2.675853 25.420596l-24.934077 33.813042c-4.865186 6.568001-4.378667 16.784891 1.094667 22.866373l51.6926 57.652453c5.351704 6.081482 16.420002 10.946668 24.447559 10.946668h131.481648c8.027557 0 18.974225-4.986816 24.32593-10.946668l51.6926-57.652453c5.351704-6.081482 5.838223-16.298373 1.094667-22.866373l-24.934078-33.813042c-4.865186-6.568001-5.959853-18.001188-2.675852-25.420596l113.237201-251.286852c0.973037-2.067704 1.581185-4.500297 1.824445-6.932889h10.825039c23.961041 0 57.044305-14.717187 73.464307-32.718376l21.041929-23.109633c16.298373-18.001188 9.973631-32.718375-13.98741-32.718375z m-516.561112-19.460743c-1.946074 9.365483-8.878964 15.203706-20.43378 14.230668-31.988597-2.189334-57.165934-76.991567-57.895712-97.425347-0.243259-10.33852 0-21.771707 2.432593-31.502079 1.337926-4.986816 6.081482-4.135408 6.68963-0.608148 9.487112 56.557786 49.260007 88.424754 57.409194 91.952013 8.149186 3.52726 13.74415 13.86578 11.798075 23.352893z m297.749377 449.786435l-33.326524 37.218672c-5.351704 6.081482-16.420002 10.946668-24.325929 10.946669h-90.249198c-8.027557 0-18.974225-4.986816-24.447559-10.946669l-33.326524-37.218672c-5.351704-6.081482-5.838223-16.298373-1.094666-22.866373l19.339113-26.272004c4.865186-6.568001 15.325336-11.919705 23.352893-11.919706h122.602684c8.027557 0 18.487706 5.351704 23.352892 11.919706l19.339114 26.272004c4.621927 6.568001 4.135408 16.784891-1.216296 22.866373z m112.264164-435.555767c-11.554816 0.973037-18.487706-4.865186-20.433781-14.230668-1.946074-9.365483 3.648889-19.704003 11.919706-23.352893 8.149186-3.52726 47.800451-35.394227 57.409193-91.952013 0.608148-3.52726 5.351704-4.500297 6.689631 0.608148 2.432593 9.730372 2.675852 21.163559 2.432593 31.502079-0.851408 20.433781-26.028745 95.236014-58.017342 97.425347zM475.207032 534.31904c-8.635705 15.690224-75.410381 2.919112-101.317496-10.946668-25.907115-13.86578-16.784891-36.732153-7.17615-52.787267s21.285188-26.636893 48.28697-15.690224c26.880152 11.068298 68.96401 63.855565 60.206676 79.424159z m136.711723-79.30253c26.880152-10.946668 38.678228-0.364889 48.28697 15.690225 9.608742 16.055113 18.609336 38.921487-7.176149 52.787267-25.907115 13.86578-92.560162 26.515263-101.317496 10.946668-8.757335-15.690224 33.204894-68.477491 60.206675-79.42416z" fill="" p-id="2180"></path><path d="M477.517995 783.659817c-10.581779-2.067704-21.285188-8.392446-17.636299-20.433781 0.608148-1.824445 1.581185-3.40563 1.581186-3.40563 2.067704-3.162371-3.162371-1.824445-6.811261 1.337926 0 0-3.40563 2.919112-5.473334 9.730372-3.648889 12.041335 7.297779 24.812448 17.879558 27.001782 7.541038 1.459556 17.14978 1.216296 19.339114 0.608148 6.81126-2.310963 6.203112-14.352298 0.486519-14.352298-2.067704 0-8.270816-0.243259-9.365483-0.486519zM545.265709 783.659817c10.581779-2.067704 21.285188-8.392446 17.636298-20.433781-0.608148-1.824445-1.581185-3.40563-1.581185-3.40563-2.067704-3.162371 3.162371-1.824445 6.81126 1.337926 0 0 3.40563 2.919112 5.473334 9.730372 3.648889 12.041335-7.297779 24.812448-17.879558 27.001782-7.541038 1.459556-17.14978 1.216296-19.339114 0.608148-6.81126-2.310963-6.203112-14.352298-0.486518-14.352298 1.946074 0 8.270816-0.243259 9.365483-0.486519z" fill="" p-id="2181"></path></svg>