<?xml version="1.0" standalone="no"?><!DOCTYPE svg PUBLIC "-//W3C//DTD SVG 1.1//EN" "http://www.w3.org/Graphics/SVG/1.1/DTD/svg11.dtd"><svg t="1557916483442" class="icon" style="" viewBox="0 0 1024 1024" version="1.1" xmlns="http://www.w3.org/2000/svg" p-id="7550" xmlns:xlink="http://www.w3.org/1999/xlink" width="200" height="200"><defs><style type="text/css"></style></defs><path d="M358.371301 341.326667l341.326667 0c9.437797 0 17.065633-7.645836 17.065633-17.065633 0-9.419798-7.627836-17.065633-17.065633-17.065633L358.371301 307.1954c-9.419798 0-17.065633 7.645836-17.065633 17.065633C341.305667 333.680831 348.951503 341.326667 358.371301 341.326667z" p-id="7551"></path><path d="M969.498171 702.978897l-34.133267-34.133267c-26.247436-26.231436-66.182578-26.179438-92.396015 0L619.365693 892.448826c-3.207931 3.191931-4.999893 7.543838-4.999893 12.065741l0 102.3978c0 9.419798 7.627836 17.065633 17.065633 17.065633l102.3978 0c4.539902 0 8.873809-1.791962 12.065741-4.999893l223.603196-223.603196C996.685587 768.187496 996.685587 730.182312 969.498171 702.978897zM820.901363 739.176119l27.067418 27.067418-148.272814 148.272814-27.067418-27.067418L820.901363 739.176119zM648.499067 989.844734l0-78.266318 78.266318 78.266318L648.499067 989.844734zM750.896867 965.713252l-27.067418-27.067418 148.272814-148.272814 27.049419 27.067418L750.896867 965.713252zM945.366689 771.24343l-22.067526 22.067526-78.266318-78.266318 22.067526-22.067526c13.51571-13.49971 30.583343-13.533709 44.133052 0l34.133267 34.133267C959.172393 740.934081 959.172393 757.435727 945.366689 771.24343z" p-id="7552"></path><path d="M631.431434 102.3978l34.133267 0c9.437797 0 17.065633-7.645836 17.065633-17.065633 0-9.419798-7.627836-17.065633-17.065633-17.065633l-34.133267 0c-9.437797 0-17.065633 7.645836-17.065633 17.065633C614.365801 94.751964 621.993637 102.3978 631.431434 102.3978z" p-id="7553"></path><path d="M733.829234 204.7956c28.227394 0 51.1989-22.971506 51.1989-51.1989 0-22.219523-14.317692-40.97712-34.133267-48.058967L750.894867 17.065633c0-9.419798-7.627836-17.065633-17.065633-17.065633s-17.065633 7.645836-17.065633 17.065633L716.763601 105.537733c-19.813574 7.081848-34.133267 25.837445-34.133267 48.058967C682.630334 181.824094 705.601841 204.7956 733.829234 204.7956zM733.829234 136.531067c9.419798 0 17.065633 7.661835 17.065633 17.065633 0 9.403798-7.645836 17.065633-17.065633 17.065633s-17.065633-7.661835-17.065633-17.065633C716.763601 144.192902 724.409437 136.531067 733.829234 136.531067z" p-id="7554"></path><path d="M358.371301 443.724467l307.1934 0c9.437797 0 17.065633-7.645836 17.065633-17.065633 0-9.419798-7.627836-17.065633-17.065633-17.065633l-307.1934 0c-9.419798 0-17.065633 7.645836-17.065633 17.065633C341.305667 436.078631 348.951503 443.724467 358.371301 443.724467z" p-id="7555"></path><path d="M802.095767 102.3978l34.133267 0c24.883465 0 51.1989 26.315435 51.1989 51.1989l0 442.306497c0 9.419798 7.627836 17.065633 17.065633 17.065633s17.065633-7.645836 17.065633-17.065633L921.559201 153.5967c0-43.861058-41.471109-85.332167-85.332167-85.332167l-34.133267 0c-9.437797 0-17.065633 7.645836-17.065633 17.065633C785.028134 94.751964 792.65797 102.3978 802.095767 102.3978z" p-id="7556"></path><path d="M563.166901 204.7956c28.227394 0 51.1989-22.971506 51.1989-51.1989 0-22.219523-14.317692-40.97712-34.133267-48.058967L580.232534 17.065633c0-9.419798-7.627836-17.065633-17.065633-17.065633-9.437797 0-17.065633 7.645836-17.065633 17.065633L546.101267 105.537733c-19.813574 7.081848-34.133267 25.837445-34.133267 48.058967C511.968001 181.824094 534.939507 204.7956 563.166901 204.7956zM563.166901 136.531067c9.419798 0 17.065633 7.661835 17.065633 17.065633 0 9.403798-7.645836 17.065633-17.065633 17.065633s-17.065633-7.661835-17.065633-17.065633C546.101267 144.192902 553.747103 136.531067 563.166901 136.531067z" p-id="7557"></path><path d="M750.896867 529.054634c0-9.419798-7.627836-17.065633-17.065633-17.065633L358.371301 511.989c-9.419798 0-17.065633 7.645836-17.065633 17.065633 0 9.419798 7.645836 17.065633 17.065633 17.065633l375.457934 0C743.267031 546.122267 750.896867 538.476431 750.896867 529.054634z" p-id="7558"></path><path d="M358.371301 614.3868c-9.419798 0-17.065633 7.645836-17.065633 17.065633s7.645836 17.065633 17.065633 17.065633l341.326667 0c9.437797 0 17.065633-7.645836 17.065633-17.065633s-7.627836-17.065633-17.065633-17.065633L358.371301 614.3868z" p-id="7559"></path><path d="M563.166901 887.446934c9.437797 0 17.065633-7.645836 17.065633-17.065633s-7.627836-17.065633-17.065633-17.065633L68.243534 853.315667 68.243534 153.5967c0-24.883465 26.315435-51.1989 51.1989-51.1989l34.133267 0c9.419798 0 17.065633-7.645836 17.065633-17.065633 0-9.419798-7.645836-17.065633-17.065633-17.065633L119.442434 68.266533c-43.861058 0-85.332167 41.471109-85.332167 85.332167l0 785.049134c0 43.861058 41.471109 85.332167 85.332167 85.332167l443.724467 0c9.437797 0 17.065633-7.645836 17.065633-17.065633s-7.627836-17.065633-17.065633-17.065633L119.442434 989.848734c-19.147589 0-39.013162-15.615665-47.222985-34.133267l490.945452 0c9.437797 0 17.065633-7.645836 17.065633-17.065633s-7.627836-17.065633-17.065633-17.065633L68.243534 921.5842l0-34.133267L563.166901 887.450934z" p-id="7560"></path><path d="M255.973501 409.5912l-34.133267 0c-9.419798 0-17.065633 7.645836-17.065633 17.065633 0 9.419798 7.645836 17.065633 17.065633 17.065633l34.133267 0c9.419798 0 17.065633-7.645836 17.065633-17.065633C273.039134 417.237036 265.393298 409.5912 255.973501 409.5912z" p-id="7561"></path><path d="M255.973501 716.7846l-34.133267 0c-9.419798 0-17.065633 7.645836-17.065633 17.065633s7.645836 17.065633 17.065633 17.065633l34.133267 0c9.419798 0 17.065633-7.645836 17.065633-17.065633S265.393298 716.7846 255.973501 716.7846z" p-id="7562"></path><path d="M460.769101 102.3978l34.133267 0c9.437797 0 17.065633-7.645836 17.065633-17.065633 0-9.419798-7.627836-17.065633-17.065633-17.065633l-34.133267 0c-9.419798 0-17.065633 7.645836-17.065633 17.065633C443.703467 94.751964 451.349303 102.3978 460.769101 102.3978z" p-id="7563"></path><path d="M597.300167 716.7846 358.371301 716.7846c-9.419798 0-17.065633 7.645836-17.065633 17.065633s7.645836 17.065633 17.065633 17.065633l238.928867 0c9.437797 0 17.065633-7.645836 17.065633-17.065633S606.737965 716.7846 597.300167 716.7846z" p-id="7564"></path><path d="M255.973501 307.1934l-34.133267 0c-9.419798 0-17.065633 7.645836-17.065633 17.065633 0 9.419798 7.645836 17.065633 17.065633 17.065633l34.133267 0c9.419798 0 17.065633-7.645836 17.065633-17.065633C273.039134 314.839236 265.393298 307.1934 255.973501 307.1934z" p-id="7565"></path><path d="M255.973501 511.989l-34.133267 0c-9.419798 0-17.065633 7.645836-17.065633 17.065633 0 9.419798 7.645836 17.065633 17.065633 17.065633l34.133267 0c9.419798 0 17.065633-7.645836 17.065633-17.065633C273.039134 519.634836 265.393298 511.989 255.973501 511.989z" p-id="7566"></path><path d="M290.106767 102.3978l34.133267 0c9.419798 0 17.065633-7.645836 17.065633-17.065633 0-9.419798-7.645836-17.065633-17.065633-17.065633l-34.133267 0c-9.419798 0-17.065633 7.645836-17.065633 17.065633C273.039134 94.751964 280.68497 102.3978 290.106767 102.3978z" p-id="7567"></path><path d="M255.973501 614.3868l-34.133267 0c-9.419798 0-17.065633 7.645836-17.065633 17.065633s7.645836 17.065633 17.065633 17.065633l34.133267 0c9.419798 0 17.065633-7.645836 17.065633-17.065633S265.393298 614.3868 255.973501 614.3868z" p-id="7568"></path><path d="M392.504567 204.7956c28.227394 0 51.1989-22.971506 51.1989-51.1989 0-22.219523-14.301693-40.97712-34.133267-48.058967L409.570201 17.065633c0-9.419798-7.645836-17.065633-17.065633-17.065633s-17.065633 7.645836-17.065633 17.065633L375.438934 105.537733c-19.831574 7.081848-34.133267 25.837445-34.133267 48.058967C341.305667 181.824094 364.277174 204.7956 392.504567 204.7956zM392.504567 136.531067c9.403798 0 17.065633 7.661835 17.065633 17.065633 0 9.403798-7.661835 17.065633-17.065633 17.065633-9.403798 0-17.065633-7.661835-17.065633-17.065633C375.436934 144.192902 383.100769 136.531067 392.504567 136.531067z" p-id="7569"></path><path d="M221.840234 204.7956c28.227394 0 51.1989-22.971506 51.1989-51.1989 0-22.219523-14.301693-40.97712-34.133267-48.058967L238.905867 17.065633c0-9.419798-7.645836-17.065633-17.065633-17.065633-9.419798 0-17.065633 7.645836-17.065633 17.065633L204.774601 105.537733C184.943027 112.61958 170.641334 131.377177 170.641334 153.5967 170.641334 181.824094 193.61284 204.7956 221.840234 204.7956zM221.840234 136.531067c9.403798 0 17.065633 7.661835 17.065633 17.065633 0 9.403798-7.661835 17.065633-17.065633 17.065633-9.403798 0-17.065633-7.661835-17.065633-17.065633C204.774601 144.192902 212.436436 136.531067 221.840234 136.531067z" p-id="7570"></path></svg>