<?xml version="1.0" standalone="no"?><!DOCTYPE svg PUBLIC "-//W3C//DTD SVG 1.1//EN" "http://www.w3.org/Graphics/SVG/1.1/DTD/svg11.dtd"><svg t="1560313014758" class="icon" style="" viewBox="0 0 1024 1024" version="1.1" xmlns="http://www.w3.org/2000/svg" p-id="4531" xmlns:xlink="http://www.w3.org/1999/xlink" width="400" height="400"><defs><style type="text/css"></style></defs><path d="M742.648146 327.143799c22.819227 120.338163-50.959528 217.754772-50.959528 217.754772 63.443589-201.484561-187.977216-458.431098-285.803138-482.989907 121.566104 311.896872-13.405016 401.84351-13.405016 401.843509 11.460777-159.632257-90.867593-184.907365-90.867593-184.907364 59.65744 127.603478-50.754872 163.623064-97.109623 305.961826-57.815529 344.744279 353.135205 509.492955 570.889977 234.331968 159.325272-216.219846-32.745078-491.994804-32.745079-491.994804zM548.940542 491.687819C675.418407 683.655841 645.74318 801.12881 574.829619 849.632457c-53.824723 36.838213-106.012191 37.452183-149.092435-13.405016-32.64275-38.577796-27.833317-76.643949-10.949136-109.2867 27.424003-52.801439 148.376137-141.724793 134.152494-235.252922z m0 0" fill="" p-id="4532"></path></svg>