<?xml version="1.0" standalone="no"?><!DOCTYPE svg PUBLIC "-//W3C//DTD SVG 1.1//EN" "http://www.w3.org/Graphics/SVG/1.1/DTD/svg11.dtd"><svg t="1561777128428" class="icon" viewBox="0 0 1024 1024" version="1.1" xmlns="http://www.w3.org/2000/svg" p-id="7328" xmlns:xlink="http://www.w3.org/1999/xlink" width="400" height="400"><defs><style type="text/css"></style></defs><path d="M649.9 234c-12.3-12.7-32.6-13.1-45.3-0.8l-76.4 73.7-73.5-73.3c-12.5-12.5-32.8-12.5-45.4 0-12.5 12.5-12.5 32.8 0 45.3l72.5 72.3h-49.4c-17.7 0-32.1 14.4-32.1 32 0 17.7 14.4 32 32.1 32h63.9v32h-63.9c-17.7 0-32.1 14.4-32.1 32 0 17.7 14.4 32 32.1 32h63.9v65.7c0 17.7 14.4 32 32.1 32 17.7 0 32.1-14.3 32.1-32v-65.7h64.4c17.7 0 32.1-14.4 32.1-32 0-17.7-14.3-32-32.1-32h-64.4v-32h64.4c17.7 0 32.1-14.4 32.1-32 0-17.7-14.3-32-32.1-32h-50.5l74.6-72c12.8-12.2 13.2-32.5 0.9-45.2z" p-id="7329" fill="#8a8a8a"></path><path d="M925.7 738.2c-20.5-8.4-80.4-32.8-142-56.8 62.2-67.6 97.8-156.7 97.8-248.9C881.5 229.3 716 64 512.6 64c-203.4 0-368.8 165.3-368.8 368.4 0 16.2 1 32.4 3.1 48 2.3 17.5 18.5 29.7 36 27.6 17.6-2.3 30-18.4 27.6-35.9a304.3 304.3 0 0 1-2.6-39.7c0-167.8 136.7-304.4 304.7-304.4s304.7 136.5 304.7 304.4c0 84.8-34.2 163.6-96.3 221.7-0.8 0.7-1.1 1.8-1.8 2.5-42.9-16-79.5-28.5-94-30.7-25-3.9-48.8 7.6-63.2 28.9-12.1 17.8-15.1 38.9-8.1 56.3 4.3 10.7 20.6 32.9 39.9 57.3-46.5-0.1-117.6-6.3-193.3-35.5-31.3-12.1-69.6-52.7-103.4-88.5-48.1-51-93.5-99.2-142.9-99.2-18.4 0-35.8 6.9-50.4 19.8-18.3 16.2-35.2 48.4-12 109.4C134.5 786.8 300.8 960 434.2 960h479.2c17.7 0 32.1-14.3 32.1-32V767.8c0.1-13-7.8-24.7-19.8-29.6zM434.1 896h0.2c-97.8 0-247.6-152.3-282.5-244.2-10.1-26.7-6.7-37.5-5.4-38.7 4.1-3.7 6.5-3.7 7.9-3.7 21.7 0 64.7 45.7 96.2 79 40.3 42.8 82 87 126.9 104.4 85.4 32.9 165.3 39.9 217.2 39.9 41.5 0 67.7-4.4 68.8-4.5 11.4-2 20.8-9.8 24.7-20.6 4-10.8 1.9-22.9-5.5-31.7-27.1-32.1-58.7-71.9-67.4-85.4 0.3-0.6 0.5-1 0.4-1.2 22.9 3.5 162.8 58 265.9 100V896H434.3" p-id="7330" fill="#8a8a8a"></path></svg>