<?xml version="1.0" standalone="no"?><!DOCTYPE svg PUBLIC "-//W3C//DTD SVG 1.1//EN" "http://www.w3.org/Graphics/SVG/1.1/DTD/svg11.dtd"><svg t="1577170174263" class="icon" viewBox="0 0 1024 1024" version="1.1" xmlns="http://www.w3.org/2000/svg" p-id="10141" xmlns:xlink="http://www.w3.org/1999/xlink" width="400" height="400"><defs><style type="text/css"></style></defs><path d="M142.544 364.416 858 364.416 834.592 686.592 932.624 686.592 962.896 272.416 39.664 272.416 71.328 686.592 165.952 686.592Z" p-id="10142" fill="#dbdbdb"></path><path d="M762.608 683.84c0.704 0.256 0.864 0.816 0.496 1.584-0.336 0.784-1.04 1.168-2.112 1.168l-509.6 0-0.544 0c-1.424 0-2.144-0.528-2.144-1.568l0-0.816c6.4-9.424 30.4-46.032 72.032-109.808 41.616-63.808 67.216-102.912 76.832-117.312 0.352-0.512 0.992-0.848 1.856-0.976 0.896-0.128 1.52 0.064 1.872 0.592l165.952 151.424 81.104-47.856 3.728 0 0.544 0.784c13.872 13.072 31.904 33.36 54.128 60.768C729.04 649.328 747.648 669.968 762.608 683.84z" p-id="10143" fill="#dbdbdb"></path><path d="M758.736 431.136c11.984 9.632 17.968 21.232 17.968 34.736 0 13.52-5.984 25.12-17.968 34.72-12 9.648-26.384 14.464-43.216 14.464-16.848 0-31.296-4.816-43.216-14.464-12.048-9.616-18.016-21.2-18.016-34.72 0-13.568 5.968-25.12 18.016-34.736 11.92-9.664 26.368-14.448 43.216-14.448C732.336 416.672 746.736 421.488 758.736 431.136z" p-id="10144" fill="#dbdbdb"></path><path d="M641.616 747.856 584.4 812.24 408.832 812.24 352.16 747.856 16 747.856 57.68 981.952 966.288 981.952 1008 747.856Z" p-id="10145" fill="#dbdbdb"></path><path d="M847.76 102.528 159.104 102.528 150.336 42.048 854.592 42.048Z" p-id="10146" fill="#dbdbdb"></path><path d="M898.464 219.568 102.544 219.568 95.728 149.344 906.304 149.344Z" p-id="10147" fill="#dbdbdb"></path></svg>