<?xml version="1.0" standalone="no"?><!DOCTYPE svg PUBLIC "-//W3C//DTD SVG 1.1//EN" "http://www.w3.org/Graphics/SVG/1.1/DTD/svg11.dtd"><svg t="1577170259418" class="icon" viewBox="0 0 1024 1024" version="1.1" xmlns="http://www.w3.org/2000/svg" p-id="12789" xmlns:xlink="http://www.w3.org/1999/xlink" width="400" height="400"><defs><style type="text/css"></style></defs><path d="M390.4 505.6h32c0-32 25.6-64 57.6-64v-32c-51.2 0-89.6 44.8-89.6 96z m0 0" fill="#e6e6e6" p-id="12790"></path><path d="M480 288C364.8 288 268.8 384 268.8 505.6s96 217.6 211.2 217.6c32 0 64-6.4 89.6-19.2 70.4-32 121.6-108.8 121.6-192v-6.4c0-121.6-96-217.6-211.2-217.6z m89.6 339.2c-25.6 19.2-57.6 32-89.6 32-83.2 0-147.2-70.4-147.2-153.6 0-83.2 70.4-153.6 147.2-153.6 83.2 0 147.2 70.4 147.2 153.6V512c0 44.8-19.2 89.6-57.6 115.2z m0 0" fill="#e6e6e6" p-id="12791"></path><path d="M960 288c0-51.2-38.4-89.6-89.6-89.6h-147.2v-32c0-51.2-38.4-89.6-89.6-89.6H332.8c-51.2 0-89.6 38.4-89.6 89.6v32H89.6C38.4 198.4 0 236.8 0 288v492.8c0 51.2 38.4 89.6 89.6 89.6h480c25.6 0 38.4-6.4 38.4-32s-19.2-32-38.4-32H108.8c-25.6 6.4-44.8-19.2-44.8-38.4V294.4c0-25.6 19.2-44.8 44.8-44.8h192V179.2c0-25.6 19.2-44.8 44.8-44.8h288c25.6 0 44.8 19.2 44.8 44.8v70.4h185.6c25.6 0 44.8 19.2 44.8 44.8v211.2c0 19.2 12.8 38.4 32 38.4 25.6 0 32-12.8 32-38.4L960 288z" fill="#e6e6e6" p-id="12792"></path><path d="M857.6 601.6v313.6c0 19.2-12.8 38.4-32 38.4h-6.4c-19.2 0-32-19.2-32-38.4V601.6c0-19.2 12.8-38.4 32-38.4h12.8c12.8-6.4 25.6 12.8 25.6 38.4z m0 0" fill="#e6e6e6" p-id="12793"></path><path d="M672 723.2h313.6c19.2 0 38.4 12.8 38.4 32v6.4c0 19.2-19.2 32-38.4 32h-313.6c-19.2 0-38.4-12.8-38.4-32v-6.4c0-19.2 19.2-32 38.4-32z m0 0" fill="#e6e6e6" p-id="12794"></path></svg>