<?xml version="1.0" standalone="no"?><!DOCTYPE svg PUBLIC "-//W3C//DTD SVG 1.1//EN" "http://www.w3.org/Graphics/SVG/1.1/DTD/svg11.dtd"><svg t="1577170112005" class="icon" viewBox="0 0 1024 1024" version="1.1" xmlns="http://www.w3.org/2000/svg" p-id="7424" xmlns:xlink="http://www.w3.org/1999/xlink" width="400" height="400"><defs><style type="text/css"></style></defs><path d="M36.571429 192.857143a46.7 46.7 0 0 1 46.614285-46.614286h747.914286A46.7 46.7 0 0 1 877.714286 192.857143v747.957143a46.7 46.7 0 0 1-46.614286 46.614285H83.185714a46.7 46.7 0 0 1-46.614285-46.614285V192.857143zM0 192.857143v747.957143a83.271429 83.271429 0 0 0 83.185714 83.185714h747.914286A83.271429 83.271429 0 0 0 914.285714 940.814286V192.857143a83.271429 83.271429 0 0 0-83.185714-83.185714H83.185714A83.271429 83.271429 0 0 0 0 192.857143z m192 246A118.857143 118.857143 0 1 0 73.142857 320a118.857143 118.857143 0 0 0 118.857143 118.857143z m0-36.571429A82.285714 82.285714 0 1 1 274.285714 320a82.285714 82.285714 0 0 1-82.285714 82.285714zM105.4 779.8l158.685714-188.014286-29.1-1.514285 68.042857 100.128571a18.285714 18.285714 0 0 0 27.957143 2.757143L650.285714 378.742857l-27.657143-2.314286 185.4 256.642858a18.288571 18.288571 0 0 0 29.642858-21.428572L652.271429 355a18.285714 18.285714 0 0 0-27.657143-2.328571L305.314286 667.142857l27.957143 2.757143-68.042858-100.185714a18.285714 18.285714 0 0 0-29.1-1.514286L77.457143 756.2a18.285714 18.285714 0 1 0 27.942857 23.585714z m406.6 6.485714H822.857143a18.285714 18.285714 0 0 0 0-36.571428H512a18.285714 18.285714 0 1 0 0 36.571428z m-201.142857 109.714286h493.714286a18.285714 18.285714 0 1 0 0-36.571429H310.857143a18.285714 18.285714 0 0 0 0 36.571429zM518.471429 36.571429h414.028571a54.928571 54.928571 0 0 1 54.928571 54.728571v841.428571a18.285714 18.285714 0 1 0 36.571429 0v-841.428571A91.5 91.5 0 0 0 932.571429 0H518.471429a18.285714 18.285714 0 1 0 0 36.571429z" fill="#dbdbdb" p-id="7425"></path></svg>