<?xml version="1.0" standalone="no"?><!DOCTYPE svg PUBLIC "-//W3C//DTD SVG 1.1//EN" "http://www.w3.org/Graphics/SVG/1.1/DTD/svg11.dtd"><svg t="1560735169423" class="icon" style="" viewBox="0 0 1024 1024" version="1.1" xmlns="http://www.w3.org/2000/svg" p-id="5156" xmlns:xlink="http://www.w3.org/1999/xlink" width="400" height="400"><defs><style type="text/css"></style></defs><path d="M927.744 465.92c-69.632-153.088-215.04-99.328-257.024-76.288-41.984 23.04-82.432 30.72-82.432 30.72s-41.984-7.68-83.456-30.72c-41.984-23.04-187.904-76.8-257.536 76.288-69.12 151.552-93.184 428.544 27.648 466.432 97.28 30.72 145.92-107.008 160.256-122.368 13.824-15.36 118.272-30.72 153.088-30.72 30.72 0 138.24 15.36 152.064 30.72 13.824 15.36 61.952 153.088 159.232 122.368 121.344-37.888 97.28-315.392 28.16-466.432z m-422.4 128c0 15.36-12.288 27.648-27.648 27.648h-40.96v40.96c0 15.36-12.288 27.648-27.648 27.648h-13.824c-15.36 0-27.648-12.288-27.648-27.648v-40.96h-40.96c-15.36 0-27.648-12.288-27.648-27.648v-13.824c0-15.36 12.288-27.648 27.648-27.648h40.96v-40.96c0-15.36 12.288-27.648 27.648-27.648h13.824c15.36 0 27.648 12.288 27.648 27.648v40.96h40.96c15.36 0 27.648 12.288 27.648 27.648v13.824z m211.968 82.432c-26.624 0-48.128-21.504-48.128-48.128s21.504-48.128 48.128-48.128 48.128 21.504 48.128 48.128-21.504 48.128-48.128 48.128z m96.256-95.744c-26.624 0-48.128-21.504-48.128-48.128s21.504-48.128 48.128-48.128 48.128 21.504 48.128 48.128c-0.512 26.624-22.016 48.128-48.128 48.128z m-349.184 259.584c-1.536 2.56-3.072 5.12-4.096 7.68-22.528 41.984-69.632 129.536-157.184 129.536-13.312 0-26.624-2.048-39.936-6.144-38.4-11.776-76.288-38.912-95.744-82.432-9.728-21.504-17.92-57.344-17.92-89.088v-60.928V169.472h452.096v204.8c13.312-4.096 31.744-10.752 50.176-20.992 1.536-0.512 3.072-1.536 5.12-2.56V128.512c0-52.736-43.008-95.744-96.256-95.744H190.464c-53.248 0-96.256 43.008-96.256 95.744v766.976c0 52.736 43.008 95.744 96.256 95.744h369.664c53.248 0 96.256-43.008 96.256-95.744v-67.072c-26.112-4.608-53.76-7.68-67.584-7.68-30.72 0-101.888 11.264-124.416 19.456z" p-id="5157"></path></svg>