<?xml version="1.0" standalone="no"?><!DOCTYPE svg PUBLIC "-//W3C//DTD SVG 1.1//EN" "http://www.w3.org/Graphics/SVG/1.1/DTD/svg11.dtd"><svg t="1558575372105" class="icon" style="" viewBox="0 0 1024 1024" version="1.1" xmlns="http://www.w3.org/2000/svg" p-id="13245" xmlns:xlink="http://www.w3.org/1999/xlink" width="300" height="300"><defs><style type="text/css"></style></defs><path d="M606.182544 485.701031c-1.551332-1.13587-2.996241-2.556219-4.13211-4.129041-78.449723-78.398558-142.0349-141.803633-148.33028-147.945517-64.618717-64.126506-15.588023-146.474003 60.280922-175.402869 17.755386-6.683213 35.81981-8.540514 54.397934-11.147898 4.491291-0.515746 13.935384-0.593518 23.330358-0.644683 19.508309-0.283456 17.960047-26.604938-0.103354-29.340235-10.117428-1.444908-21.419845-3.096525-27.047006-3.510964-101.571327-9.107425-209.852472 27.327392-312.25063 129.778762-7.27673 7.457856-14.915711 14.786775-22.296819 22.270213-18.269086 74.502831-67.301825 95.636151-90.836845 101.571327-10.940167-9.41851-27.611871-9.006118-38.089503 1.420349-2.269693 2.321882-4.129041 4.850471-5.368264 7.690146L73.753259 398.037459c-10.838859 10.787694-10.838859 28.206412 0 38.915311l106.939591 106.500593c10.631128 10.683317 28.229948 10.683317 39.017642 0l20.644179-20.696368c3.149736-1.289366 6.091742-3.251044 8.671497-5.830799 9.238408-9.160637 10.734482-23.045879 4.541433-33.83255 0.051165-0.075725 0.051165-0.205685 0.103354-0.335644 0.568958-1.729387 1.13587-3.586688 1.858324-5.599532 0.928139-2.529613 2.012843-5.03262 3.096525-7.587815 0.670266-1.057075 1.187035-2.296299 1.807159-3.560082 1.703805-2.942005 3.767813-5.650697 5.729491-8.18031 4.333702-4.852518 9.496282-9.135054 16.308431-11.793604 43.354414-17.057491 86.089727 11.07115 106.990756 28.284183 1.704828 1.496074 67.76743 67.636446 147.351999 147.455353l0 0 33.083489 33.133631 0 0c116.383684 116.746958 246.24124 246.911506 246.24124 246.911506l107.97006-98.68151c0 0-115.091248-114.786303-231.323483-231.118821l0 0L606.182544 485.701031z" p-id="13246"></path><path d="M946.199565 186.197726 849.683371 117.632117c-13.317307-9.470699-31.791054-6.350638-41.186028 7.148817-5.678326 7.715729-6.29538 17.237593-3.715625 25.701358-6.297426 1.057075-11.872399 4.51585-16.516162 9.289574l-0.720408-0.541329L610.515223 408.928506c5.16258 18.424628 3.925403 38.372959-4.332678 56.515155l27.558659 19.818371-11.561313 16.33606c-6.813173-6.735401-13.522991-13.394055-20.129456-20.026102 1.13587 1.573845 2.580778 2.993171 4.13211 4.129041l86.60138 86.319971 0 0c-12.487406-12.257162-24.981974-24.747637-37.365003-37.133735l15.893992-22.477944 26.320459 18.968004c14.660908-13.988596 33.135678-22.090111 52.543703-23.224957l174.758186-246.240217 2.579755-3.433192-0.825808-0.48914c3.201925-6.039553 4.439102-12.517081 3.406586-18.606777 8.876158-0.233314 17.445324-4.104481 23.017226-11.973706C962.610326 214.171847 959.515848 195.694007 946.199565 186.197726zM683.185312 408.516114l-16.2061-11.431354 131.401726-185.054693 16.000416 11.483542L683.185312 408.516114zM743.363903 451.430506l-16.001439-11.509125 131.303488-185.028087 16.205077 11.405771L743.363903 451.430506z" p-id="13247"></path><path d="M427.706687 775.165702 424.660304 772.999362 378.881678 816.456107 339.243913 895.007137 380.325563 924.323836 442.210006 861.564467 468.375945 804.067962 465.486128 802.107307 569.896106 654.909827 536.812617 621.776196Z" p-id="13248"></path></svg>