<?xml version="1.0" standalone="no"?><!DOCTYPE svg PUBLIC "-//W3C//DTD SVG 1.1//EN" "http://www.w3.org/Graphics/SVG/1.1/DTD/svg11.dtd"><svg t="1560735099914" class="icon" style="" viewBox="0 0 1024 1024" version="1.1" xmlns="http://www.w3.org/2000/svg" p-id="3164" xmlns:xlink="http://www.w3.org/1999/xlink" width="400" height="400"><defs><style type="text/css"></style></defs><path d="M658.944 954.368c-19.456 0-34.304-13.312-34.304-30.72v-336.896c3.072-15.36 15.872-31.744 34.304-31.744 19.456 0 34.304 13.312 34.304 30.72v337.92c0 17.408-14.848 30.72-34.304 30.72zM365.568 954.368c-19.456 0-34.304-13.312-34.304-30.72v-501.76c0-17.408 14.848-30.72 34.304-30.72 19.456 0 34.304 13.312 34.304 30.72v501.76c0 17.408-14.848 30.72-34.304 30.72zM921.6 950.784c-19.456 0-34.304-13.312-34.304-30.72v-234.496c3.072-15.36 15.872-31.744 34.304-31.744 19.456 0 34.304 13.312 34.304 30.72v235.52c0 16.896-14.848 30.72-34.304 30.72zM102.4 950.784c-17.408 0-34.304-15.36-34.304-30.72V288.768c0-17.408 14.848-30.72 34.304-30.72 17.408 0 34.304 15.36 34.304 30.72v631.296c0 16.896-14.848 30.72-34.304 30.72zM926.208 539.648c-4.608 0-9.216-1.024-13.312-3.072L82.432 138.24c-2.048-2.56-4.608-4.608-7.168-6.144-2.56-2.048-5.12-4.096-7.168-6.144-7.168-9.728-9.728-23.04-7.168-32.256 6.144-13.312 20.992-23.04 35.328-23.04 5.12 0 9.728 1.024 13.824 3.072l779.264 375.808-3.584-97.28c-1.024-10.24 2.56-19.968 9.216-27.648 6.656-7.168 15.872-11.264 25.088-11.264h2.048c10.752 0 19.456 3.584 24.064 9.216l0.512 0.512 1.024 0.512c6.144 4.096 9.728 12.288 10.752 24.064l5.632 151.552c0.512 12.8-4.608 22.016-16.896 32.256-6.144 5.12-13.312 8.192-20.992 8.192z" p-id="3165"></path></svg>