<?xml version="1.0" standalone="no"?><!DOCTYPE svg PUBLIC "-//W3C//DTD SVG 1.1//EN" "http://www.w3.org/Graphics/SVG/1.1/DTD/svg11.dtd"><svg t="1560912993343" class="icon" style="" viewBox="0 0 1154 1024" version="1.1" xmlns="http://www.w3.org/2000/svg" p-id="6926" xmlns:xlink="http://www.w3.org/1999/xlink" width="450.78125" height="400"><defs><style type="text/css"></style></defs><path d="M988.485549 432.092486h-828.67052v82.867052h236.763006c11.83815 0 23.676301 11.83815 29.595375 23.6763 23.676301 59.190751 82.867052 106.543353 147.976879 106.543353 71.028902 0 124.300578-41.433526 147.976879-106.543353 5.919075-11.83815 17.757225-23.676301 29.595375-23.6763h236.763006V432.092486z m-414.33526 142.057803c-41.433526 0-41.433526-65.109827 0-65.109827s47.352601 65.109827 0 65.109827z" fill="#8a8a8a" p-id="6927"></path><path d="M1024 130.219653h-171.653179c-29.595376 0-53.271676-23.676301-53.271676-53.271676v-11.83815C799.075145 29.595376 769.479769 0 733.965318 0H414.33526c-35.514451 0-65.109827 29.595376-65.109826 65.109827v11.83815c0 29.595376-23.676301 53.271676-53.271677 53.271676H130.219653C59.190751 130.219653 0 183.491329 0 254.520231v639.260116c0 71.028902 59.190751 130.219653 130.219653 130.219653h893.780347c71.028902 0 130.219653-59.190751 130.219653-130.219653V254.520231c-5.919075-71.028902-59.190751-124.300578-130.219653-124.300578zM414.33526 88.786127c0-17.757225 11.83815-35.514451 29.595376-35.514451h254.520231c17.757225 0 29.595376 17.757225 29.595376 35.514451s-11.83815 35.514451-29.595376 35.514451H449.849711c-17.757225 5.919075-35.514451-11.83815-35.514451-35.514451z m662.936416 272.277457V887.861272c0 35.514451-29.595376 65.109827-65.109826 65.109826H136.138728c-35.514451 0-65.109827-29.595376-65.109826-65.109826V254.520231c0-29.595376 47.352601-59.190751 82.867052-59.190751h864.184971c35.514451 0 65.109827 23.676301 65.109826 59.190751v106.543353z" fill="#8a8a8a" p-id="6928"></path></svg>