<?xml version="1.0" standalone="no"?><!DOCTYPE svg PUBLIC "-//W3C//DTD SVG 1.1//EN" "http://www.w3.org/Graphics/SVG/1.1/DTD/svg11.dtd"><svg t="1559786478141" class="icon" style="" viewBox="0 0 1024 1024" version="1.1" xmlns="http://www.w3.org/2000/svg" p-id="4330" xmlns:xlink="http://www.w3.org/1999/xlink" width="300" height="300"><defs><style type="text/css"></style></defs><path d="M860.727 0H163.162A141.878 141.878 0 0 0 21.284 141.878v846.537a35.47 35.47 0 0 0 54.15 30.267L273.117 897.14l223.221 122.488a35.47 35.47 0 0 0 37.361-2.838l169.544-120.123 248.286 122.96a35.47 35.47 0 0 0 51.076-31.212V141.878A141.878 141.878 0 0 0 860.727 0z m70.94 931.19L715.775 824.074a35.47 35.47 0 0 0-36.18 2.838L510.763 945.85 288.96 824.073a35.47 35.47 0 0 0-35.706 0L92.223 925.043V141.878a70.939 70.939 0 0 1 70.939-70.94h697.565a70.939 70.939 0 0 1 70.94 70.94z" fill="#cdcdcd" p-id="4331"></path><path d="M477.657 205.723H215.184a35.47 35.47 0 1 0 0 70.939h262.473a35.47 35.47 0 1 0 0-70.94z m0 182.076H215.184a35.47 35.47 0 0 0 0 70.939h262.473a35.47 35.47 0 0 0 0-70.939z m347.6 167.889a35.47 35.47 0 0 0 0-70.94h-68.1l57.697-57.696a35.47 35.47 0 0 0-50.13-50.13l-45.874 45.874-45.874-45.874a35.47 35.47 0 0 0-50.13 50.13l57.697 57.697H612.44a35.47 35.47 0 0 0 0 70.939h70.94v47.292h-70.94a35.47 35.47 0 0 0 0 70.94h70.94v59.115a35.47 35.47 0 0 0 70.938 0v-59.116h70.939a35.47 35.47 0 0 0 0-70.939h-70.939v-47.292z" fill="#cdcdcd" p-id="4332"></path></svg>