<?xml version="1.0" standalone="no"?><!DOCTYPE svg PUBLIC "-//W3C//DTD SVG 1.1//EN" "http://www.w3.org/Graphics/SVG/1.1/DTD/svg11.dtd"><svg t="1559786537158" class="icon" style="" viewBox="0 0 1024 1024" version="1.1" xmlns="http://www.w3.org/2000/svg" p-id="5186" xmlns:xlink="http://www.w3.org/1999/xlink" width="300" height="300"><defs><style type="text/css"></style></defs><path d="M220.6 402.5v443.9H55.2V402.5h165.4m34.6-55.2H20.7C9.3 347.3 0.1 356.5 0.1 367.9v513c0 11.4 9.2 20.6 20.6 20.6h234.5c11.4 0 20.6-9.2 20.6-20.6v-513c0-11.4-9.3-20.6-20.6-20.6zM594.8 75.2v771.1H429.4V75.2h165.4m34.3-55.1H395c-11.5 0-20.8 9.3-20.8 20.8v839.8c0 11.5 9.3 20.8 20.8 20.8h234.1c11.5 0 20.8-9.3 20.8-20.8V40.9c0-11.5-9.3-20.8-20.8-20.8zM968.9 588.7v257.7H803.5V588.7h165.4m34-55.1H769.5c-11.7 0-21.1 9.5-21.1 21.1v325.7c0 11.7 9.5 21.1 21.1 21.1H1003c11.7 0 21.1-9.5 21.1-21.1V554.7c0-11.7-9.5-21.1-21.2-21.1zM996.4 1004.8H27.8c-15.3 0-27.7-12.4-27.7-27.7 0-15.3 12.4-27.7 27.7-27.7h968.6c15.3 0 27.7 12.4 27.7 27.7 0 15.3-12.4 27.7-27.7 27.7z" p-id="5187"></path></svg>