<?xml version="1.0" standalone="no"?><!DOCTYPE svg PUBLIC "-//W3C//DTD SVG 1.1//EN" "http://www.w3.org/Graphics/SVG/1.1/DTD/svg11.dtd"><svg t="1558576100713" class="icon" style="" viewBox="0 0 1024 1024" version="1.1" xmlns="http://www.w3.org/2000/svg" p-id="20148" xmlns:xlink="http://www.w3.org/1999/xlink" width="300" height="300"><defs><style type="text/css"></style></defs><path d="M534.5 885.7H142.7c-16.3 0-29.5-13.2-29.5-29.5V144c0-16.3 13.2-29.5 29.5-29.5h391.7c16.3 0 29.5 13.2 29.5 29.5v712.2c0.1 16.2-13.1 29.5-29.4 29.5z" fill="#FFFFFF" p-id="20149"></path><path d="M513.3 902.8H163.9c-37.5 0-67.9-30.5-67.9-67.9V165.1c0-37.5 30.5-67.9 67.9-67.9h349.3c37.5 0 67.9 30.5 67.9 67.9v669.8c0.1 37.5-30.4 67.9-67.8 67.9zM163.9 131.6c-18.5 0-33.6 15.1-33.6 33.6V835c0 18.5 15.1 33.6 33.6 33.6h349.3c18.5 0 33.6-15.1 33.6-33.6V165.1c0-18.5-15.1-33.6-33.6-33.6H163.9z" fill="#232323" p-id="20150"></path><path d="M403.8 160.3H273.4c-6.9 0-13-4.4-15.2-10.9l-11.9-35H431l-11.9 35c-2.3 6.5-8.5 10.9-15.3 10.9z" fill="#232323" p-id="20151"></path><path d="M403.8 171.5H273.4c-11.7 0-22-7.4-25.8-18.5l-11.9-35c-1.2-3.4-0.6-7.2 1.5-10.1 2.1-2.9 5.5-4.7 9.1-4.7H431c3.6 0 7 1.7 9.1 4.7 2.1 2.9 2.6 6.7 1.5 10.1l-11.9 35c-3.9 11.1-14.3 18.5-25.9 18.5z m-141.9-45.9l6.9 20.2c0.7 2 2.6 3.3 4.7 3.3h130.3c2.1 0 4-1.3 4.7-3.3l6.9-20.2H261.9zM370.5 361.3c19.3 16.7 37.8 33.7 55.5 51l-19.4 18.3-14.1-14.7-20 0.7v47.7c0 6.5 3.3 9.8 10 9.8h7.3c5.5 0 9.2-1.7 10.9-5.2 1.8-3.5 3.4-12.8 4.9-27.9 7 3.3 15.8 6.7 26.4 10.4-3.6 20.3-8 33.1-13.1 38.3-5.1 5.2-13.6 7.7-25.7 7.5h-21.8c-16.8 0-25.2-9.4-25.2-28.2v-51.4l-21.2 0.9c-3.1 43.2-23.4 70.9-60.7 83.2-7.7-10.4-14-18.5-19-24.3 32.4-9 50.3-28.1 53.7-57.5-12.8 0.8-22.6 1.7-29.4 2.5l-9.8-22.4c14-8.3 28.7-21.3 44.1-39h-55.5v-24.8H325l-6.8-15.6 27.5-6 8.8 21.6h73.8V361H338c-11.2 12.2-23.6 24.3-37.2 36.3 17.6-0.2 41.4-0.9 71.3-1.9L352 375.6l18.5-14.3z" fill="#232323" p-id="20152"></path><path d="M537.5 735.8v93.9h0.2c4.1 44.4 86 79.9 186.5 79.9s182.4-35.5 186.5-79.9h0.2v-93.9H537.5z" fill="#FFAF78" p-id="20153"></path><path d="M724.1 926.8c-50.8 0-99.1-8.8-136.2-24.7-39.4-16.9-63.1-40.9-67.1-67.8-0.4-1.4-0.6-3-0.6-4.6v-93.9c0-9.5 7.7-17.2 17.2-17.2h373.4c9.5 0 17.2 7.7 17.2 17.2v93.9c0 1.6-0.2 3.1-0.6 4.5-4 26.9-27.7 50.9-67.1 67.8-37 16-85.4 24.8-136.2 24.8z m-169.5-99.6c0 0.3 0.1 0.6 0.1 0.9 2.8 30.4 73.1 64.3 169.4 64.3s166.6-33.9 169.4-64.3c0-0.3 0.1-0.6 0.1-0.9V753h-339v74.2z" fill="#232323" p-id="20154"></path><path d="M537.5 650.4v93.9c0 46.1 83.6 83.4 186.7 83.4s186.7-37.3 186.7-83.4v-93.9H537.5z" fill="#FFAF78" p-id="20155"></path><path d="M724.1 844.9c-52.2 0-101.6-9.2-139-25.9-41.8-18.7-64.8-45.2-64.8-74.7v-93.9c0-9.5 7.7-17.2 17.2-17.2h373.4c9.5 0 17.2 7.7 17.2 17.2v93.9c0 29.5-23 56-64.8 74.7-37.6 16.7-86.9 25.9-139.2 25.9zM554.6 667.6v76.7c0 31.3 72.5 66.2 169.5 66.2s169.5-35 169.5-66.2v-76.7h-339z" fill="#232323" p-id="20156"></path><path d="M537.5 566.8v93.9c0 46.1 83.6 83.4 186.7 83.4s186.7-37.3 186.7-83.4v-93.9H537.5z" fill="#FFAF78" p-id="20157"></path><path d="M724.1 761.3c-52.2 0-101.6-9.2-139-25.9-41.8-18.7-64.8-45.2-64.8-74.7v-93.9c0-9.5 7.7-17.2 17.2-17.2h373.4c9.5 0 17.2 7.7 17.2 17.2v93.9c0 29.5-23 56-64.8 74.7-37.6 16.7-86.9 25.9-139.2 25.9zM554.6 584v76.7c0 31.3 72.5 66.2 169.5 66.2s169.5-35 169.5-66.2V584h-339z" fill="#232323" p-id="20158"></path><path d="M910.8 571.8c0 46.1-83.6 83.4-186.7 83.4s-186.7-37.3-186.7-83.4c0-14.4 8.2-28 22.6-39.8 31.6-26 93.3-43.6 164.1-43.6 70.1 0 131.2 17.3 163.1 42.8 15.1 12.1 23.6 25.9 23.6 40.6z" fill="#FFE092" p-id="20159"></path><path d="M724.1 672.4c-52.2 0-101.6-9.2-139-25.9-41.8-18.7-64.8-45.2-64.8-74.7 0-13.4 5-33.5 28.8-53 36.2-29.8 101.6-47.5 175-47.5 72.4 0 137.4 17.4 173.9 46.6 24.8 19.8 30 40.3 30 54 0 29.5-23 56-64.8 74.7-37.5 16.6-86.8 25.8-139.1 25.8z m0-166.8c-63.7 0-123.9 15.6-153.2 39.7-7.4 6.1-16.3 15.7-16.3 26.5 0 31.3 72.5 66.2 169.5 66.2s169.5-35 169.5-66.2c0-11.1-9.3-20.9-17.1-27.2-30.1-24-88.4-39-152.4-39z" fill="#232323" p-id="20160"></path><path d="M342.9 645.7c-69 0-130.1-44-152-109.4-2.7-8.1 1.7-16.9 9.7-19.6 8.1-2.7 16.9 1.7 19.6 9.7 17.7 52.8 67 88.3 122.7 88.3s105-35.5 122.7-88.3c2.7-8.1 11.5-12.5 19.6-9.7 8.1 2.7 12.5 11.5 9.7 19.6-21.9 65.4-83 109.4-152 109.4z" fill="#232323" p-id="20161"></path><path d="M500.6 575.1c-5.9 0-11.5-3.4-14.1-9.1l-11.2-25-22.8 10.7c-7.7 3.6-16.9 0.3-20.6-7.4-3.6-7.7-0.3-16.9 7.4-20.6l37.1-17.5c3.8-1.8 8.1-2 12-0.5 3.9 1.4 7 4.4 8.7 8.2l17.6 39.3c3.5 7.8 0 16.9-7.8 20.4-2.1 1.1-4.2 1.5-6.3 1.5z" fill="#232323" p-id="20162"></path><path d="M840.3 571.8c0 22.2-52 40.2-116.1 40.2S608 594.1 608 571.8c0-6.9 5.1-13.5 14-19.2 19.7-12.5 58-21 102.1-21 43.6 0 81.6 8.3 101.5 20.7 9.3 5.7 14.7 12.4 14.7 19.5z" fill="#FFAF78" p-id="20163"></path></svg>