<?xml version="1.0" standalone="no"?><!DOCTYPE svg PUBLIC "-//W3C//DTD SVG 1.1//EN" "http://www.w3.org/Graphics/SVG/1.1/DTD/svg11.dtd"><svg t="1560331963958" class="icon" style="" viewBox="0 0 1024 1024" version="1.1" xmlns="http://www.w3.org/2000/svg" p-id="10135" xmlns:xlink="http://www.w3.org/1999/xlink" width="400" height="400"><defs><style type="text/css"></style></defs><path d="M163.84 798.72h204.8v-315.392l-57.344-36.864L163.84 565.248v233.472z m249.856 0h204.8v-315.392l-98.304 77.824-106.496-53.248v290.816z m249.856-356.352v356.352h204.8v-352.256L778.24 339.968l-114.688 102.4z m0 0" p-id="10136"></path><path d="M196.608 479.232l110.592-90.112 212.992 122.88 249.856-229.376 4.096-4.096 40.96 40.96 69.632-184.32-192.512 61.44L737.28 241.664l-217.088 204.8-221.184-122.88-139.264 114.688c-12.288 8.192-12.288 24.576-4.096 36.864 8.192 12.288 28.672 12.288 40.96 4.096z m667.648 356.352H159.744c-16.384 0-24.576 12.288-24.576 24.576 0 16.384 12.288 24.576 24.576 24.576H860.16c16.384 0 24.576-12.288 24.576-24.576 4.096-12.288-8.192-24.576-20.48-24.576z m0 0" p-id="10137"></path></svg>