<?xml version="1.0" standalone="no"?><!DOCTYPE svg PUBLIC "-//W3C//DTD SVG 1.1//EN" "http://www.w3.org/Graphics/SVG/1.1/DTD/svg11.dtd"><svg t="1560761058737" class="icon" style="" viewBox="0 0 1024 1024" version="1.1" xmlns="http://www.w3.org/2000/svg" p-id="10793" xmlns:xlink="http://www.w3.org/1999/xlink" width="400" height="400"><defs><style type="text/css"></style></defs><path d="M315.736064 304.539648c-17.859584 0-32.390144-14.526464-32.390144-32.380928s14.529536-32.379904 32.390144-32.379904l375.538688 0c17.859584 0 32.390144 14.526464 32.390144 32.379904 0 17.855488-14.529536 32.380928-32.390144 32.380928L315.736064 304.539648z" p-id="10794"></path><path d="M315.736064 464.434176c-17.859584 0-32.390144-14.526464-32.390144-32.380928 0-17.854464 14.529536-32.380928 32.390144-32.380928l147.072 0c17.859584 0 32.390144 14.526464 32.390144 32.380928 0 17.854464-14.529536 32.380928-32.390144 32.380928L315.736064 464.434176z" p-id="10795"></path><path d="M315.736064 624.32768c-17.859584 0-32.390144-14.526464-32.390144-32.380928 0-17.854464 14.529536-32.379904 32.390144-32.379904l147.072 0c17.859584 0 32.390144 14.526464 32.390144 32.379904 0 17.855488-14.529536 32.380928-32.390144 32.380928L315.736064 624.32768z" p-id="10796"></path><path d="M315.736064 784.222208c-17.859584 0-32.390144-14.526464-32.390144-32.380928s14.529536-32.379904 32.390144-32.379904l147.072 0c17.859584 0 32.390144 14.526464 32.390144 32.379904 0 17.855488-14.529536 32.380928-32.390144 32.380928L315.736064 784.222208z" p-id="10797"></path><path d="M199.47008 272.159744m-32.256 0a31.5 31.5 0 1 0 64.512 0 31.5 31.5 0 1 0-64.512 0Z" p-id="10798"></path><path d="M199.47008 432.054272m-32.256 0a31.5 31.5 0 1 0 64.512 0 31.5 31.5 0 1 0-64.512 0Z" p-id="10799"></path><path d="M199.47008 591.947776m-32.256 0a31.5 31.5 0 1 0 64.512 0 31.5 31.5 0 1 0-64.512 0Z" p-id="10800"></path><path d="M199.47008 751.842304m-32.256 0a31.5 31.5 0 1 0 64.512 0 31.5 31.5 0 1 0-64.512 0Z" p-id="10801"></path><path d="M934.24128 789.644288c2.484224-2.028544 5.21728-3.726336 7.61856-5.859328 4.803584-4.28544 7.349248-10.579968 6.915072-16.997376l-2.3808-32.980992 32.6912-5.030912c6.418432-0.99328 12.008448-4.927488 15.072256-10.641408 18.881536-34.927616 28.819456-74.471424 28.819456-114.387968 0-2.691072-0.165888-5.341184-0.352256-7.970816l-0.206848-3.085312c-0.310272-6.459392-3.622912-12.381184-8.923136-16.045056l-27.267072-18.840576 16.811008-29.41952c3.167232-5.590016 3.581952-12.3392 1.097728-18.281472-16.811008-39.79264-44.264448-74.44992-79.481856-100.268032-5.279744-3.871744-12.069888-5.010432-18.343936-3.085312l-31.7184 9.792512-12.31872-31.345664c-2.36032-6.045696-7.432192-10.641408-13.684736-12.381184-42.380288-11.86304-85.092352-11.86304-127.45216 0-6.273024 1.738752-11.34592 6.335488-13.70624 12.381184l-12.27776 31.345664-31.73888-9.792512c-6.252544-1.92512-13.064192-0.786432-18.343936 3.085312-35.237888 25.796608-62.711808 60.475392-79.460352 100.247552-2.504704 5.942272-2.111488 12.711936 1.076224 18.301952l16.770048 29.41952-27.267072 18.840576c-5.341184 3.685376-8.633344 9.648128-8.923136 16.10752l-0.186368 3.209216c-0.165888 2.587648-0.330752 5.154816-0.330752 7.784448 0 39.937024 9.9584 79.502336 28.798976 114.387968 3.085312 5.7344 8.653824 9.648128 15.072256 10.641408l32.6912 5.030912-2.40128 32.980992c-0.47616 6.438912 2.091008 12.711936 6.915072 16.997376 2.297856 2.050048 4.907008 3.664896 7.287808 5.610496l-55.527424 90.868736c-4.989952 8.199168-4.658176 18.198528 0.869376 25.465856 5.527552 7.245824 15.092736 10.227712 24.244224 7.61856l51.510272-14.450688 31.966208 36.893696c4.617216 5.300224 10.91072 8.198144 17.473536 8.198144 1.573888 0 3.167232-0.186368 4.803584-0.51712 8.198144-1.760256 14.596096-7.804928 17.122304-16.190464l26.479616-88.569856c2.526208-0.95232 4.927488-2.297856 6.956032-4.202496l23.829504-22.214656 23.809024 22.173696c3.892224 3.622912 8.943616 5.590016 14.140416 5.590016 1.242112 0 2.40128-0.103424 3.622912-0.330752 25.982976-4.617216 50.640896-14.036992 73.560064-26.852352l29.792256 47.328256-12.75392-3.581952c-9.9584-2.85696-21.200896 0.47616-28.033024 8.281088l-17.654784 20.267008-3.167232-8.799232c-3.851264-10.786816-15.693824-16.438272-26.459136-12.484608-10.786816 3.871744-16.356352 15.734784-12.484608 26.479616l13.664256 38.011904c2.87744 7.970816 9.378816 13.664256 17.473536 15.17568 1.366016 0.269312 2.816 0.393216 4.202496 0.393216 6.583296 0 12.940288-2.919424 17.51552-8.198144l32.256-36.93568 51.904512 14.472192c9.378816 2.608128 18.92352-0.4352 24.430592-7.743488 5.507072-7.350272 5.71392-17.412096 0.538624-25.58976L934.24128 789.644288zM697.494528 883.265536l-15.900672-18.343936c-6.791168-7.826432-18.095104-11.180032-27.9296-8.343552l-13.374464 3.76832 29.109248-47.660032c13.850624 7.784448 28.239872 14.575616 43.374592 19.42016L697.494528 883.265536zM798.963712 768.878592c-7.950336-7.391232-20.269056-7.391232-28.219392 0l-30.144512 28.033024c-28.280832-6.562816-54.781952-19.42016-77.638656-37.659648l3.002368-41.510912c0.786432-10.766336-6.832128-20.310016-17.49504-21.966848l-41.055232-6.293504c-12.463104-26.272768-19.088384-55.258112-19.254272-84.574208l34.471936-23.788544c8.819712-6.107136 11.532288-17.949696 6.21056-27.287552l-20.952064-36.790272c12.588032-26.02496 30.869504-49.108992 53.56032-67.556352l39.85408 12.29824c10.41408 3.250176 21.428224-2.153472 25.403392-12.235776l15.424512-39.35744c28.592128-6.521856 56.832-6.521856 85.443584 0l15.444992 39.35744c3.934208 10.082304 14.989312 15.444992 25.362432 12.235776l39.85408-12.29824c22.71232 18.44736 40.972288 41.531392 53.56032 67.556352l-20.972544 36.769792c-5.320704 9.336832-2.608128 21.200896 6.232064 27.287552l34.471936 23.788544c-0.165888 29.295616-6.791168 58.30144-19.254272 84.574208l-41.055232 6.335488c-10.661888 1.635328-18.281472 11.200512-17.49504 21.966848l3.002368 41.510912c-22.836224 18.239488-49.357824 31.096832-77.597696 37.659648L798.963712 768.878592zM784.843776 745.607168c-79.19104 0-143.6416-64.4096-143.6416-143.6416s64.45056-143.6416 143.6416-143.6416 143.6416 64.43008 143.6416 143.6416S864.034816 745.607168 784.843776 745.607168zM784.843776 499.730432c-56.37632 0-102.235136 45.858816-102.235136 102.235136s45.858816 102.235136 102.235136 102.235136 102.235136-45.838336 102.235136-102.235136S841.219072 499.730432 784.843776 499.730432z" p-id="10802"></path><path d="M497.977344 943.98976c16.733184-1.411072 29.876224-15.430656 29.876224-32.529408 0-18.034688-14.619648-32.654336-32.65536-32.654336L111.415296 878.806016c-25.421824 0-46.103552-20.717568-46.103552-46.184448L65.311744 191.381504c0-25.467904 20.681728-46.186496 46.103552-46.186496l668.005376 0c25.4464 0 46.148608 20.719616 46.149632 46.18752l0 113.15712 0.003072 0c0.067584 17.977344 14.65856 32.531456 32.651264 32.531456s32.584704-14.553088 32.651264-32.531456l0.003072 0L890.878976 191.38048c-0.001024-61.493248-49.98144-111.496192-111.459328-111.496192L111.414272 79.884288C49.980416 79.884288 0 129.888256 0 191.381504l0 641.240064c0 61.490176 49.979392 111.494144 111.414272 111.494144" p-id="10803"></path></svg>