<?xml version="1.0" standalone="no"?><!DOCTYPE svg PUBLIC "-//W3C//DTD SVG 1.1//EN" "http://www.w3.org/Graphics/SVG/1.1/DTD/svg11.dtd"><svg t="1558517723659" class="icon" style="" viewBox="0 0 1024 1024" version="1.1" xmlns="http://www.w3.org/2000/svg" p-id="11764" xmlns:xlink="http://www.w3.org/1999/xlink" width="200" height="200"><defs><style type="text/css"></style></defs><path d="M512 21.759802C313.517519 21.759802 152.612964 182.664358 152.612964 381.141973c0 198.481265 160.904555 359.38582 359.387036 359.38582 198.477616 0 359.382171-160.904555 359.382171-359.38582C871.382171 182.664358 710.477616 21.759802 512 21.759802L512 21.759802zM512 692.607576c-172.017988 0-311.465602-139.447614-311.465602-311.465602 0-172.017988 139.447614-311.465602 311.465602-311.465602 172.013123 0 311.465602 139.447614 311.465602 311.465602C823.465602 553.159962 684.013123 692.607576 512 692.607576L512 692.607576zM512 692.607576" p-id="11765"></path><path d="M512 117.596589c-145.55836 0-263.55025 117.99189-263.55025 263.545385 0 145.557144 117.99189 263.549034 263.55025 263.549034 145.553495 0 263.545385-117.99189 263.545385-263.549034C775.545385 235.588478 657.553495 117.596589 512 117.596589L512 117.596589zM512 596.775655c-119.093867 0-215.628816-96.539814-215.628816-215.633681 0-119.089002 96.534949-215.628816 215.628816-215.628816 119.093867 0 215.628816 96.539814 215.628816 215.628816C727.628816 500.235841 631.093867 596.775655 512 596.775655L512 596.775655zM512 596.775655" p-id="11766"></path><path d="M735.559163 620.755225l91.427659 177.177579c-37.135189-14.505724-80.019879-13.721203-118.22907 5.991548-38.209191 19.722482-63.699419 54.220708-73.397066 92.886016l-91.422794-177.167849-31.937892 16.487095 134.930236 261.464277 3.207412 6.223863 31.937892-16.482229-3.207412-6.223863c-27.304964-52.91439-6.552267-117.949319 46.362123-145.254283 52.924121-27.300099 117.944454-6.537671 145.259148 46.376719l3.207412 6.214132 31.937892-16.472499-3.217142-6.223863L767.495839 604.282726 735.559163 620.755225 735.559163 620.755225zM735.559163 620.755225" p-id="11767"></path><path d="M273.39872 649.894385 197.013177 797.932804c37.130323-14.505724 80.015014-13.721203 118.22907 5.986682 38.204326 19.727347 63.694554 54.225573 73.397066 92.890881l81.868672-158.653164 39.226027 2.360859L377.064899 997.592674l-3.206196 6.223863-31.937892-16.482229 3.207412-6.223863c27.304964-52.91439 6.551051-117.949319-46.358474-145.254283-52.92777-27.300099-117.948102-6.537671-145.262797 46.376719l-3.207412 6.214132L118.361648 871.975731l3.217142-6.223863L246.602174 623.467598 273.39872 649.894385 273.39872 649.894385zM273.39872 649.894385" p-id="11768"></path></svg>