<?xml version="1.0" standalone="no"?><!DOCTYPE svg PUBLIC "-//W3C//DTD SVG 1.1//EN" "http://www.w3.org/Graphics/SVG/1.1/DTD/svg11.dtd"><svg t="1563790437015" class="icon" viewBox="0 0 1024 1024" version="1.1" xmlns="http://www.w3.org/2000/svg" p-id="2033" xmlns:xlink="http://www.w3.org/1999/xlink" width="400" height="400"><defs><style type="text/css"></style></defs><path d="M773.688889 132.266667c4.266667 1.422222 8.533333 1.422222 12.8 2.844444 44.088889 12.8 69.688889 44.088889 78.222222 88.177778 2.844444 12.8 2.844444 27.022222 2.844445 41.244444-18.488889 2.844444-35.555556 4.266667-54.044445 7.111111v-25.6c0-12.8-4.266667-25.6-12.8-35.555555-11.377778-12.8-25.6-19.911111-42.666667-19.911111H234.666667c-28.444444 0-52.622222 21.333333-54.044445 51.2V793.6c0 7.111111 1.422222 15.644444 2.844445 21.333333 7.111111 24.177778 27.022222 36.977778 52.622222 36.977778h520.533333c35.555556 0 56.888889-29.866667 56.888889-56.888889V632.888889c17.066667-2.844444 34.133333-4.266667 52.622222-7.111111V792.177778c0 39.822222-15.644444 73.955556-48.355555 98.133333-12.8 9.955556-27.022222 15.644444-42.666667 17.066667-1.422222 0-1.422222 1.422222-2.844444 1.422222H221.866667l-1.422223-1.422222c-45.511111-7.111111-72.533333-35.555556-86.755555-78.222222-2.844444-7.111111-2.844444-15.644444-5.688889-22.755556V234.666667c1.422222-4.266667 1.422222-8.533333 2.844444-12.8 9.955556-42.666667 34.133333-73.955556 78.222223-86.755556 4.266667-1.422222 8.533333-2.844444 12.8-2.844444h551.822222z" p-id="2034"></path><path d="M962.844444 409.6c-4.266667 5.688889-8.533333 12.8-12.8 18.488889-9.955556 11.377778-19.911111 22.755556-31.288888 34.133333-31.288889-34.133333-61.155556-68.266667-92.444445-100.977778 12.8-14.222222 25.6-28.444444 38.4-41.244444 8.533333-8.533333 21.333333-8.533333 29.866667 0 21.333333 22.755556 42.666667 45.511111 64 69.688889 2.844444 2.844444 4.266667 5.688889 5.688889 9.955555 0-1.422222 0 9.955556-1.422223 9.955556z m-156.444444-28.444444l93.866667 102.4c-12.8 14.222222-25.6 27.022222-36.977778 41.244444-59.733333 65.422222-119.466667 130.844444-179.2 194.844444-1.422222 1.422222-5.688889 4.266667-7.111111 4.266667h-91.022222V682.666667v-55.466667c0-2.844444 1.422222-5.688889 2.844444-8.533333L803.555556 384l2.844444-2.844444z m-139.377778 199.111111c-11.377778 11.377778-21.333333 22.755556-31.288889 34.133333-1.422222 1.422222-1.422222 1.422222-1.422222 2.844444l-4.266667 25.6h28.444445c-1.422222 9.955556-1.422222 21.333333-1.422222 31.288889 8.533333-1.422222 17.066667-1.422222 25.6-1.422222 1.422222 0 1.422222-1.422222 2.844444-1.422222 11.377778-11.377778 21.333333-22.755556 32.711111-35.555556-17.066667-19.911111-34.133333-36.977778-51.2-55.466666z m24.177778-7.111111c1.422222-1.422222 4.266667-2.844444 5.688889-4.266667 38.4-41.244444 75.377778-82.488889 113.777778-123.733333 4.266667-5.688889 5.688889-9.955556 1.422222-14.222223-4.266667-4.266667-7.111111-2.844444-12.8 2.844445-36.977778 41.244444-75.377778 82.488889-113.777778 123.733333-1.422222 1.422222-2.844444 4.266667-4.266667 5.688889 0 4.266667 4.266667 8.533333 9.955556 9.955556zM502.044444 368.355556H281.6c-12.8 0-21.333333-5.688889-25.6-15.644445-4.266667-11.377778-1.422222-24.177778 7.111111-31.288889 4.266667-4.266667 9.955556-5.688889 15.644445-7.111111h445.155555c21.333333 0 32.711111 19.911111 27.022222 38.4-4.266667 11.377778-12.8 17.066667-27.022222 17.066667-75.377778-1.422222-147.911111-1.422222-221.866667-1.422222z m-59.733333 110.933333h160.711111c11.377778 0 19.911111 4.266667 25.6 14.222222 5.688889 11.377778 4.266667 21.333333-2.844444 31.288889-4.266667 5.688889-9.955556 8.533333-17.066667 9.955556H283.022222c-22.755556 0-32.711111-19.911111-27.022222-38.4 4.266667-11.377778 12.8-18.488889 25.6-18.488889 52.622222 1.422222 106.666667 1.422222 160.711111 1.422222z m-83.911111 221.866667h-76.8c-15.644444 0-27.022222-11.377778-27.022222-27.022223 0-15.644444 11.377778-28.444444 27.022222-28.444444h155.022222c15.644444 0 27.022222 12.8 27.022222 28.444444s-11.377778 27.022222-27.022222 27.022223h-78.222222z" p-id="2035"></path></svg>