<?xml version="1.0" standalone="no"?><!DOCTYPE svg PUBLIC "-//W3C//DTD SVG 1.1//EN" "http://www.w3.org/Graphics/SVG/1.1/DTD/svg11.dtd"><svg t="1563790113792" class="icon" viewBox="0 0 1024 1024" version="1.1" xmlns="http://www.w3.org/2000/svg" p-id="2758" xmlns:xlink="http://www.w3.org/1999/xlink" width="400" height="400"><defs><style type="text/css"></style></defs><path d="M612.20308765 491.40194418a362.66748587 362.66748587 0 0 1-6.2099001 12.7401984l-0.87381333 1.6544199a309.72022329 309.72022329 0 0 1-5.65065955 10.4333312l-1.47383182 2.55736036a292.3429888 292.3429888 0 0 1-5.83124765 9.60029582l-1.29906915 2.06802489c-2.37677227 3.70496853-4.79432249 7.340032-7.28177778 10.89353956v0.1048576a242.23853227 242.23853227 0 0 1-26.34255929 31.53883591l-0.30292196 0.28544569a196.7652864 196.7652864 0 0 1-9.57699413 8.93619769v34.21270471l0.30874738 0.19223893c0.35535075 0.19806435 1.95151645 1.04275058 4.16517688 2.40589938-52.0093696 87.09588765-40.67309795 198.00610133 27.88629618 272.76957013H109.49827698a42.91006009 42.91006009 0 0 1-41.65759431-56.20949902l4.93413262-35.59332978a121.90861085 121.90861085 0 0 1 70.29536996-73.3478912l43.09064817-17.31898027a1101.22616605 1101.22616605 0 0 0 165.29635556-83.3093632c8.45268765-5.7147392 14.33636409-8.95367395 15.1519232-9.39058062l0.33204907-0.20388978v-36.89239893a280.89020871 280.89020871 0 0 1-63.26991076-87.62600107 83.69966649 83.69966649 0 0 1-51.91033742-53.17445404c-11.65084445-39.14683733-0.92041671-52.85405582 16.75391431-57.44448853a45.97423218 45.97423218 0 0 1-0.32622365-2.85445689c-2.89523485-36.62442951 0-109.61696995 0-109.61696996a136.72848498 136.72848498 0 0 1 56.623104-119.15901155 95.80489387 95.80489387 0 0 1-9.5944704-41.71584853c11.14403271 5.16714951 41.34884693 7.26430151 133.45459769 5.5574528 3.11077547 0 6.00018489-0.1572864 8.388608-0.1572864h4.32828871c45.99170845 0.70487609 184.66588445 13.86450489 184.66588445 155.35818524 0 0 2.87775858 72.99254045 0 109.61696996 0 0.97284551-0.19806435 1.94569102-0.33204907 2.85445688 17.6685056 4.60790898 28.311552 18.2976512 16.75973974 57.44448854a84.18900195 84.18900195 0 0 1-50.2792192 52.78997618z" p-id="2759"></path><path d="M863.58170738 865.55716266c-71.37307307 71.36724765-187.49703965 71.36142222-258.86428729 0-71.3555968-71.37307307-71.3555968-187.49121422 0-258.86428728 71.37307307-71.36142222 187.49121422-71.36142222 258.86428729 0 71.36142222 71.37889849 71.36724765 187.49121422 0 258.86428728z m-230.6342912-230.62846578c-55.80171947 55.80171947-55.80171947 146.5909248 0.00582542 202.39264427 55.80171947 55.80754489 146.5909248 55.80754489 202.39264427 0 55.80754489-55.80171947 55.80754489-146.5909248 0-202.39264427-55.80171947-55.80754489-146.59675022-55.80754489-202.39846969 0z" p-id="2760"></path><path d="M816.27927893 665.14516195a19.89381689 19.89381689 0 0 1-4.35741582 9.34980267l-124.96113209 148.93274453a19.96954738 19.96954738 0 0 1-30.58346667-25.67263573l124.9611321-148.91526827a19.9753728 19.9753728 0 0 1 28.1309639-2.46997902 19.95789653 19.95789653 0 0 1 6.80991858 18.77533582z" p-id="2761"></path></svg>