<?xml version="1.0" standalone="no"?><!DOCTYPE svg PUBLIC "-//W3C//DTD SVG 1.1//EN" "http://www.w3.org/Graphics/SVG/1.1/DTD/svg11.dtd"><svg t="1560312941795" class="icon" style="" viewBox="0 0 1024 1024" version="1.1" xmlns="http://www.w3.org/2000/svg" p-id="2321" xmlns:xlink="http://www.w3.org/1999/xlink" width="400" height="400"><defs><style type="text/css"></style></defs><path d="M707.697778 256a153.6 153.6 0 0 0-142.222222-63.146667A122.311111 122.311111 0 0 0 481.848889 284.444444a108.088889 108.088889 0 0 0-151.893333-32.995555C227.555556 307.2 260.551111 412.444444 309.475556 475.022222s227.555556 166.115556 270.791111 216.177778a253.155556 253.155556 0 0 1 38.684444 128.568889 744.675556 744.675556 0 0 0 118.897778-227.555556 410.168889 410.168889 0 0 0-30.151111-336.213333zM847.075556 720.782222a1124.124444 1124.124444 0 0 0-61.44-216.746666A501.76 501.76 0 0 1 725.902222 739.555556c-56.888889 86.471111-96.711111 156.444444-72.817778 207.075555a94.435556 94.435556 0 0 0 137.102223 40.96c55.182222-34.702222 75.093333-155.875556 56.888889-266.808889zM128 158.151111c-20.48 20.48-10.24 62.008889 22.755556 92.728889s76.231111 38.115556 96.711111 17.635556 10.24-62.008889-22.755556-92.728889-76.231111-38.684444-96.711111-17.635556zM337.92 182.613333c21.617778-14.222222 21.617778-52.337778 0-84.764444s-56.888889-48.355556-79.075556-34.133333-21.617778 52.337778 0 84.764444 56.888889 48.355556 79.075556 34.133333z" p-id="2322"></path><path d="M373.461368 113.371107a64.853333 42.666667 62.69 1 0 75.821839-39.15133 64.853333 42.666667 62.69 1 0-75.821839 39.15133Z" p-id="2323"></path><path d="M498.076896 97.246941a58.595556 38.115556 71.8 1 0 72.417425-23.809638 58.595556 38.115556 71.8 1 0-72.417425 23.809638Z" p-id="2324"></path><path d="M601.718975 126.911453a49.493333 32.426667 71.8 1 0 61.608854-20.255961 49.493333 32.426667 71.8 1 0-61.608854 20.255961Z" p-id="2325"></path></svg>