<?xml version="1.0" standalone="no"?><!DOCTYPE svg PUBLIC "-//W3C//DTD SVG 1.1//EN" "http://www.w3.org/Graphics/SVG/1.1/DTD/svg11.dtd"><svg t="1562145843224" class="icon" viewBox="0 0 1024 1024" version="1.1" xmlns="http://www.w3.org/2000/svg" p-id="4176" xmlns:xlink="http://www.w3.org/1999/xlink" width="400" height="400"><defs><style type="text/css"></style></defs><path d="M692.053333 474.502095 331.897905 474.502095c-119.369143 0-216.088381-100.766476-216.088381-225.060571S212.528762 24.380952 331.897905 24.380952l360.131048 0c119.369143 0 216.137143 100.766476 216.137143 225.060571S811.398095 474.502095 692.053333 474.502095zM692.053333 61.878857 331.897905 61.878857c-99.449905 0-180.077714 83.992381-180.077714 187.562667s80.62781 187.562667 180.077714 187.562667l360.131048 0c99.474286 0 180.077714-83.992381 180.077714-187.562667S791.527619 61.878857 692.053333 61.878857zM331.897905 399.433143c-79.579429 0-144.067048-67.145143-144.067048-149.991619s64.512-150.064762 144.067048-150.064762c79.555048 0 144.042667 67.193905 144.042667 150.064762S411.452952 399.433143 331.897905 399.433143zM331.897905 549.497905l360.131048 0c119.369143 0 216.137143 100.790857 216.137143 225.060571S811.398095 999.619048 692.053333 999.619048L331.897905 999.619048c-119.369143 0-216.088381-100.766476-216.088381-225.03619S212.528762 549.497905 331.897905 549.497905zM692.053333 924.623238c79.60381 0 144.11581-67.193905 144.11581-150.040381s-64.512-150.064762-144.11581-150.064762c-79.579429 0-144.042667 67.218286-144.042667 150.064762S612.473905 924.623238 692.053333 924.623238z" p-id="4177" fill="#cdcdcd"></path></svg>