<?xml version="1.0" standalone="no"?><!DOCTYPE svg PUBLIC "-//W3C//DTD SVG 1.1//EN" "http://www.w3.org/Graphics/SVG/1.1/DTD/svg11.dtd"><svg t="1558518492175" class="icon" style="" viewBox="0 0 1024 1024" version="1.1" xmlns="http://www.w3.org/2000/svg" p-id="19664" xmlns:xlink="http://www.w3.org/1999/xlink" width="250" height="250"><defs><style type="text/css"></style></defs><path d="M554.5 117.5l-42.6 90.8-39.8-79.6L64.2 340.4l262.4 568.4 48.1-22.3c43.3-20.1 84.1-39.1 126-57.6 6.6-2.9 17.7-2.7 24.8 0.4 22.6 10.2 45.2 21.6 67 32.7 9.6 4.9 19.2 9.7 28.8 14.5 13.5 6.7 27.1 13.3 41.1 20.1l25.3 12.3 276.5-582.3-409.7-209.1zM903.1 350L666.8 838.9l-332-164.3 248.9-488.5L903.1 350zM442.7 200.3l7.2 12.7c9.4 16.5 19.1 33.6 27.8 50.7 1 2 0.4 8-1.9 12.6-57.3 114.2-114.9 228.3-174 345.4l-25.6 50.7-143.5-313.1 310-159z m-88.5 642.5l-61.3-134.1c4.3 2 7.9 3.6 11.4 5.4 40.2 20.3 80.4 40.7 122.3 62l36.1 18.3-108.5 48.4z" p-id="19665" fill="#bfbfbf"></path><path d="M735.2 433.8c-13.8-3-27.8-3.7-42.6-4.5-5.5-0.3-11.1-0.6-16.9-1-17.2-51.1-57-74.1-107.3-61.7-51.1 12.6-77.2 56.3-69.8 116.9 5.8 47.1 22.4 94.1 50.7 143.5 3.3 5.8 12.2 14.5 20.7 14.6 2.9 0 5.8 0.1 8.7 0.1 64.9 0 113-10.8 154.9-34.7 39.7-22.6 59.5-59 57.4-105.3-1.7-35.7-22-60.4-55.8-67.9z m-148 169c-3.5 0.3-7.9-2.3-8.7-3.7-21.4-41.4-44-90.1-40.9-144.3 1.3-23.4 10.2-38 28.1-46.1 9.9-4.5 18.9-6.7 27.2-6.7 9.7 0 18.6 3.1 26.9 9.2 16.9 12.4 21.6 29.5 14.9 53.7l-1.3 4.5 26.9 14.1 2.7-1.5c2.8-1.5 5.5-3.1 8.2-4.7 5-3 9.8-5.9 14.6-7.3 15.3-4.7 37.4-6.7 56.2 10 19.6 17.5 9.6 42.7 6.1 50-8.8 18.2-22.2 34.3-35.7 43-35.8 23.2-77.9 27.2-125.2 29.8zM588.8 202.9l-21.7 43.9 40.2 19.7 22.3-43.7zM196.2 349.7l-38.8 19 21.3 41.9 38.3-19.3z" p-id="19666" fill="#bfbfbf"></path></svg>