<?xml version="1.0" standalone="no"?><!DOCTYPE svg PUBLIC "-//W3C//DTD SVG 1.1//EN" "http://www.w3.org/Graphics/SVG/1.1/DTD/svg11.dtd"><svg t="1563259295551" class="icon" viewBox="0 0 1024 1024" version="1.1" xmlns="http://www.w3.org/2000/svg" p-id="1707" xmlns:xlink="http://www.w3.org/1999/xlink" width="400" height="400"><defs><style type="text/css"></style></defs><path d="M306.210053 401.547138v-51.501514a2.010392 2.010392 0 0 0-1.951263-1.951263h-51.560644a2.010392 2.010392 0 0 0-1.951263 1.951263v51.501514a2.010392 2.010392 0 0 0 1.951263 1.951263h51.501515a2.010392 2.010392 0 0 0 2.010392-1.951263z m350.636028 0v-51.501514a2.010392 2.010392 0 0 0-1.951263-1.951263H367.881786a2.010392 2.010392 0 0 0-1.951263 1.951263v51.501514a2.010392 2.010392 0 0 0 1.951263 1.951263h286.953903a2.12865 2.12865 0 0 0 1.951263-1.951263zM251.574692 475.990774a2.010392 2.010392 0 0 0-1.951263 1.951263v51.501514a2.010392 2.010392 0 0 0 1.951263 1.951263h51.501514a2.010392 2.010392 0 0 0 1.951263-1.951263v-51.442385a2.010392 2.010392 0 0 0-1.951263-1.951263z m115.479285 0a2.010392 2.010392 0 0 0-1.951262 1.951263v51.501514a2.010392 2.010392 0 0 0 1.951262 1.951263h287.013033a2.010392 2.010392 0 0 0 1.951263-1.951263v-51.442385a2.010392 2.010392 0 0 0-1.951263-1.951263z m116.543611 461.858013H139.879674a2.010392 2.010392 0 0 1-1.951263-1.951263V257.271943a2.010392 2.010392 0 0 1 1.951263-1.951263h691.338355a2.010392 2.010392 0 0 1 1.951262 1.951263v310.369057a2.010392 2.010392 0 0 0 1.951263 1.951263h51.501515a2.010392 2.010392 0 0 0 1.951263-1.951263V56.350994a2.010392 2.010392 0 0 0-1.951263-1.951263h-202.221791a2.010392 2.010392 0 0 1-1.951263-1.951263V2.070408a2.010392 2.010392 0 0 0-1.951262-1.951263h-51.501515a2.010392 2.010392 0 0 0-1.951263 1.951263v50.37806a2.010392 2.010392 0 0 1-1.951263 1.951263H346.063119a2.010392 2.010392 0 0 1-1.951263-1.951263V2.070408a2.010392 2.010392 0 0 0-2.069521-2.069521h-51.442385a2.010392 2.010392 0 0 0-1.951263 1.951263v50.37806a2.010392 2.010392 0 0 1-1.951263 1.951263H84.475633a2.010392 2.010392 0 0 0-1.951262 1.951263v935.068828a2.010392 2.010392 0 0 0 1.951262 1.951263h399.121955a2.010392 2.010392 0 0 0 1.951263-1.951263v-51.501514a1.951263 1.951263 0 0 0-1.951263-1.951263zM137.928411 111.755034a2.010392 2.010392 0 0 1 1.951263-1.951263h146.81775a2.010392 2.010392 0 0 1 1.951263 1.951263v43.400817a2.010392 2.010392 0 0 0 1.951263 1.951263h51.442385a2.010392 2.010392 0 0 0 1.951263-1.951263v-43.400817a2.010392 2.010392 0 0 1 1.951263-1.951263h279.030593a2.010392 2.010392 0 0 1 1.951263 1.951263v43.400817a2.010392 2.010392 0 0 0 1.951263 1.951263h51.501514a2.010392 2.010392 0 0 0 1.951263-1.951263v-43.400817a2.010392 2.010392 0 0 1 1.951263-1.951263h146.758621a2.010392 2.010392 0 0 1 1.951263 1.951263v86.151213a2.010392 2.010392 0 0 1-1.951263 1.951263H139.879674a2.010392 2.010392 0 0 1-1.951263-1.951263z" p-id="1708"></path><path d="M713.669222 606.548a189.745534 189.745534 0 1 1-189.745534 189.745534 189.745534 189.745534 0 0 1 189.745534-189.745534z m0-37.960933a227.706466 227.706466 0 1 0 227.706466 227.706467 227.706466 227.706466 0 0 0-227.706466-227.706467z" p-id="1709"></path><path d="M774.749663 682.410736l-165.266054 185.192587 1.182584 42.632138 41.981717-4.079914 165.266053-185.192587-43.1643-38.552224z" p-id="1710"></path></svg>