<?xml version="1.0" standalone="no"?><!DOCTYPE svg PUBLIC "-//W3C//DTD SVG 1.1//EN" "http://www.w3.org/Graphics/SVG/1.1/DTD/svg11.dtd"><svg t="1558575740363" class="icon" style="" viewBox="0 0 1024 1024" version="1.1" xmlns="http://www.w3.org/2000/svg" p-id="17287" xmlns:xlink="http://www.w3.org/1999/xlink" width="300" height="300"><defs><style type="text/css"></style></defs><path d="M402.122 442.332l-80.49 278.489H289.44L208.95 442.332h38.636l56.34 210.882h3.22l56.34-210.882h38.636zM530.9 717.601h-37.023V442.332H530.9v275.269z m276.878-191.557c0 25.753-7.513 46.142-22.536 61.166-15.116 15.03-36.038 22.541-62.782 22.541h-46.684v107.85h-37.028V442.332h83.712c26.744 0 47.665 7.512 62.782 22.543 15.023 15.024 22.536 35.412 22.536 61.169z m-37.023 0c0-20.393-4.831-34.34-14.486-41.857-9.667-7.507-24.154-11.266-43.47-11.266h-37.024v106.245H712.8c19.315 0 33.8-3.76 43.469-11.273 9.655-7.513 14.486-21.46 14.486-41.85zM956.942 807.99c0 33.91-27.493 61.397-61.398 61.397H119.93c-33.913 0-61.402-27.486-61.402-61.397V216.01c0-33.91 27.489-61.397 61.402-61.397h775.614c33.905 0 61.398 27.486 61.398 61.397v591.98z m-49.234-466.293h-804.04V789.63c0 17.689 14.34 32.037 32.036 32.037h739.972c17.69 0 32.033-14.348 32.033-32.037V341.697h-0.001z m0-52.891v-51.367c0-17.69-14.343-32.03-32.033-32.03h-739.97c-17.697 0-32.036 14.34-32.036 32.03v51.367h804.039z m0 0" fill="" p-id="17288"></path></svg>