<?xml version="1.0" standalone="no"?><!DOCTYPE svg PUBLIC "-//W3C//DTD SVG 1.1//EN" "http://www.w3.org/Graphics/SVG/1.1/DTD/svg11.dtd"><svg t="1561617915305" class="icon" viewBox="0 0 1024 1024" version="1.1" xmlns="http://www.w3.org/2000/svg" p-id="2028" xmlns:xlink="http://www.w3.org/1999/xlink" width="400" height="400"><defs><style type="text/css"></style></defs><path d="M530.831 820.437c-134.818-46.891-365.975-229.177-362.824-423.57 3.692-214.948 233.281-259.733 362.824-139.616 129.003-120.116 358.592-75.332 362.284 139.617 3.152 194.394-227.482 376.679-362.284 423.57v0zM216.987 393.176c-5.275 16.332-6.842 32.663-3.171 55.317 3.691 22.653 42.658 23.183 35.815 4.745-6.321-18.439-5.275-35.825 2.631-56.902 9.488-17.908-27.91-25.292-35.276-3.159v0zM602.442 287.285c305.94-68.491 211.153 329.798-76.887 446.223-32.124 13.172-18.422 56.903 12.64 42.144 386.502-184.393 359.13-612.175 60.035-525.776-27.91 8.428-12.641 41.091 4.212 37.409v0zM271.223 346.285c67.922-107.475 148.487-93.771 224.313-7.896 26.866 30.025 49.5 1.575 32.647-19.493-82.148-101.154-210.108-113.805-285.395 1.053-15.809 24.228 18.963 41.092 28.433 26.334v0z" p-id="2029"></path></svg>