<?xml version="1.0" standalone="no"?><!DOCTYPE svg PUBLIC "-//W3C//DTD SVG 1.1//EN" "http://www.w3.org/Graphics/SVG/1.1/DTD/svg11.dtd"><svg t="1558574951295" class="icon" style="" viewBox="0 0 1024 1024" version="1.1" xmlns="http://www.w3.org/2000/svg" p-id="6589" xmlns:xlink="http://www.w3.org/1999/xlink" width="300" height="300"><defs><style type="text/css"></style></defs><path d="M961.856 358.464V870.4c0 12.8-2.624 24.064-7.872 33.664s-11.072 17.664-17.472 24.064c-9.344 9.344-18.816 15.872-28.416 19.712-9.6 3.776-19.392 5.696-29.312 5.696H136.768c-22.72-0.576-41.152-8.448-55.104-23.616-14.016-15.168-21.312-32.96-21.888-53.376V358.464l83.136-256.384c0-1.728 6.72-9.216 20.096-22.336 13.44-13.12 34.432-20.544 62.976-22.336h569.6c2.944-1.152 15.296 2.496 37.184 10.944 21.888 8.448 37.184 28.16 45.952 59.072l83.136 231.04z m-108.48-63.872l-51.648-153.984H213.76l-45.504 153.984h685.12z m-171.072 385.472c11.392-11.392 17.088-26.816 17.088-46.4 0-19.52-5.696-35.008-17.088-46.4s-27.008-17.344-46.784-17.92H380.032c-19.84 0.576-35.456 6.592-46.784 17.92s-17.088 26.816-17.088 46.4c0 19.52 5.696 35.008 17.088 46.4s26.944 17.088 46.784 17.088H635.52c19.776-0.064 35.392-5.696 46.784-17.088z" p-id="6590"></path></svg>