<?xml version="1.0" standalone="no"?><!DOCTYPE svg PUBLIC "-//W3C//DTD SVG 1.1//EN" "http://www.w3.org/Graphics/SVG/1.1/DTD/svg11.dtd"><svg t="1558574598808" class="icon" style="" viewBox="0 0 1024 1024" version="1.1" xmlns="http://www.w3.org/2000/svg" p-id="1837" xmlns:xlink="http://www.w3.org/1999/xlink" width="300" height="300"><defs><style type="text/css"></style></defs><path d="M827.252364 285.416727l-223.045819 196.747637-231.610181-177.989819c-8.564364-9.402182-25.739636 0-34.304 9.355637l-188.741819 187.345454c-8.564364 9.402182-17.175273 37.469091 0 46.871273 8.564364 9.309091 34.304 18.711273 42.868364 0l171.613091-168.634182 231.610182 168.634182c8.564364 0 8.564364 9.309091 17.128727 9.309091 8.610909 0 17.175273 0 17.175273-9.309091l240.174545-206.103273c17.221818-9.355636 17.221818-28.113455 8.610909-46.871272-17.175273-18.711273-34.304-18.711273-51.479272-9.309091" p-id="1838"></path><path d="M955.717818 77.451636h-409.6V34.397091C546.117818 17.221818 529.082182 0 512 0s-34.117818 17.221818-34.117818 34.443636v43.008h-409.6C34.117818 77.451636 0 103.237818 0 146.292364v567.947636c0 34.397091 34.117818 68.840727 68.282182 68.840727h409.6v34.397091l-187.764364 146.292364c-17.035636 8.610909-17.035636 25.832727-8.517818 43.008 8.517818 17.221818 25.6 17.221818 42.682182 8.610909l153.6-111.848727 17.035636-17.221819c8.564364-8.610909 17.082182-8.610909 25.6 0l17.082182 17.221819 153.6 111.848727c8.517818 0 8.517818 8.610909 17.082182 8.610909 8.517818 0 17.035636 0 25.6-8.610909 8.517818-17.221818 8.517818-34.443636-8.564364-43.008l-179.2-154.903273v-34.443636h409.6c34.164364 0 68.282182-34.397091 68.282182-68.794182V146.292364c0-43.054545-34.117818-68.887273-68.282182-68.887273z m8.564364 636.741819s0 8.610909 0 0l-896 8.610909c-8.564364 0-8.564364 0-8.564364-8.564364V146.292364c0-8.610909 0-8.610909 8.564364-8.610909h887.435636c8.564364 0 8.564364 0 8.564364 8.610909v567.947636z" p-id="1839"></path></svg>